G04 #@! TF.GenerationSoftware,KiCad,Pcbnew,(5.1.2)-1*
G04 #@! TF.CreationDate,2019-06-04T09:14:30-07:00*
G04 #@! TF.ProjectId,selector,73656c65-6374-46f7-922e-6b696361645f,rev?*
G04 #@! TF.SameCoordinates,Original*
G04 #@! TF.FileFunction,Copper,L1,Top*
G04 #@! TF.FilePolarity,Positive*
%FSLAX46Y46*%
G04 Gerber Fmt 4.6, Leading zero omitted, Abs format (unit mm)*
G04 Created by KiCad (PCBNEW (5.1.2)-1) date 2019-06-04 09:14:30*
%MOMM*%
%LPD*%
G04 APERTURE LIST*
%ADD10C,1.600000*%
%ADD11R,1.800000X1.800000*%
%ADD12C,1.800000*%
%ADD13O,1.600000X1.600000*%
%ADD14R,2.800000X3.600000*%
%ADD15C,2.000000*%
%ADD16R,1.600000X1.600000*%
%ADD17R,1.700000X1.700000*%
%ADD18O,1.700000X1.700000*%
%ADD19C,0.800000*%
%ADD20C,0.250000*%
%ADD21C,0.254000*%
G04 APERTURE END LIST*
D10*
X66500000Y-158000000D03*
X64000000Y-158000000D03*
X89000000Y-157000000D03*
X91500000Y-157000000D03*
D11*
X63000000Y-73000000D03*
D12*
X65540000Y-73000000D03*
X65540000Y-80000000D03*
D11*
X63000000Y-80000000D03*
D12*
X65540000Y-87000000D03*
D11*
X63000000Y-87000000D03*
X63000000Y-94000000D03*
D12*
X65540000Y-94000000D03*
X65540000Y-101000000D03*
D11*
X63000000Y-101000000D03*
X63000000Y-108000000D03*
D12*
X65540000Y-108000000D03*
X65540000Y-115000000D03*
D11*
X63000000Y-115000000D03*
X63000000Y-122000000D03*
D12*
X65540000Y-122000000D03*
X65540000Y-129000000D03*
D11*
X63000000Y-129000000D03*
X63000000Y-136000000D03*
D12*
X65540000Y-136000000D03*
X65540000Y-143000000D03*
D11*
X63000000Y-143000000D03*
X63000000Y-150000000D03*
D12*
X65540000Y-150000000D03*
D13*
X76000000Y-147160000D03*
D10*
X76000000Y-137000000D03*
X84000000Y-137000000D03*
D13*
X84000000Y-147160000D03*
X71000000Y-147160000D03*
D10*
X71000000Y-137000000D03*
D13*
X85000000Y-126660000D03*
D10*
X85000000Y-116500000D03*
X89000000Y-137000000D03*
D13*
X89000000Y-147160000D03*
D10*
X85000000Y-81500000D03*
D13*
X85000000Y-91660000D03*
D14*
X72000000Y-159000000D03*
X83400000Y-159000000D03*
D15*
X75200000Y-152000000D03*
X80200000Y-152000000D03*
X75200000Y-166500000D03*
X77700000Y-166500000D03*
X80200000Y-166500000D03*
D13*
X79620000Y-79000000D03*
X72000000Y-96780000D03*
X79620000Y-81540000D03*
X72000000Y-94240000D03*
X79620000Y-84080000D03*
X72000000Y-91700000D03*
X79620000Y-86620000D03*
X72000000Y-89160000D03*
X79620000Y-89160000D03*
X72000000Y-86620000D03*
X79620000Y-91700000D03*
X72000000Y-84080000D03*
X79620000Y-94240000D03*
X72000000Y-81540000D03*
X79620000Y-96780000D03*
D16*
X72000000Y-79000000D03*
X72000000Y-114000000D03*
D13*
X79620000Y-131780000D03*
X72000000Y-116540000D03*
X79620000Y-129240000D03*
X72000000Y-119080000D03*
X79620000Y-126700000D03*
X72000000Y-121620000D03*
X79620000Y-124160000D03*
X72000000Y-124160000D03*
X79620000Y-121620000D03*
X72000000Y-126700000D03*
X79620000Y-119080000D03*
X72000000Y-129240000D03*
X79620000Y-116540000D03*
X72000000Y-131780000D03*
X79620000Y-114000000D03*
D17*
X91500000Y-87500000D03*
D18*
X88960000Y-87500000D03*
X91500000Y-90040000D03*
X88960000Y-90040000D03*
X91500000Y-92580000D03*
X88960000Y-92580000D03*
X91500000Y-95120000D03*
X88960000Y-95120000D03*
X91500000Y-97660000D03*
X88960000Y-97660000D03*
D10*
X74500000Y-109500000D03*
X79500000Y-109500000D03*
X77000000Y-75000000D03*
X72000000Y-75000000D03*
D16*
X87500000Y-106000000D03*
D10*
X90000000Y-106000000D03*
D19*
X78000000Y-112000000D03*
X84500000Y-112000000D03*
X72000000Y-109000000D03*
X89000000Y-77500000D03*
X69000000Y-119000000D03*
X82500000Y-118000000D03*
X82000000Y-106540000D03*
X77000000Y-106500000D03*
D20*
X78000000Y-112000000D02*
X78000000Y-112000000D01*
X78000000Y-112000000D02*
X84500000Y-112000000D01*
X89000000Y-157700000D02*
X89000000Y-157000000D01*
X67540000Y-152000000D02*
X65540000Y-150000000D01*
X75200000Y-152000000D02*
X67540000Y-152000000D01*
X63000000Y-74150000D02*
X69000000Y-80150000D01*
X63000000Y-73000000D02*
X63000000Y-74150000D01*
X69000000Y-86160000D02*
X72000000Y-89160000D01*
X69000000Y-80150000D02*
X69000000Y-86160000D01*
X63000000Y-81150000D02*
X68000000Y-86150000D01*
X63000000Y-80000000D02*
X63000000Y-81150000D01*
X68000000Y-87700000D02*
X72000000Y-91700000D01*
X68000000Y-86150000D02*
X68000000Y-87700000D01*
X70868630Y-94240000D02*
X72000000Y-94240000D01*
X69090000Y-94240000D02*
X70868630Y-94240000D01*
X63000000Y-88150000D02*
X69090000Y-94240000D01*
X63000000Y-87000000D02*
X63000000Y-88150000D01*
X70868630Y-96780000D02*
X72000000Y-96780000D01*
X64630000Y-96780000D02*
X70868630Y-96780000D01*
X63000000Y-95150000D02*
X64630000Y-96780000D01*
X63000000Y-94000000D02*
X63000000Y-95150000D01*
X63000000Y-99850000D02*
X63850000Y-99000000D01*
X63000000Y-101000000D02*
X63000000Y-99850000D01*
X77400000Y-99000000D02*
X79620000Y-96780000D01*
X63850000Y-99000000D02*
X77400000Y-99000000D01*
X63726998Y-108000000D02*
X71726998Y-100000000D01*
X63000000Y-108000000D02*
X63726998Y-108000000D01*
X71726998Y-100000000D02*
X80000000Y-100000000D01*
X79620000Y-94240000D02*
X81240000Y-94240000D01*
X81240000Y-94240000D02*
X82000000Y-95000000D01*
X82000000Y-95000000D02*
X82000000Y-98000000D01*
X82000000Y-98000000D02*
X80000000Y-100000000D01*
X80419999Y-92499999D02*
X82499999Y-92499999D01*
X79620000Y-91700000D02*
X80419999Y-92499999D01*
X82499999Y-92499999D02*
X83000000Y-93000000D01*
X83000000Y-93000000D02*
X83000000Y-97636410D01*
X83000000Y-97636410D02*
X73636410Y-107000000D01*
X73636410Y-107000000D02*
X71000000Y-107000000D01*
X71000000Y-107000000D02*
X63000000Y-115000000D01*
X63000000Y-120850000D02*
X68000000Y-115850000D01*
X63000000Y-122000000D02*
X63000000Y-120850000D01*
X68000000Y-115850000D02*
X68000000Y-113000000D01*
X68000000Y-113000000D02*
X72000000Y-109000000D01*
X70868630Y-124160000D02*
X72000000Y-124160000D01*
X66690000Y-124160000D02*
X70868630Y-124160000D01*
X63000000Y-127850000D02*
X66690000Y-124160000D01*
X63000000Y-129000000D02*
X63000000Y-127850000D01*
X71150000Y-126700000D02*
X72000000Y-126700000D01*
X63000000Y-134850000D02*
X71150000Y-126700000D01*
X63000000Y-136000000D02*
X63000000Y-134850000D01*
X63000000Y-141850000D02*
X68500000Y-136350000D01*
X63000000Y-143000000D02*
X63000000Y-141850000D01*
X68500000Y-132740000D02*
X72000000Y-129240000D01*
X68500000Y-136350000D02*
X68500000Y-132740000D01*
X63000000Y-147353002D02*
X69500000Y-140853002D01*
X63000000Y-150000000D02*
X63000000Y-147353002D01*
X69500000Y-134280000D02*
X72000000Y-131780000D01*
X69500000Y-140853002D02*
X69500000Y-134280000D01*
X72000000Y-81540000D02*
X73960000Y-81540000D01*
X73960000Y-81540000D02*
X78000000Y-77500000D01*
X78000000Y-77500000D02*
X89000000Y-77500000D01*
X89000000Y-77500000D02*
X89000000Y-77500000D01*
X72000000Y-119080000D02*
X69080000Y-119080000D01*
X92460000Y-90040000D02*
X91500000Y-90040000D01*
X94000000Y-88500000D02*
X92460000Y-90040000D01*
X94000000Y-86000000D02*
X94000000Y-88500000D01*
X90954999Y-82954999D02*
X94000000Y-86000000D01*
X72000000Y-84080000D02*
X73125001Y-82954999D01*
X73125001Y-82954999D02*
X90954999Y-82954999D01*
X88110001Y-89190001D02*
X88960000Y-90040000D01*
X84414999Y-85494999D02*
X88110001Y-89190001D01*
X73125001Y-85494999D02*
X84414999Y-85494999D01*
X72000000Y-86620000D02*
X73125001Y-85494999D01*
X90650001Y-91730001D02*
X91500000Y-92580000D01*
X90324999Y-91404999D02*
X90650001Y-91730001D01*
X88404999Y-91404999D02*
X90324999Y-91404999D01*
X79620000Y-86620000D02*
X83620000Y-86620000D01*
X83620000Y-86620000D02*
X88404999Y-91404999D01*
X80700000Y-118000000D02*
X79620000Y-119080000D01*
X82500000Y-118000000D02*
X80700000Y-118000000D01*
X84960000Y-116540000D02*
X85000000Y-116500000D01*
X79620000Y-116540000D02*
X84960000Y-116540000D01*
X79660000Y-81500000D02*
X79620000Y-81540000D01*
X85000000Y-81500000D02*
X79660000Y-81500000D01*
X81960000Y-106500000D02*
X82000000Y-106540000D01*
X77000000Y-106500000D02*
X81960000Y-106500000D01*
X71000000Y-147160000D02*
X76000000Y-147160000D01*
X84000000Y-147160000D02*
X89000000Y-147160000D01*
D21*
G36*
X94315000Y-85240198D02*
G01*
X91518803Y-82444002D01*
X91495000Y-82414998D01*
X91379275Y-82320025D01*
X91247246Y-82249453D01*
X91103985Y-82205996D01*
X90992332Y-82194999D01*
X90992321Y-82194999D01*
X90954999Y-82191323D01*
X90917677Y-82194999D01*
X86261476Y-82194999D01*
X86271680Y-82179727D01*
X86379853Y-81918574D01*
X86435000Y-81641335D01*
X86435000Y-81358665D01*
X86379853Y-81081426D01*
X86271680Y-80820273D01*
X86114637Y-80585241D01*
X85914759Y-80385363D01*
X85679727Y-80228320D01*
X85418574Y-80120147D01*
X85141335Y-80065000D01*
X84858665Y-80065000D01*
X84581426Y-80120147D01*
X84320273Y-80228320D01*
X84085241Y-80385363D01*
X83885363Y-80585241D01*
X83781957Y-80740000D01*
X80819520Y-80740000D01*
X80818932Y-80738899D01*
X80639608Y-80520392D01*
X80421101Y-80341068D01*
X80288142Y-80270000D01*
X80421101Y-80198932D01*
X80639608Y-80019608D01*
X80818932Y-79801101D01*
X80952182Y-79551808D01*
X81034236Y-79281309D01*
X81061943Y-79000000D01*
X81034236Y-78718691D01*
X80952182Y-78448192D01*
X80851591Y-78260000D01*
X88296289Y-78260000D01*
X88340226Y-78303937D01*
X88509744Y-78417205D01*
X88698102Y-78495226D01*
X88898061Y-78535000D01*
X89101939Y-78535000D01*
X89301898Y-78495226D01*
X89490256Y-78417205D01*
X89659774Y-78303937D01*
X89803937Y-78159774D01*
X89917205Y-77990256D01*
X89995226Y-77801898D01*
X90035000Y-77601939D01*
X90035000Y-77398061D01*
X89995226Y-77198102D01*
X89917205Y-77009744D01*
X89803937Y-76840226D01*
X89659774Y-76696063D01*
X89490256Y-76582795D01*
X89301898Y-76504774D01*
X89101939Y-76465000D01*
X88898061Y-76465000D01*
X88698102Y-76504774D01*
X88509744Y-76582795D01*
X88340226Y-76696063D01*
X88296289Y-76740000D01*
X78037325Y-76740000D01*
X78000000Y-76736324D01*
X77962675Y-76740000D01*
X77962667Y-76740000D01*
X77851014Y-76750997D01*
X77707753Y-76794454D01*
X77575724Y-76865026D01*
X77459999Y-76959999D01*
X77436201Y-76988997D01*
X73645199Y-80780000D01*
X73220901Y-80780000D01*
X73198932Y-80738899D01*
X73019608Y-80520392D01*
X72906518Y-80427581D01*
X72924482Y-80425812D01*
X73044180Y-80389502D01*
X73154494Y-80330537D01*
X73251185Y-80251185D01*
X73330537Y-80154494D01*
X73389502Y-80044180D01*
X73425812Y-79924482D01*
X73438072Y-79800000D01*
X73435000Y-79285750D01*
X73276250Y-79127000D01*
X72127000Y-79127000D01*
X72127000Y-79147000D01*
X71873000Y-79147000D01*
X71873000Y-79127000D01*
X70723750Y-79127000D01*
X70565000Y-79285750D01*
X70561928Y-79800000D01*
X70574188Y-79924482D01*
X70610498Y-80044180D01*
X70669463Y-80154494D01*
X70748815Y-80251185D01*
X70845506Y-80330537D01*
X70955820Y-80389502D01*
X71075518Y-80425812D01*
X71093482Y-80427581D01*
X70980392Y-80520392D01*
X70801068Y-80738899D01*
X70667818Y-80988192D01*
X70585764Y-81258691D01*
X70558057Y-81540000D01*
X70585764Y-81821309D01*
X70667818Y-82091808D01*
X70801068Y-82341101D01*
X70980392Y-82559608D01*
X71198899Y-82738932D01*
X71331858Y-82810000D01*
X71198899Y-82881068D01*
X70980392Y-83060392D01*
X70801068Y-83278899D01*
X70667818Y-83528192D01*
X70585764Y-83798691D01*
X70558057Y-84080000D01*
X70585764Y-84361309D01*
X70667818Y-84631808D01*
X70801068Y-84881101D01*
X70980392Y-85099608D01*
X71198899Y-85278932D01*
X71331858Y-85350000D01*
X71198899Y-85421068D01*
X70980392Y-85600392D01*
X70801068Y-85818899D01*
X70667818Y-86068192D01*
X70585764Y-86338691D01*
X70558057Y-86620000D01*
X70560598Y-86645796D01*
X69760000Y-85845199D01*
X69760000Y-80187322D01*
X69763676Y-80149999D01*
X69760000Y-80112676D01*
X69760000Y-80112667D01*
X69749003Y-80001014D01*
X69705546Y-79857753D01*
X69634974Y-79725724D01*
X69620226Y-79707753D01*
X69563799Y-79638996D01*
X69563795Y-79638992D01*
X69540001Y-79609999D01*
X69511009Y-79586206D01*
X68124803Y-78200000D01*
X70561928Y-78200000D01*
X70565000Y-78714250D01*
X70723750Y-78873000D01*
X71873000Y-78873000D01*
X71873000Y-77723750D01*
X72127000Y-77723750D01*
X72127000Y-78873000D01*
X73276250Y-78873000D01*
X73435000Y-78714250D01*
X73438072Y-78200000D01*
X73425812Y-78075518D01*
X73389502Y-77955820D01*
X73330537Y-77845506D01*
X73251185Y-77748815D01*
X73154494Y-77669463D01*
X73044180Y-77610498D01*
X72924482Y-77574188D01*
X72800000Y-77561928D01*
X72285750Y-77565000D01*
X72127000Y-77723750D01*
X71873000Y-77723750D01*
X71714250Y-77565000D01*
X71200000Y-77561928D01*
X71075518Y-77574188D01*
X70955820Y-77610498D01*
X70845506Y-77669463D01*
X70748815Y-77748815D01*
X70669463Y-77845506D01*
X70610498Y-77955820D01*
X70574188Y-78075518D01*
X70561928Y-78200000D01*
X68124803Y-78200000D01*
X65917505Y-75992702D01*
X71186903Y-75992702D01*
X71258486Y-76236671D01*
X71513996Y-76357571D01*
X71788184Y-76426300D01*
X72070512Y-76440217D01*
X72350130Y-76398787D01*
X72616292Y-76303603D01*
X72741514Y-76236671D01*
X72813097Y-75992702D01*
X72000000Y-75179605D01*
X71186903Y-75992702D01*
X65917505Y-75992702D01*
X64995314Y-75070512D01*
X70559783Y-75070512D01*
X70601213Y-75350130D01*
X70696397Y-75616292D01*
X70763329Y-75741514D01*
X71007298Y-75813097D01*
X71820395Y-75000000D01*
X72179605Y-75000000D01*
X72992702Y-75813097D01*
X73236671Y-75741514D01*
X73357571Y-75486004D01*
X73426300Y-75211816D01*
X73440217Y-74929488D01*
X73429724Y-74858665D01*
X75565000Y-74858665D01*
X75565000Y-75141335D01*
X75620147Y-75418574D01*
X75728320Y-75679727D01*
X75885363Y-75914759D01*
X76085241Y-76114637D01*
X76320273Y-76271680D01*
X76581426Y-76379853D01*
X76858665Y-76435000D01*
X77141335Y-76435000D01*
X77418574Y-76379853D01*
X77679727Y-76271680D01*
X77914759Y-76114637D01*
X78114637Y-75914759D01*
X78271680Y-75679727D01*
X78379853Y-75418574D01*
X78435000Y-75141335D01*
X78435000Y-74858665D01*
X78379853Y-74581426D01*
X78271680Y-74320273D01*
X78114637Y-74085241D01*
X77914759Y-73885363D01*
X77679727Y-73728320D01*
X77418574Y-73620147D01*
X77141335Y-73565000D01*
X76858665Y-73565000D01*
X76581426Y-73620147D01*
X76320273Y-73728320D01*
X76085241Y-73885363D01*
X75885363Y-74085241D01*
X75728320Y-74320273D01*
X75620147Y-74581426D01*
X75565000Y-74858665D01*
X73429724Y-74858665D01*
X73398787Y-74649870D01*
X73303603Y-74383708D01*
X73236671Y-74258486D01*
X72992702Y-74186903D01*
X72179605Y-75000000D01*
X71820395Y-75000000D01*
X71007298Y-74186903D01*
X70763329Y-74258486D01*
X70642429Y-74513996D01*
X70573700Y-74788184D01*
X70559783Y-75070512D01*
X64995314Y-75070512D01*
X64309882Y-74385081D01*
X64351185Y-74351185D01*
X64430537Y-74254494D01*
X64489502Y-74144180D01*
X64495056Y-74125873D01*
X64561495Y-74192312D01*
X64812905Y-74360299D01*
X65092257Y-74476011D01*
X65388816Y-74535000D01*
X65691184Y-74535000D01*
X65987743Y-74476011D01*
X66267095Y-74360299D01*
X66518505Y-74192312D01*
X66703519Y-74007298D01*
X71186903Y-74007298D01*
X72000000Y-74820395D01*
X72813097Y-74007298D01*
X72741514Y-73763329D01*
X72486004Y-73642429D01*
X72211816Y-73573700D01*
X71929488Y-73559783D01*
X71649870Y-73601213D01*
X71383708Y-73696397D01*
X71258486Y-73763329D01*
X71186903Y-74007298D01*
X66703519Y-74007298D01*
X66732312Y-73978505D01*
X66900299Y-73727095D01*
X67016011Y-73447743D01*
X67075000Y-73151184D01*
X67075000Y-72848816D01*
X67016011Y-72552257D01*
X66900299Y-72272905D01*
X66732312Y-72021495D01*
X66518505Y-71807688D01*
X66267095Y-71639701D01*
X65987743Y-71523989D01*
X65691184Y-71465000D01*
X65388816Y-71465000D01*
X65092257Y-71523989D01*
X64812905Y-71639701D01*
X64561495Y-71807688D01*
X64495056Y-71874127D01*
X64489502Y-71855820D01*
X64430537Y-71745506D01*
X64351185Y-71648815D01*
X64254494Y-71569463D01*
X64144180Y-71510498D01*
X64024482Y-71474188D01*
X63900000Y-71461928D01*
X62100000Y-71461928D01*
X61975518Y-71474188D01*
X61855820Y-71510498D01*
X61745506Y-71569463D01*
X61648815Y-71648815D01*
X61569463Y-71745506D01*
X61510498Y-71855820D01*
X61474188Y-71975518D01*
X61461928Y-72100000D01*
X61461928Y-73900000D01*
X61474188Y-74024482D01*
X61510498Y-74144180D01*
X61569463Y-74254494D01*
X61648815Y-74351185D01*
X61745506Y-74430537D01*
X61855820Y-74489502D01*
X61975518Y-74525812D01*
X62100000Y-74538072D01*
X62345674Y-74538072D01*
X62365026Y-74574276D01*
X62427065Y-74649870D01*
X62460000Y-74690001D01*
X62488998Y-74713799D01*
X68240000Y-80464803D01*
X68240001Y-85315199D01*
X64309882Y-81385081D01*
X64351185Y-81351185D01*
X64430537Y-81254494D01*
X64489502Y-81144180D01*
X64495056Y-81125873D01*
X64561495Y-81192312D01*
X64812905Y-81360299D01*
X65092257Y-81476011D01*
X65388816Y-81535000D01*
X65691184Y-81535000D01*
X65987743Y-81476011D01*
X66267095Y-81360299D01*
X66518505Y-81192312D01*
X66732312Y-80978505D01*
X66900299Y-80727095D01*
X67016011Y-80447743D01*
X67075000Y-80151184D01*
X67075000Y-79848816D01*
X67016011Y-79552257D01*
X66900299Y-79272905D01*
X66732312Y-79021495D01*
X66518505Y-78807688D01*
X66267095Y-78639701D01*
X65987743Y-78523989D01*
X65691184Y-78465000D01*
X65388816Y-78465000D01*
X65092257Y-78523989D01*
X64812905Y-78639701D01*
X64561495Y-78807688D01*
X64495056Y-78874127D01*
X64489502Y-78855820D01*
X64430537Y-78745506D01*
X64351185Y-78648815D01*
X64254494Y-78569463D01*
X64144180Y-78510498D01*
X64024482Y-78474188D01*
X63900000Y-78461928D01*
X62100000Y-78461928D01*
X61975518Y-78474188D01*
X61855820Y-78510498D01*
X61745506Y-78569463D01*
X61648815Y-78648815D01*
X61569463Y-78745506D01*
X61510498Y-78855820D01*
X61474188Y-78975518D01*
X61461928Y-79100000D01*
X61461928Y-80900000D01*
X61474188Y-81024482D01*
X61510498Y-81144180D01*
X61569463Y-81254494D01*
X61648815Y-81351185D01*
X61745506Y-81430537D01*
X61855820Y-81489502D01*
X61975518Y-81525812D01*
X62100000Y-81538072D01*
X62345674Y-81538072D01*
X62365026Y-81574276D01*
X62420061Y-81641335D01*
X62460000Y-81690001D01*
X62488998Y-81713799D01*
X67240000Y-86464802D01*
X67240001Y-87662668D01*
X67236324Y-87700000D01*
X67250998Y-87848985D01*
X67294454Y-87992246D01*
X67365026Y-88124276D01*
X67436201Y-88211002D01*
X67460000Y-88240001D01*
X67488998Y-88263799D01*
X70599292Y-91374094D01*
X70585764Y-91418691D01*
X70558057Y-91700000D01*
X70585764Y-91981309D01*
X70667818Y-92251808D01*
X70801068Y-92501101D01*
X70980392Y-92719608D01*
X71198899Y-92898932D01*
X71331858Y-92970000D01*
X71198899Y-93041068D01*
X70980392Y-93220392D01*
X70801068Y-93438899D01*
X70779099Y-93480000D01*
X69404802Y-93480000D01*
X64309882Y-88385081D01*
X64351185Y-88351185D01*
X64430537Y-88254494D01*
X64489502Y-88144180D01*
X64495056Y-88125873D01*
X64561495Y-88192312D01*
X64812905Y-88360299D01*
X65092257Y-88476011D01*
X65388816Y-88535000D01*
X65691184Y-88535000D01*
X65987743Y-88476011D01*
X66267095Y-88360299D01*
X66518505Y-88192312D01*
X66732312Y-87978505D01*
X66900299Y-87727095D01*
X67016011Y-87447743D01*
X67075000Y-87151184D01*
X67075000Y-86848816D01*
X67016011Y-86552257D01*
X66900299Y-86272905D01*
X66732312Y-86021495D01*
X66518505Y-85807688D01*
X66267095Y-85639701D01*
X65987743Y-85523989D01*
X65691184Y-85465000D01*
X65388816Y-85465000D01*
X65092257Y-85523989D01*
X64812905Y-85639701D01*
X64561495Y-85807688D01*
X64495056Y-85874127D01*
X64489502Y-85855820D01*
X64430537Y-85745506D01*
X64351185Y-85648815D01*
X64254494Y-85569463D01*
X64144180Y-85510498D01*
X64024482Y-85474188D01*
X63900000Y-85461928D01*
X62100000Y-85461928D01*
X61975518Y-85474188D01*
X61855820Y-85510498D01*
X61745506Y-85569463D01*
X61648815Y-85648815D01*
X61569463Y-85745506D01*
X61510498Y-85855820D01*
X61474188Y-85975518D01*
X61461928Y-86100000D01*
X61461928Y-87900000D01*
X61474188Y-88024482D01*
X61510498Y-88144180D01*
X61569463Y-88254494D01*
X61648815Y-88351185D01*
X61745506Y-88430537D01*
X61855820Y-88489502D01*
X61975518Y-88525812D01*
X62100000Y-88538072D01*
X62345674Y-88538072D01*
X62365026Y-88574276D01*
X62426340Y-88648986D01*
X62460000Y-88690001D01*
X62488998Y-88713799D01*
X68526200Y-94751002D01*
X68549999Y-94780001D01*
X68578997Y-94803799D01*
X68665724Y-94874974D01*
X68797753Y-94945546D01*
X68941014Y-94989003D01*
X69090000Y-95003677D01*
X69127333Y-95000000D01*
X70779099Y-95000000D01*
X70801068Y-95041101D01*
X70980392Y-95259608D01*
X71198899Y-95438932D01*
X71331858Y-95510000D01*
X71198899Y-95581068D01*
X70980392Y-95760392D01*
X70801068Y-95978899D01*
X70779099Y-96020000D01*
X64944802Y-96020000D01*
X64309882Y-95385081D01*
X64351185Y-95351185D01*
X64430537Y-95254494D01*
X64489502Y-95144180D01*
X64495056Y-95125873D01*
X64561495Y-95192312D01*
X64812905Y-95360299D01*
X65092257Y-95476011D01*
X65388816Y-95535000D01*
X65691184Y-95535000D01*
X65987743Y-95476011D01*
X66267095Y-95360299D01*
X66518505Y-95192312D01*
X66732312Y-94978505D01*
X66900299Y-94727095D01*
X67016011Y-94447743D01*
X67075000Y-94151184D01*
X67075000Y-93848816D01*
X67016011Y-93552257D01*
X66900299Y-93272905D01*
X66732312Y-93021495D01*
X66518505Y-92807688D01*
X66267095Y-92639701D01*
X65987743Y-92523989D01*
X65691184Y-92465000D01*
X65388816Y-92465000D01*
X65092257Y-92523989D01*
X64812905Y-92639701D01*
X64561495Y-92807688D01*
X64495056Y-92874127D01*
X64489502Y-92855820D01*
X64430537Y-92745506D01*
X64351185Y-92648815D01*
X64254494Y-92569463D01*
X64144180Y-92510498D01*
X64024482Y-92474188D01*
X63900000Y-92461928D01*
X62100000Y-92461928D01*
X61975518Y-92474188D01*
X61855820Y-92510498D01*
X61745506Y-92569463D01*
X61648815Y-92648815D01*
X61569463Y-92745506D01*
X61510498Y-92855820D01*
X61474188Y-92975518D01*
X61461928Y-93100000D01*
X61461928Y-94900000D01*
X61474188Y-95024482D01*
X61510498Y-95144180D01*
X61569463Y-95254494D01*
X61648815Y-95351185D01*
X61745506Y-95430537D01*
X61855820Y-95489502D01*
X61975518Y-95525812D01*
X62100000Y-95538072D01*
X62345674Y-95538072D01*
X62365026Y-95574276D01*
X62430648Y-95654236D01*
X62460000Y-95690001D01*
X62488998Y-95713799D01*
X64066201Y-97291003D01*
X64089999Y-97320001D01*
X64118997Y-97343799D01*
X64205723Y-97414974D01*
X64337753Y-97485546D01*
X64481014Y-97529003D01*
X64592667Y-97540000D01*
X64592676Y-97540000D01*
X64629999Y-97543676D01*
X64667322Y-97540000D01*
X70779099Y-97540000D01*
X70801068Y-97581101D01*
X70980392Y-97799608D01*
X71198899Y-97978932D01*
X71448192Y-98112182D01*
X71718691Y-98194236D01*
X71929508Y-98215000D01*
X72070492Y-98215000D01*
X72281309Y-98194236D01*
X72551808Y-98112182D01*
X72801101Y-97978932D01*
X73019608Y-97799608D01*
X73198932Y-97581101D01*
X73332182Y-97331808D01*
X73414236Y-97061309D01*
X73441943Y-96780000D01*
X73414236Y-96498691D01*
X73332182Y-96228192D01*
X73198932Y-95978899D01*
X73019608Y-95760392D01*
X72801101Y-95581068D01*
X72668142Y-95510000D01*
X72801101Y-95438932D01*
X73019608Y-95259608D01*
X73198932Y-95041101D01*
X73332182Y-94791808D01*
X73414236Y-94521309D01*
X73441943Y-94240000D01*
X73414236Y-93958691D01*
X73332182Y-93688192D01*
X73198932Y-93438899D01*
X73019608Y-93220392D01*
X72801101Y-93041068D01*
X72668142Y-92970000D01*
X72801101Y-92898932D01*
X73019608Y-92719608D01*
X73198932Y-92501101D01*
X73332182Y-92251808D01*
X73414236Y-91981309D01*
X73441943Y-91700000D01*
X73414236Y-91418691D01*
X73332182Y-91148192D01*
X73198932Y-90898899D01*
X73019608Y-90680392D01*
X72801101Y-90501068D01*
X72668142Y-90430000D01*
X72801101Y-90358932D01*
X73019608Y-90179608D01*
X73198932Y-89961101D01*
X73332182Y-89711808D01*
X73414236Y-89441309D01*
X73441943Y-89160000D01*
X73414236Y-88878691D01*
X73332182Y-88608192D01*
X73198932Y-88358899D01*
X73019608Y-88140392D01*
X72801101Y-87961068D01*
X72668142Y-87890000D01*
X72801101Y-87818932D01*
X73019608Y-87639608D01*
X73198932Y-87421101D01*
X73332182Y-87171808D01*
X73414236Y-86901309D01*
X73441943Y-86620000D01*
X73414236Y-86338691D01*
X73400708Y-86294094D01*
X73439803Y-86254999D01*
X78231151Y-86254999D01*
X78205764Y-86338691D01*
X78178057Y-86620000D01*
X78205764Y-86901309D01*
X78287818Y-87171808D01*
X78421068Y-87421101D01*
X78600392Y-87639608D01*
X78818899Y-87818932D01*
X78951858Y-87890000D01*
X78818899Y-87961068D01*
X78600392Y-88140392D01*
X78421068Y-88358899D01*
X78287818Y-88608192D01*
X78205764Y-88878691D01*
X78178057Y-89160000D01*
X78205764Y-89441309D01*
X78287818Y-89711808D01*
X78421068Y-89961101D01*
X78600392Y-90179608D01*
X78818899Y-90358932D01*
X78951858Y-90430000D01*
X78818899Y-90501068D01*
X78600392Y-90680392D01*
X78421068Y-90898899D01*
X78287818Y-91148192D01*
X78205764Y-91418691D01*
X78178057Y-91700000D01*
X78205764Y-91981309D01*
X78287818Y-92251808D01*
X78421068Y-92501101D01*
X78600392Y-92719608D01*
X78818899Y-92898932D01*
X78951858Y-92970000D01*
X78818899Y-93041068D01*
X78600392Y-93220392D01*
X78421068Y-93438899D01*
X78287818Y-93688192D01*
X78205764Y-93958691D01*
X78178057Y-94240000D01*
X78205764Y-94521309D01*
X78287818Y-94791808D01*
X78421068Y-95041101D01*
X78600392Y-95259608D01*
X78818899Y-95438932D01*
X78951858Y-95510000D01*
X78818899Y-95581068D01*
X78600392Y-95760392D01*
X78421068Y-95978899D01*
X78287818Y-96228192D01*
X78205764Y-96498691D01*
X78178057Y-96780000D01*
X78205764Y-97061309D01*
X78219292Y-97105906D01*
X77085199Y-98240000D01*
X63887333Y-98240000D01*
X63850000Y-98236323D01*
X63812667Y-98240000D01*
X63701014Y-98250997D01*
X63557753Y-98294454D01*
X63425724Y-98365026D01*
X63309999Y-98459999D01*
X63286201Y-98488997D01*
X62488998Y-99286201D01*
X62460000Y-99309999D01*
X62436202Y-99338997D01*
X62436201Y-99338998D01*
X62365026Y-99425724D01*
X62345674Y-99461928D01*
X62100000Y-99461928D01*
X61975518Y-99474188D01*
X61855820Y-99510498D01*
X61745506Y-99569463D01*
X61648815Y-99648815D01*
X61569463Y-99745506D01*
X61510498Y-99855820D01*
X61474188Y-99975518D01*
X61461928Y-100100000D01*
X61461928Y-101900000D01*
X61474188Y-102024482D01*
X61510498Y-102144180D01*
X61569463Y-102254494D01*
X61648815Y-102351185D01*
X61745506Y-102430537D01*
X61855820Y-102489502D01*
X61975518Y-102525812D01*
X62100000Y-102538072D01*
X63900000Y-102538072D01*
X64024482Y-102525812D01*
X64144180Y-102489502D01*
X64254494Y-102430537D01*
X64351185Y-102351185D01*
X64430537Y-102254494D01*
X64489502Y-102144180D01*
X64495056Y-102125873D01*
X64561495Y-102192312D01*
X64812905Y-102360299D01*
X65092257Y-102476011D01*
X65388816Y-102535000D01*
X65691184Y-102535000D01*
X65987743Y-102476011D01*
X66267095Y-102360299D01*
X66518505Y-102192312D01*
X66732312Y-101978505D01*
X66900299Y-101727095D01*
X67016011Y-101447743D01*
X67075000Y-101151184D01*
X67075000Y-100848816D01*
X67016011Y-100552257D01*
X66900299Y-100272905D01*
X66732312Y-100021495D01*
X66518505Y-99807688D01*
X66447135Y-99760000D01*
X70892195Y-99760000D01*
X64142276Y-106509921D01*
X64024482Y-106474188D01*
X63900000Y-106461928D01*
X62100000Y-106461928D01*
X61975518Y-106474188D01*
X61855820Y-106510498D01*
X61745506Y-106569463D01*
X61648815Y-106648815D01*
X61569463Y-106745506D01*
X61510498Y-106855820D01*
X61474188Y-106975518D01*
X61461928Y-107100000D01*
X61461928Y-108900000D01*
X61474188Y-109024482D01*
X61510498Y-109144180D01*
X61569463Y-109254494D01*
X61648815Y-109351185D01*
X61745506Y-109430537D01*
X61855820Y-109489502D01*
X61975518Y-109525812D01*
X62100000Y-109538072D01*
X63900000Y-109538072D01*
X64024482Y-109525812D01*
X64144180Y-109489502D01*
X64254494Y-109430537D01*
X64351185Y-109351185D01*
X64430537Y-109254494D01*
X64489502Y-109144180D01*
X64495056Y-109125873D01*
X64561495Y-109192312D01*
X64812905Y-109360299D01*
X65092257Y-109476011D01*
X65388816Y-109535000D01*
X65691184Y-109535000D01*
X65987743Y-109476011D01*
X66267095Y-109360299D01*
X66518505Y-109192312D01*
X66732312Y-108978505D01*
X66900299Y-108727095D01*
X67016011Y-108447743D01*
X67075000Y-108151184D01*
X67075000Y-107848816D01*
X67016011Y-107552257D01*
X66900299Y-107272905D01*
X66732312Y-107021495D01*
X66518505Y-106807688D01*
X66267095Y-106639701D01*
X66192851Y-106608948D01*
X72041801Y-100760000D01*
X78801608Y-100760000D01*
X73321609Y-106240000D01*
X71037322Y-106240000D01*
X70999999Y-106236324D01*
X70962676Y-106240000D01*
X70962667Y-106240000D01*
X70851014Y-106250997D01*
X70707753Y-106294454D01*
X70575724Y-106365026D01*
X70575722Y-106365027D01*
X70575723Y-106365027D01*
X70488996Y-106436201D01*
X70488992Y-106436205D01*
X70459999Y-106459999D01*
X70436205Y-106488992D01*
X63463271Y-113461928D01*
X62100000Y-113461928D01*
X61975518Y-113474188D01*
X61855820Y-113510498D01*
X61745506Y-113569463D01*
X61648815Y-113648815D01*
X61569463Y-113745506D01*
X61510498Y-113855820D01*
X61474188Y-113975518D01*
X61461928Y-114100000D01*
X61461928Y-115900000D01*
X61474188Y-116024482D01*
X61510498Y-116144180D01*
X61569463Y-116254494D01*
X61648815Y-116351185D01*
X61745506Y-116430537D01*
X61855820Y-116489502D01*
X61975518Y-116525812D01*
X62100000Y-116538072D01*
X63900000Y-116538072D01*
X64024482Y-116525812D01*
X64144180Y-116489502D01*
X64254494Y-116430537D01*
X64351185Y-116351185D01*
X64430537Y-116254494D01*
X64489502Y-116144180D01*
X64495056Y-116125873D01*
X64561495Y-116192312D01*
X64812905Y-116360299D01*
X65092257Y-116476011D01*
X65388816Y-116535000D01*
X65691184Y-116535000D01*
X65987743Y-116476011D01*
X66267095Y-116360299D01*
X66518505Y-116192312D01*
X66732312Y-115978505D01*
X66900299Y-115727095D01*
X67016011Y-115447743D01*
X67075000Y-115151184D01*
X67075000Y-114848816D01*
X67016011Y-114552257D01*
X66900299Y-114272905D01*
X66732312Y-114021495D01*
X66518505Y-113807688D01*
X66267095Y-113639701D01*
X65987743Y-113523989D01*
X65691184Y-113465000D01*
X65609802Y-113465000D01*
X71314803Y-107760000D01*
X73599088Y-107760000D01*
X73636410Y-107763676D01*
X73673732Y-107760000D01*
X73673743Y-107760000D01*
X73785396Y-107749003D01*
X73928657Y-107705546D01*
X74060686Y-107634974D01*
X74176411Y-107540001D01*
X74200214Y-107510997D01*
X75313150Y-106398061D01*
X75965000Y-106398061D01*
X75965000Y-106601939D01*
X76004774Y-106801898D01*
X76082795Y-106990256D01*
X76196063Y-107159774D01*
X76340226Y-107303937D01*
X76509744Y-107417205D01*
X76698102Y-107495226D01*
X76898061Y-107535000D01*
X77101939Y-107535000D01*
X77301898Y-107495226D01*
X77490256Y-107417205D01*
X77659774Y-107303937D01*
X77703711Y-107260000D01*
X81256289Y-107260000D01*
X81340226Y-107343937D01*
X81509744Y-107457205D01*
X81698102Y-107535226D01*
X81898061Y-107575000D01*
X82101939Y-107575000D01*
X82301898Y-107535226D01*
X82490256Y-107457205D01*
X82659774Y-107343937D01*
X82803937Y-107199774D01*
X82917205Y-107030256D01*
X82995226Y-106841898D01*
X83035000Y-106641939D01*
X83035000Y-106438061D01*
X82995226Y-106238102D01*
X82917205Y-106049744D01*
X82803937Y-105880226D01*
X82659774Y-105736063D01*
X82490256Y-105622795D01*
X82301898Y-105544774D01*
X82101939Y-105505000D01*
X81898061Y-105505000D01*
X81698102Y-105544774D01*
X81509744Y-105622795D01*
X81340226Y-105736063D01*
X81336289Y-105740000D01*
X77703711Y-105740000D01*
X77659774Y-105696063D01*
X77490256Y-105582795D01*
X77301898Y-105504774D01*
X77101939Y-105465000D01*
X76898061Y-105465000D01*
X76698102Y-105504774D01*
X76509744Y-105582795D01*
X76340226Y-105696063D01*
X76196063Y-105840226D01*
X76082795Y-106009744D01*
X76004774Y-106198102D01*
X75965000Y-106398061D01*
X75313150Y-106398061D01*
X76511211Y-105200000D01*
X86061928Y-105200000D01*
X86061928Y-106800000D01*
X86074188Y-106924482D01*
X86110498Y-107044180D01*
X86169463Y-107154494D01*
X86248815Y-107251185D01*
X86345506Y-107330537D01*
X86455820Y-107389502D01*
X86575518Y-107425812D01*
X86700000Y-107438072D01*
X88300000Y-107438072D01*
X88424482Y-107425812D01*
X88544180Y-107389502D01*
X88654494Y-107330537D01*
X88751185Y-107251185D01*
X88830537Y-107154494D01*
X88889502Y-107044180D01*
X88905117Y-106992702D01*
X89186903Y-106992702D01*
X89258486Y-107236671D01*
X89513996Y-107357571D01*
X89788184Y-107426300D01*
X90070512Y-107440217D01*
X90350130Y-107398787D01*
X90616292Y-107303603D01*
X90741514Y-107236671D01*
X90813097Y-106992702D01*
X90000000Y-106179605D01*
X89186903Y-106992702D01*
X88905117Y-106992702D01*
X88925812Y-106924482D01*
X88938072Y-106800000D01*
X88938072Y-106792785D01*
X89007298Y-106813097D01*
X89820395Y-106000000D01*
X90179605Y-106000000D01*
X90992702Y-106813097D01*
X91236671Y-106741514D01*
X91357571Y-106486004D01*
X91426300Y-106211816D01*
X91440217Y-105929488D01*
X91398787Y-105649870D01*
X91303603Y-105383708D01*
X91236671Y-105258486D01*
X90992702Y-105186903D01*
X90179605Y-106000000D01*
X89820395Y-106000000D01*
X89007298Y-105186903D01*
X88938072Y-105207215D01*
X88938072Y-105200000D01*
X88925812Y-105075518D01*
X88905118Y-105007298D01*
X89186903Y-105007298D01*
X90000000Y-105820395D01*
X90813097Y-105007298D01*
X90741514Y-104763329D01*
X90486004Y-104642429D01*
X90211816Y-104573700D01*
X89929488Y-104559783D01*
X89649870Y-104601213D01*
X89383708Y-104696397D01*
X89258486Y-104763329D01*
X89186903Y-105007298D01*
X88905118Y-105007298D01*
X88889502Y-104955820D01*
X88830537Y-104845506D01*
X88751185Y-104748815D01*
X88654494Y-104669463D01*
X88544180Y-104610498D01*
X88424482Y-104574188D01*
X88300000Y-104561928D01*
X86700000Y-104561928D01*
X86575518Y-104574188D01*
X86455820Y-104610498D01*
X86345506Y-104669463D01*
X86248815Y-104748815D01*
X86169463Y-104845506D01*
X86110498Y-104955820D01*
X86074188Y-105075518D01*
X86061928Y-105200000D01*
X76511211Y-105200000D01*
X83511003Y-98200209D01*
X83540001Y-98176411D01*
X83566332Y-98144327D01*
X83634974Y-98060687D01*
X83658384Y-98016890D01*
X87518524Y-98016890D01*
X87563175Y-98164099D01*
X87688359Y-98426920D01*
X87862412Y-98660269D01*
X88078645Y-98855178D01*
X88328748Y-99004157D01*
X88603109Y-99101481D01*
X88833000Y-98980814D01*
X88833000Y-97787000D01*
X87639845Y-97787000D01*
X87518524Y-98016890D01*
X83658384Y-98016890D01*
X83705546Y-97928657D01*
X83749003Y-97785396D01*
X83760000Y-97673743D01*
X83760000Y-97673733D01*
X83763676Y-97636410D01*
X83760000Y-97599087D01*
X83760000Y-93037322D01*
X83763676Y-92999999D01*
X83760000Y-92962676D01*
X83760000Y-92962667D01*
X83749003Y-92851014D01*
X83705546Y-92707753D01*
X83634974Y-92575724D01*
X83540001Y-92459999D01*
X83510998Y-92436197D01*
X83083841Y-92009040D01*
X83608091Y-92009040D01*
X83702930Y-92273881D01*
X83847615Y-92515131D01*
X84036586Y-92723519D01*
X84262580Y-92891037D01*
X84516913Y-93011246D01*
X84650961Y-93051904D01*
X84873000Y-92929915D01*
X84873000Y-91787000D01*
X85127000Y-91787000D01*
X85127000Y-92929915D01*
X85349039Y-93051904D01*
X85483087Y-93011246D01*
X85737420Y-92891037D01*
X85963414Y-92723519D01*
X86152385Y-92515131D01*
X86297070Y-92273881D01*
X86391909Y-92009040D01*
X86270624Y-91787000D01*
X85127000Y-91787000D01*
X84873000Y-91787000D01*
X83729376Y-91787000D01*
X83608091Y-92009040D01*
X83083841Y-92009040D01*
X83063803Y-91989002D01*
X83040000Y-91959998D01*
X82924275Y-91865025D01*
X82792246Y-91794453D01*
X82648985Y-91750996D01*
X82537332Y-91739999D01*
X82537321Y-91739999D01*
X82499999Y-91736323D01*
X82462677Y-91739999D01*
X81058003Y-91739999D01*
X81061943Y-91700000D01*
X81034236Y-91418691D01*
X81001557Y-91310960D01*
X83608091Y-91310960D01*
X83729376Y-91533000D01*
X84873000Y-91533000D01*
X84873000Y-90390085D01*
X85127000Y-90390085D01*
X85127000Y-91533000D01*
X86270624Y-91533000D01*
X86391909Y-91310960D01*
X86297070Y-91046119D01*
X86152385Y-90804869D01*
X85963414Y-90596481D01*
X85737420Y-90428963D01*
X85483087Y-90308754D01*
X85349039Y-90268096D01*
X85127000Y-90390085D01*
X84873000Y-90390085D01*
X84650961Y-90268096D01*
X84516913Y-90308754D01*
X84262580Y-90428963D01*
X84036586Y-90596481D01*
X83847615Y-90804869D01*
X83702930Y-91046119D01*
X83608091Y-91310960D01*
X81001557Y-91310960D01*
X80952182Y-91148192D01*
X80818932Y-90898899D01*
X80639608Y-90680392D01*
X80421101Y-90501068D01*
X80288142Y-90430000D01*
X80421101Y-90358932D01*
X80639608Y-90179608D01*
X80818932Y-89961101D01*
X80952182Y-89711808D01*
X81034236Y-89441309D01*
X81061943Y-89160000D01*
X81034236Y-88878691D01*
X80952182Y-88608192D01*
X80818932Y-88358899D01*
X80639608Y-88140392D01*
X80421101Y-87961068D01*
X80288142Y-87890000D01*
X80421101Y-87818932D01*
X80639608Y-87639608D01*
X80818932Y-87421101D01*
X80840901Y-87380000D01*
X83305199Y-87380000D01*
X87704277Y-91779080D01*
X87581401Y-92008966D01*
X87496487Y-92288889D01*
X87467815Y-92580000D01*
X87496487Y-92871111D01*
X87581401Y-93151034D01*
X87719294Y-93409014D01*
X87904866Y-93635134D01*
X88130986Y-93820706D01*
X88185791Y-93850000D01*
X88130986Y-93879294D01*
X87904866Y-94064866D01*
X87719294Y-94290986D01*
X87581401Y-94548966D01*
X87496487Y-94828889D01*
X87467815Y-95120000D01*
X87496487Y-95411111D01*
X87581401Y-95691034D01*
X87719294Y-95949014D01*
X87904866Y-96175134D01*
X88130986Y-96360706D01*
X88195523Y-96395201D01*
X88078645Y-96464822D01*
X87862412Y-96659731D01*
X87688359Y-96893080D01*
X87563175Y-97155901D01*
X87518524Y-97303110D01*
X87639845Y-97533000D01*
X88833000Y-97533000D01*
X88833000Y-97513000D01*
X89087000Y-97513000D01*
X89087000Y-97533000D01*
X89107000Y-97533000D01*
X89107000Y-97787000D01*
X89087000Y-97787000D01*
X89087000Y-98980814D01*
X89316891Y-99101481D01*
X89591252Y-99004157D01*
X89841355Y-98855178D01*
X90057588Y-98660269D01*
X90228416Y-98431244D01*
X90259294Y-98489014D01*
X90444866Y-98715134D01*
X90670986Y-98900706D01*
X90928966Y-99038599D01*
X91208889Y-99123513D01*
X91427050Y-99145000D01*
X91572950Y-99145000D01*
X91791111Y-99123513D01*
X92071034Y-99038599D01*
X92329014Y-98900706D01*
X92555134Y-98715134D01*
X92740706Y-98489014D01*
X92878599Y-98231034D01*
X92963513Y-97951111D01*
X92992185Y-97660000D01*
X92963513Y-97368889D01*
X92878599Y-97088966D01*
X92740706Y-96830986D01*
X92555134Y-96604866D01*
X92329014Y-96419294D01*
X92274209Y-96390000D01*
X92329014Y-96360706D01*
X92555134Y-96175134D01*
X92740706Y-95949014D01*
X92878599Y-95691034D01*
X92963513Y-95411111D01*
X92992185Y-95120000D01*
X92963513Y-94828889D01*
X92878599Y-94548966D01*
X92740706Y-94290986D01*
X92555134Y-94064866D01*
X92329014Y-93879294D01*
X92274209Y-93850000D01*
X92329014Y-93820706D01*
X92555134Y-93635134D01*
X92740706Y-93409014D01*
X92878599Y-93151034D01*
X92963513Y-92871111D01*
X92992185Y-92580000D01*
X92963513Y-92288889D01*
X92878599Y-92008966D01*
X92740706Y-91750986D01*
X92555134Y-91524866D01*
X92329014Y-91339294D01*
X92274209Y-91310000D01*
X92329014Y-91280706D01*
X92555134Y-91095134D01*
X92740706Y-90869014D01*
X92828482Y-90704797D01*
X92884276Y-90674974D01*
X93000001Y-90580001D01*
X93023804Y-90550997D01*
X94315000Y-89259802D01*
X94315001Y-169315000D01*
X60685000Y-169315000D01*
X60685000Y-165779872D01*
X61765000Y-165779872D01*
X61765000Y-166220128D01*
X61850890Y-166651925D01*
X62019369Y-167058669D01*
X62263962Y-167424729D01*
X62575271Y-167736038D01*
X62941331Y-167980631D01*
X63348075Y-168149110D01*
X63779872Y-168235000D01*
X64220128Y-168235000D01*
X64651925Y-168149110D01*
X65058669Y-167980631D01*
X65424729Y-167736038D01*
X65736038Y-167424729D01*
X65980631Y-167058669D01*
X66149110Y-166651925D01*
X66211361Y-166338967D01*
X73565000Y-166338967D01*
X73565000Y-166661033D01*
X73627832Y-166976912D01*
X73751082Y-167274463D01*
X73930013Y-167542252D01*
X74157748Y-167769987D01*
X74425537Y-167948918D01*
X74723088Y-168072168D01*
X75038967Y-168135000D01*
X75361033Y-168135000D01*
X75676912Y-168072168D01*
X75974463Y-167948918D01*
X76242252Y-167769987D01*
X76376826Y-167635413D01*
X76744192Y-167635413D01*
X76839956Y-167899814D01*
X77129571Y-168040704D01*
X77441108Y-168122384D01*
X77762595Y-168141718D01*
X78081675Y-168097961D01*
X78386088Y-167992795D01*
X78560044Y-167899814D01*
X78655808Y-167635413D01*
X77700000Y-166679605D01*
X76744192Y-167635413D01*
X76376826Y-167635413D01*
X76469987Y-167542252D01*
X76534925Y-167445065D01*
X76564587Y-167455808D01*
X77520395Y-166500000D01*
X77879605Y-166500000D01*
X78835413Y-167455808D01*
X78865075Y-167445065D01*
X78930013Y-167542252D01*
X79157748Y-167769987D01*
X79425537Y-167948918D01*
X79723088Y-168072168D01*
X80038967Y-168135000D01*
X80361033Y-168135000D01*
X80676912Y-168072168D01*
X80974463Y-167948918D01*
X81242252Y-167769987D01*
X81469987Y-167542252D01*
X81648918Y-167274463D01*
X81772168Y-166976912D01*
X81835000Y-166661033D01*
X81835000Y-166338967D01*
X81772168Y-166023088D01*
X81671425Y-165779872D01*
X88765000Y-165779872D01*
X88765000Y-166220128D01*
X88850890Y-166651925D01*
X89019369Y-167058669D01*
X89263962Y-167424729D01*
X89575271Y-167736038D01*
X89941331Y-167980631D01*
X90348075Y-168149110D01*
X90779872Y-168235000D01*
X91220128Y-168235000D01*
X91651925Y-168149110D01*
X92058669Y-167980631D01*
X92424729Y-167736038D01*
X92736038Y-167424729D01*
X92980631Y-167058669D01*
X93149110Y-166651925D01*
X93235000Y-166220128D01*
X93235000Y-165779872D01*
X93149110Y-165348075D01*
X92980631Y-164941331D01*
X92736038Y-164575271D01*
X92424729Y-164263962D01*
X92058669Y-164019369D01*
X91651925Y-163850890D01*
X91220128Y-163765000D01*
X90779872Y-163765000D01*
X90348075Y-163850890D01*
X89941331Y-164019369D01*
X89575271Y-164263962D01*
X89263962Y-164575271D01*
X89019369Y-164941331D01*
X88850890Y-165348075D01*
X88765000Y-165779872D01*
X81671425Y-165779872D01*
X81648918Y-165725537D01*
X81469987Y-165457748D01*
X81242252Y-165230013D01*
X80974463Y-165051082D01*
X80676912Y-164927832D01*
X80361033Y-164865000D01*
X80038967Y-164865000D01*
X79723088Y-164927832D01*
X79425537Y-165051082D01*
X79157748Y-165230013D01*
X78930013Y-165457748D01*
X78865075Y-165554935D01*
X78835413Y-165544192D01*
X77879605Y-166500000D01*
X77520395Y-166500000D01*
X76564587Y-165544192D01*
X76534925Y-165554935D01*
X76469987Y-165457748D01*
X76376826Y-165364587D01*
X76744192Y-165364587D01*
X77700000Y-166320395D01*
X78655808Y-165364587D01*
X78560044Y-165100186D01*
X78270429Y-164959296D01*
X77958892Y-164877616D01*
X77637405Y-164858282D01*
X77318325Y-164902039D01*
X77013912Y-165007205D01*
X76839956Y-165100186D01*
X76744192Y-165364587D01*
X76376826Y-165364587D01*
X76242252Y-165230013D01*
X75974463Y-165051082D01*
X75676912Y-164927832D01*
X75361033Y-164865000D01*
X75038967Y-164865000D01*
X74723088Y-164927832D01*
X74425537Y-165051082D01*
X74157748Y-165230013D01*
X73930013Y-165457748D01*
X73751082Y-165725537D01*
X73627832Y-166023088D01*
X73565000Y-166338967D01*
X66211361Y-166338967D01*
X66235000Y-166220128D01*
X66235000Y-165779872D01*
X66149110Y-165348075D01*
X65980631Y-164941331D01*
X65736038Y-164575271D01*
X65424729Y-164263962D01*
X65058669Y-164019369D01*
X64651925Y-163850890D01*
X64220128Y-163765000D01*
X63779872Y-163765000D01*
X63348075Y-163850890D01*
X62941331Y-164019369D01*
X62575271Y-164263962D01*
X62263962Y-164575271D01*
X62019369Y-164941331D01*
X61850890Y-165348075D01*
X61765000Y-165779872D01*
X60685000Y-165779872D01*
X60685000Y-157858665D01*
X62565000Y-157858665D01*
X62565000Y-158141335D01*
X62620147Y-158418574D01*
X62728320Y-158679727D01*
X62885363Y-158914759D01*
X63085241Y-159114637D01*
X63320273Y-159271680D01*
X63581426Y-159379853D01*
X63858665Y-159435000D01*
X64141335Y-159435000D01*
X64418574Y-159379853D01*
X64679727Y-159271680D01*
X64914759Y-159114637D01*
X65036694Y-158992702D01*
X65686903Y-158992702D01*
X65758486Y-159236671D01*
X66013996Y-159357571D01*
X66288184Y-159426300D01*
X66570512Y-159440217D01*
X66850130Y-159398787D01*
X67116292Y-159303603D01*
X67241514Y-159236671D01*
X67313097Y-158992702D01*
X66500000Y-158179605D01*
X65686903Y-158992702D01*
X65036694Y-158992702D01*
X65114637Y-158914759D01*
X65248692Y-158714131D01*
X65263329Y-158741514D01*
X65507298Y-158813097D01*
X66320395Y-158000000D01*
X66679605Y-158000000D01*
X67492702Y-158813097D01*
X67736671Y-158741514D01*
X67857571Y-158486004D01*
X67926300Y-158211816D01*
X67940217Y-157929488D01*
X67898787Y-157649870D01*
X67803603Y-157383708D01*
X67736671Y-157258486D01*
X67537340Y-157200000D01*
X69961928Y-157200000D01*
X69961928Y-160800000D01*
X69974188Y-160924482D01*
X70010498Y-161044180D01*
X70069463Y-161154494D01*
X70148815Y-161251185D01*
X70245506Y-161330537D01*
X70355820Y-161389502D01*
X70475518Y-161425812D01*
X70600000Y-161438072D01*
X73400000Y-161438072D01*
X73524482Y-161425812D01*
X73644180Y-161389502D01*
X73754494Y-161330537D01*
X73851185Y-161251185D01*
X73930537Y-161154494D01*
X73989502Y-161044180D01*
X74025812Y-160924482D01*
X74038072Y-160800000D01*
X74038072Y-157200000D01*
X81361928Y-157200000D01*
X81361928Y-160800000D01*
X81374188Y-160924482D01*
X81410498Y-161044180D01*
X81469463Y-161154494D01*
X81548815Y-161251185D01*
X81645506Y-161330537D01*
X81755820Y-161389502D01*
X81875518Y-161425812D01*
X82000000Y-161438072D01*
X84800000Y-161438072D01*
X84924482Y-161425812D01*
X85044180Y-161389502D01*
X85154494Y-161330537D01*
X85251185Y-161251185D01*
X85330537Y-161154494D01*
X85389502Y-161044180D01*
X85425812Y-160924482D01*
X85438072Y-160800000D01*
X85438072Y-157200000D01*
X85425812Y-157075518D01*
X85389502Y-156955820D01*
X85337571Y-156858665D01*
X87565000Y-156858665D01*
X87565000Y-157141335D01*
X87620147Y-157418574D01*
X87728320Y-157679727D01*
X87885363Y-157914759D01*
X88085241Y-158114637D01*
X88320273Y-158271680D01*
X88581426Y-158379853D01*
X88706070Y-158404647D01*
X88707753Y-158405546D01*
X88851014Y-158449003D01*
X89000000Y-158463677D01*
X89148985Y-158449003D01*
X89292246Y-158405546D01*
X89293928Y-158404647D01*
X89418574Y-158379853D01*
X89679727Y-158271680D01*
X89914759Y-158114637D01*
X90036694Y-157992702D01*
X90686903Y-157992702D01*
X90758486Y-158236671D01*
X91013996Y-158357571D01*
X91288184Y-158426300D01*
X91570512Y-158440217D01*
X91850130Y-158398787D01*
X92116292Y-158303603D01*
X92241514Y-158236671D01*
X92313097Y-157992702D01*
X91500000Y-157179605D01*
X90686903Y-157992702D01*
X90036694Y-157992702D01*
X90114637Y-157914759D01*
X90248692Y-157714131D01*
X90263329Y-157741514D01*
X90507298Y-157813097D01*
X91320395Y-157000000D01*
X91679605Y-157000000D01*
X92492702Y-157813097D01*
X92736671Y-157741514D01*
X92857571Y-157486004D01*
X92926300Y-157211816D01*
X92940217Y-156929488D01*
X92898787Y-156649870D01*
X92803603Y-156383708D01*
X92736671Y-156258486D01*
X92492702Y-156186903D01*
X91679605Y-157000000D01*
X91320395Y-157000000D01*
X90507298Y-156186903D01*
X90263329Y-156258486D01*
X90249676Y-156287341D01*
X90114637Y-156085241D01*
X90036694Y-156007298D01*
X90686903Y-156007298D01*
X91500000Y-156820395D01*
X92313097Y-156007298D01*
X92241514Y-155763329D01*
X91986004Y-155642429D01*
X91711816Y-155573700D01*
X91429488Y-155559783D01*
X91149870Y-155601213D01*
X90883708Y-155696397D01*
X90758486Y-155763329D01*
X90686903Y-156007298D01*
X90036694Y-156007298D01*
X89914759Y-155885363D01*
X89679727Y-155728320D01*
X89418574Y-155620147D01*
X89141335Y-155565000D01*
X88858665Y-155565000D01*
X88581426Y-155620147D01*
X88320273Y-155728320D01*
X88085241Y-155885363D01*
X87885363Y-156085241D01*
X87728320Y-156320273D01*
X87620147Y-156581426D01*
X87565000Y-156858665D01*
X85337571Y-156858665D01*
X85330537Y-156845506D01*
X85251185Y-156748815D01*
X85154494Y-156669463D01*
X85044180Y-156610498D01*
X84924482Y-156574188D01*
X84800000Y-156561928D01*
X82000000Y-156561928D01*
X81875518Y-156574188D01*
X81755820Y-156610498D01*
X81645506Y-156669463D01*
X81548815Y-156748815D01*
X81469463Y-156845506D01*
X81410498Y-156955820D01*
X81374188Y-157075518D01*
X81361928Y-157200000D01*
X74038072Y-157200000D01*
X74025812Y-157075518D01*
X73989502Y-156955820D01*
X73930537Y-156845506D01*
X73851185Y-156748815D01*
X73754494Y-156669463D01*
X73644180Y-156610498D01*
X73524482Y-156574188D01*
X73400000Y-156561928D01*
X70600000Y-156561928D01*
X70475518Y-156574188D01*
X70355820Y-156610498D01*
X70245506Y-156669463D01*
X70148815Y-156748815D01*
X70069463Y-156845506D01*
X70010498Y-156955820D01*
X69974188Y-157075518D01*
X69961928Y-157200000D01*
X67537340Y-157200000D01*
X67492702Y-157186903D01*
X66679605Y-158000000D01*
X66320395Y-158000000D01*
X65507298Y-157186903D01*
X65263329Y-157258486D01*
X65249676Y-157287341D01*
X65114637Y-157085241D01*
X65036694Y-157007298D01*
X65686903Y-157007298D01*
X66500000Y-157820395D01*
X67313097Y-157007298D01*
X67241514Y-156763329D01*
X66986004Y-156642429D01*
X66711816Y-156573700D01*
X66429488Y-156559783D01*
X66149870Y-156601213D01*
X65883708Y-156696397D01*
X65758486Y-156763329D01*
X65686903Y-157007298D01*
X65036694Y-157007298D01*
X64914759Y-156885363D01*
X64679727Y-156728320D01*
X64418574Y-156620147D01*
X64141335Y-156565000D01*
X63858665Y-156565000D01*
X63581426Y-156620147D01*
X63320273Y-156728320D01*
X63085241Y-156885363D01*
X62885363Y-157085241D01*
X62728320Y-157320273D01*
X62620147Y-157581426D01*
X62565000Y-157858665D01*
X60685000Y-157858665D01*
X60685000Y-128100000D01*
X61461928Y-128100000D01*
X61461928Y-129900000D01*
X61474188Y-130024482D01*
X61510498Y-130144180D01*
X61569463Y-130254494D01*
X61648815Y-130351185D01*
X61745506Y-130430537D01*
X61855820Y-130489502D01*
X61975518Y-130525812D01*
X62100000Y-130538072D01*
X63900000Y-130538072D01*
X64024482Y-130525812D01*
X64144180Y-130489502D01*
X64254494Y-130430537D01*
X64351185Y-130351185D01*
X64430537Y-130254494D01*
X64489502Y-130144180D01*
X64495056Y-130125873D01*
X64561495Y-130192312D01*
X64812905Y-130360299D01*
X65092257Y-130476011D01*
X65388816Y-130535000D01*
X65691184Y-130535000D01*
X65987743Y-130476011D01*
X66267095Y-130360299D01*
X66518505Y-130192312D01*
X66732312Y-129978505D01*
X66900299Y-129727095D01*
X67016011Y-129447743D01*
X67075000Y-129151184D01*
X67075000Y-128848816D01*
X67016011Y-128552257D01*
X66900299Y-128272905D01*
X66732312Y-128021495D01*
X66518505Y-127807688D01*
X66267095Y-127639701D01*
X65987743Y-127523989D01*
X65691184Y-127465000D01*
X65388816Y-127465000D01*
X65092257Y-127523989D01*
X64812905Y-127639701D01*
X64561495Y-127807688D01*
X64495056Y-127874127D01*
X64489502Y-127855820D01*
X64430537Y-127745506D01*
X64351185Y-127648815D01*
X64309882Y-127614919D01*
X67004802Y-124920000D01*
X70779099Y-124920000D01*
X70801068Y-124961101D01*
X70980392Y-125179608D01*
X71198899Y-125358932D01*
X71331858Y-125430000D01*
X71198899Y-125501068D01*
X70980392Y-125680392D01*
X70801068Y-125898899D01*
X70701758Y-126084694D01*
X70609999Y-126159999D01*
X70586201Y-126188997D01*
X62488998Y-134286201D01*
X62460000Y-134309999D01*
X62436202Y-134338997D01*
X62436201Y-134338998D01*
X62365026Y-134425724D01*
X62345674Y-134461928D01*
X62100000Y-134461928D01*
X61975518Y-134474188D01*
X61855820Y-134510498D01*
X61745506Y-134569463D01*
X61648815Y-134648815D01*
X61569463Y-134745506D01*
X61510498Y-134855820D01*
X61474188Y-134975518D01*
X61461928Y-135100000D01*
X61461928Y-136900000D01*
X61474188Y-137024482D01*
X61510498Y-137144180D01*
X61569463Y-137254494D01*
X61648815Y-137351185D01*
X61745506Y-137430537D01*
X61855820Y-137489502D01*
X61975518Y-137525812D01*
X62100000Y-137538072D01*
X63900000Y-137538072D01*
X64024482Y-137525812D01*
X64144180Y-137489502D01*
X64254494Y-137430537D01*
X64351185Y-137351185D01*
X64430537Y-137254494D01*
X64489502Y-137144180D01*
X64495056Y-137125873D01*
X64561495Y-137192312D01*
X64812905Y-137360299D01*
X65092257Y-137476011D01*
X65388816Y-137535000D01*
X65691184Y-137535000D01*
X65987743Y-137476011D01*
X66267095Y-137360299D01*
X66518505Y-137192312D01*
X66732312Y-136978505D01*
X66900299Y-136727095D01*
X67016011Y-136447743D01*
X67075000Y-136151184D01*
X67075000Y-135848816D01*
X67016011Y-135552257D01*
X66900299Y-135272905D01*
X66732312Y-135021495D01*
X66518505Y-134807688D01*
X66267095Y-134639701D01*
X65987743Y-134523989D01*
X65691184Y-134465000D01*
X65388816Y-134465000D01*
X65092257Y-134523989D01*
X64812905Y-134639701D01*
X64561495Y-134807688D01*
X64495056Y-134874127D01*
X64489502Y-134855820D01*
X64430537Y-134745506D01*
X64351185Y-134648815D01*
X64309882Y-134614919D01*
X71103864Y-127820938D01*
X71198899Y-127898932D01*
X71331858Y-127970000D01*
X71198899Y-128041068D01*
X70980392Y-128220392D01*
X70801068Y-128438899D01*
X70667818Y-128688192D01*
X70585764Y-128958691D01*
X70558057Y-129240000D01*
X70585764Y-129521309D01*
X70599292Y-129565905D01*
X67988998Y-132176201D01*
X67960000Y-132199999D01*
X67936202Y-132228997D01*
X67936201Y-132228998D01*
X67865026Y-132315724D01*
X67794454Y-132447754D01*
X67750998Y-132591015D01*
X67736324Y-132740000D01*
X67740001Y-132777332D01*
X67740000Y-136035198D01*
X62488998Y-141286201D01*
X62460000Y-141309999D01*
X62436202Y-141338997D01*
X62436201Y-141338998D01*
X62365026Y-141425724D01*
X62345674Y-141461928D01*
X62100000Y-141461928D01*
X61975518Y-141474188D01*
X61855820Y-141510498D01*
X61745506Y-141569463D01*
X61648815Y-141648815D01*
X61569463Y-141745506D01*
X61510498Y-141855820D01*
X61474188Y-141975518D01*
X61461928Y-142100000D01*
X61461928Y-143900000D01*
X61474188Y-144024482D01*
X61510498Y-144144180D01*
X61569463Y-144254494D01*
X61648815Y-144351185D01*
X61745506Y-144430537D01*
X61855820Y-144489502D01*
X61975518Y-144525812D01*
X62100000Y-144538072D01*
X63900000Y-144538072D01*
X64024482Y-144525812D01*
X64144180Y-144489502D01*
X64254494Y-144430537D01*
X64351185Y-144351185D01*
X64430537Y-144254494D01*
X64489502Y-144144180D01*
X64495056Y-144125873D01*
X64561495Y-144192312D01*
X64812905Y-144360299D01*
X64887149Y-144391052D01*
X62488998Y-146789203D01*
X62460000Y-146813001D01*
X62436202Y-146841999D01*
X62436201Y-146842000D01*
X62365026Y-146928726D01*
X62294454Y-147060756D01*
X62250998Y-147204017D01*
X62236324Y-147353002D01*
X62240001Y-147390334D01*
X62240001Y-148461928D01*
X62100000Y-148461928D01*
X61975518Y-148474188D01*
X61855820Y-148510498D01*
X61745506Y-148569463D01*
X61648815Y-148648815D01*
X61569463Y-148745506D01*
X61510498Y-148855820D01*
X61474188Y-148975518D01*
X61461928Y-149100000D01*
X61461928Y-150900000D01*
X61474188Y-151024482D01*
X61510498Y-151144180D01*
X61569463Y-151254494D01*
X61648815Y-151351185D01*
X61745506Y-151430537D01*
X61855820Y-151489502D01*
X61975518Y-151525812D01*
X62100000Y-151538072D01*
X63900000Y-151538072D01*
X64024482Y-151525812D01*
X64144180Y-151489502D01*
X64254494Y-151430537D01*
X64351185Y-151351185D01*
X64430537Y-151254494D01*
X64489502Y-151144180D01*
X64495056Y-151125873D01*
X64561495Y-151192312D01*
X64812905Y-151360299D01*
X65092257Y-151476011D01*
X65388816Y-151535000D01*
X65691184Y-151535000D01*
X65948930Y-151483731D01*
X66976201Y-152511003D01*
X66999999Y-152540001D01*
X67028997Y-152563799D01*
X67115723Y-152634974D01*
X67247753Y-152705546D01*
X67391014Y-152749003D01*
X67502667Y-152760000D01*
X67502676Y-152760000D01*
X67539999Y-152763676D01*
X67577322Y-152760000D01*
X73745091Y-152760000D01*
X73751082Y-152774463D01*
X73930013Y-153042252D01*
X74157748Y-153269987D01*
X74425537Y-153448918D01*
X74723088Y-153572168D01*
X75038967Y-153635000D01*
X75361033Y-153635000D01*
X75676912Y-153572168D01*
X75974463Y-153448918D01*
X76242252Y-153269987D01*
X76469987Y-153042252D01*
X76648918Y-152774463D01*
X76772168Y-152476912D01*
X76835000Y-152161033D01*
X76835000Y-151838967D01*
X78565000Y-151838967D01*
X78565000Y-152161033D01*
X78627832Y-152476912D01*
X78751082Y-152774463D01*
X78930013Y-153042252D01*
X79157748Y-153269987D01*
X79425537Y-153448918D01*
X79723088Y-153572168D01*
X80038967Y-153635000D01*
X80361033Y-153635000D01*
X80676912Y-153572168D01*
X80974463Y-153448918D01*
X81242252Y-153269987D01*
X81469987Y-153042252D01*
X81648918Y-152774463D01*
X81772168Y-152476912D01*
X81835000Y-152161033D01*
X81835000Y-151838967D01*
X81772168Y-151523088D01*
X81648918Y-151225537D01*
X81469987Y-150957748D01*
X81242252Y-150730013D01*
X80974463Y-150551082D01*
X80676912Y-150427832D01*
X80361033Y-150365000D01*
X80038967Y-150365000D01*
X79723088Y-150427832D01*
X79425537Y-150551082D01*
X79157748Y-150730013D01*
X78930013Y-150957748D01*
X78751082Y-151225537D01*
X78627832Y-151523088D01*
X78565000Y-151838967D01*
X76835000Y-151838967D01*
X76772168Y-151523088D01*
X76648918Y-151225537D01*
X76469987Y-150957748D01*
X76242252Y-150730013D01*
X75974463Y-150551082D01*
X75676912Y-150427832D01*
X75361033Y-150365000D01*
X75038967Y-150365000D01*
X74723088Y-150427832D01*
X74425537Y-150551082D01*
X74157748Y-150730013D01*
X73930013Y-150957748D01*
X73751082Y-151225537D01*
X73745091Y-151240000D01*
X67854802Y-151240000D01*
X67023731Y-150408930D01*
X67075000Y-150151184D01*
X67075000Y-149848816D01*
X67016011Y-149552257D01*
X66900299Y-149272905D01*
X66732312Y-149021495D01*
X66518505Y-148807688D01*
X66267095Y-148639701D01*
X65987743Y-148523989D01*
X65691184Y-148465000D01*
X65388816Y-148465000D01*
X65092257Y-148523989D01*
X64812905Y-148639701D01*
X64561495Y-148807688D01*
X64495056Y-148874127D01*
X64489502Y-148855820D01*
X64430537Y-148745506D01*
X64351185Y-148648815D01*
X64254494Y-148569463D01*
X64144180Y-148510498D01*
X64024482Y-148474188D01*
X63900000Y-148461928D01*
X63760000Y-148461928D01*
X63760000Y-147667803D01*
X64267803Y-147160000D01*
X69558057Y-147160000D01*
X69585764Y-147441309D01*
X69667818Y-147711808D01*
X69801068Y-147961101D01*
X69980392Y-148179608D01*
X70198899Y-148358932D01*
X70448192Y-148492182D01*
X70718691Y-148574236D01*
X70929508Y-148595000D01*
X71070492Y-148595000D01*
X71281309Y-148574236D01*
X71551808Y-148492182D01*
X71801101Y-148358932D01*
X72019608Y-148179608D01*
X72198932Y-147961101D01*
X72220901Y-147920000D01*
X74779099Y-147920000D01*
X74801068Y-147961101D01*
X74980392Y-148179608D01*
X75198899Y-148358932D01*
X75448192Y-148492182D01*
X75718691Y-148574236D01*
X75929508Y-148595000D01*
X76070492Y-148595000D01*
X76281309Y-148574236D01*
X76551808Y-148492182D01*
X76801101Y-148358932D01*
X77019608Y-148179608D01*
X77198932Y-147961101D01*
X77332182Y-147711808D01*
X77414236Y-147441309D01*
X77441943Y-147160000D01*
X82558057Y-147160000D01*
X82585764Y-147441309D01*
X82667818Y-147711808D01*
X82801068Y-147961101D01*
X82980392Y-148179608D01*
X83198899Y-148358932D01*
X83448192Y-148492182D01*
X83718691Y-148574236D01*
X83929508Y-148595000D01*
X84070492Y-148595000D01*
X84281309Y-148574236D01*
X84551808Y-148492182D01*
X84801101Y-148358932D01*
X85019608Y-148179608D01*
X85198932Y-147961101D01*
X85220901Y-147920000D01*
X87779099Y-147920000D01*
X87801068Y-147961101D01*
X87980392Y-148179608D01*
X88198899Y-148358932D01*
X88448192Y-148492182D01*
X88718691Y-148574236D01*
X88929508Y-148595000D01*
X89070492Y-148595000D01*
X89281309Y-148574236D01*
X89551808Y-148492182D01*
X89801101Y-148358932D01*
X90019608Y-148179608D01*
X90198932Y-147961101D01*
X90332182Y-147711808D01*
X90414236Y-147441309D01*
X90441943Y-147160000D01*
X90414236Y-146878691D01*
X90332182Y-146608192D01*
X90198932Y-146358899D01*
X90019608Y-146140392D01*
X89801101Y-145961068D01*
X89551808Y-145827818D01*
X89281309Y-145745764D01*
X89070492Y-145725000D01*
X88929508Y-145725000D01*
X88718691Y-145745764D01*
X88448192Y-145827818D01*
X88198899Y-145961068D01*
X87980392Y-146140392D01*
X87801068Y-146358899D01*
X87779099Y-146400000D01*
X85220901Y-146400000D01*
X85198932Y-146358899D01*
X85019608Y-146140392D01*
X84801101Y-145961068D01*
X84551808Y-145827818D01*
X84281309Y-145745764D01*
X84070492Y-145725000D01*
X83929508Y-145725000D01*
X83718691Y-145745764D01*
X83448192Y-145827818D01*
X83198899Y-145961068D01*
X82980392Y-146140392D01*
X82801068Y-146358899D01*
X82667818Y-146608192D01*
X82585764Y-146878691D01*
X82558057Y-147160000D01*
X77441943Y-147160000D01*
X77414236Y-146878691D01*
X77332182Y-146608192D01*
X77198932Y-146358899D01*
X77019608Y-146140392D01*
X76801101Y-145961068D01*
X76551808Y-145827818D01*
X76281309Y-145745764D01*
X76070492Y-145725000D01*
X75929508Y-145725000D01*
X75718691Y-145745764D01*
X75448192Y-145827818D01*
X75198899Y-145961068D01*
X74980392Y-146140392D01*
X74801068Y-146358899D01*
X74779099Y-146400000D01*
X72220901Y-146400000D01*
X72198932Y-146358899D01*
X72019608Y-146140392D01*
X71801101Y-145961068D01*
X71551808Y-145827818D01*
X71281309Y-145745764D01*
X71070492Y-145725000D01*
X70929508Y-145725000D01*
X70718691Y-145745764D01*
X70448192Y-145827818D01*
X70198899Y-145961068D01*
X69980392Y-146140392D01*
X69801068Y-146358899D01*
X69667818Y-146608192D01*
X69585764Y-146878691D01*
X69558057Y-147160000D01*
X64267803Y-147160000D01*
X70011004Y-141416800D01*
X70040001Y-141393003D01*
X70108121Y-141309999D01*
X70134974Y-141277279D01*
X70205546Y-141145249D01*
X70218969Y-141100997D01*
X70249003Y-141001988D01*
X70260000Y-140890335D01*
X70260000Y-140890326D01*
X70263676Y-140853003D01*
X70260000Y-140815680D01*
X70260000Y-138231407D01*
X70320273Y-138271680D01*
X70581426Y-138379853D01*
X70858665Y-138435000D01*
X71141335Y-138435000D01*
X71418574Y-138379853D01*
X71679727Y-138271680D01*
X71914759Y-138114637D01*
X72114637Y-137914759D01*
X72271680Y-137679727D01*
X72379853Y-137418574D01*
X72435000Y-137141335D01*
X72435000Y-136858665D01*
X74565000Y-136858665D01*
X74565000Y-137141335D01*
X74620147Y-137418574D01*
X74728320Y-137679727D01*
X74885363Y-137914759D01*
X75085241Y-138114637D01*
X75320273Y-138271680D01*
X75581426Y-138379853D01*
X75858665Y-138435000D01*
X76141335Y-138435000D01*
X76418574Y-138379853D01*
X76679727Y-138271680D01*
X76914759Y-138114637D01*
X77114637Y-137914759D01*
X77271680Y-137679727D01*
X77379853Y-137418574D01*
X77435000Y-137141335D01*
X77435000Y-136858665D01*
X82565000Y-136858665D01*
X82565000Y-137141335D01*
X82620147Y-137418574D01*
X82728320Y-137679727D01*
X82885363Y-137914759D01*
X83085241Y-138114637D01*
X83320273Y-138271680D01*
X83581426Y-138379853D01*
X83858665Y-138435000D01*
X84141335Y-138435000D01*
X84418574Y-138379853D01*
X84679727Y-138271680D01*
X84914759Y-138114637D01*
X85114637Y-137914759D01*
X85271680Y-137679727D01*
X85379853Y-137418574D01*
X85435000Y-137141335D01*
X85435000Y-136858665D01*
X87565000Y-136858665D01*
X87565000Y-137141335D01*
X87620147Y-137418574D01*
X87728320Y-137679727D01*
X87885363Y-137914759D01*
X88085241Y-138114637D01*
X88320273Y-138271680D01*
X88581426Y-138379853D01*
X88858665Y-138435000D01*
X89141335Y-138435000D01*
X89418574Y-138379853D01*
X89679727Y-138271680D01*
X89914759Y-138114637D01*
X90114637Y-137914759D01*
X90271680Y-137679727D01*
X90379853Y-137418574D01*
X90435000Y-137141335D01*
X90435000Y-136858665D01*
X90379853Y-136581426D01*
X90271680Y-136320273D01*
X90114637Y-136085241D01*
X89914759Y-135885363D01*
X89679727Y-135728320D01*
X89418574Y-135620147D01*
X89141335Y-135565000D01*
X88858665Y-135565000D01*
X88581426Y-135620147D01*
X88320273Y-135728320D01*
X88085241Y-135885363D01*
X87885363Y-136085241D01*
X87728320Y-136320273D01*
X87620147Y-136581426D01*
X87565000Y-136858665D01*
X85435000Y-136858665D01*
X85379853Y-136581426D01*
X85271680Y-136320273D01*
X85114637Y-136085241D01*
X84914759Y-135885363D01*
X84679727Y-135728320D01*
X84418574Y-135620147D01*
X84141335Y-135565000D01*
X83858665Y-135565000D01*
X83581426Y-135620147D01*
X83320273Y-135728320D01*
X83085241Y-135885363D01*
X82885363Y-136085241D01*
X82728320Y-136320273D01*
X82620147Y-136581426D01*
X82565000Y-136858665D01*
X77435000Y-136858665D01*
X77379853Y-136581426D01*
X77271680Y-136320273D01*
X77114637Y-136085241D01*
X76914759Y-135885363D01*
X76679727Y-135728320D01*
X76418574Y-135620147D01*
X76141335Y-135565000D01*
X75858665Y-135565000D01*
X75581426Y-135620147D01*
X75320273Y-135728320D01*
X75085241Y-135885363D01*
X74885363Y-136085241D01*
X74728320Y-136320273D01*
X74620147Y-136581426D01*
X74565000Y-136858665D01*
X72435000Y-136858665D01*
X72379853Y-136581426D01*
X72271680Y-136320273D01*
X72114637Y-136085241D01*
X71914759Y-135885363D01*
X71679727Y-135728320D01*
X71418574Y-135620147D01*
X71141335Y-135565000D01*
X70858665Y-135565000D01*
X70581426Y-135620147D01*
X70320273Y-135728320D01*
X70260000Y-135768593D01*
X70260000Y-134594801D01*
X71674094Y-133180708D01*
X71718691Y-133194236D01*
X71929508Y-133215000D01*
X72070492Y-133215000D01*
X72281309Y-133194236D01*
X72551808Y-133112182D01*
X72801101Y-132978932D01*
X73019608Y-132799608D01*
X73198932Y-132581101D01*
X73332182Y-132331808D01*
X73414236Y-132061309D01*
X73441943Y-131780000D01*
X73414236Y-131498691D01*
X73332182Y-131228192D01*
X73198932Y-130978899D01*
X73019608Y-130760392D01*
X72801101Y-130581068D01*
X72668142Y-130510000D01*
X72801101Y-130438932D01*
X73019608Y-130259608D01*
X73198932Y-130041101D01*
X73332182Y-129791808D01*
X73414236Y-129521309D01*
X73441943Y-129240000D01*
X73414236Y-128958691D01*
X73332182Y-128688192D01*
X73198932Y-128438899D01*
X73019608Y-128220392D01*
X72801101Y-128041068D01*
X72668142Y-127970000D01*
X72801101Y-127898932D01*
X73019608Y-127719608D01*
X73198932Y-127501101D01*
X73332182Y-127251808D01*
X73414236Y-126981309D01*
X73441943Y-126700000D01*
X73414236Y-126418691D01*
X73332182Y-126148192D01*
X73198932Y-125898899D01*
X73019608Y-125680392D01*
X72801101Y-125501068D01*
X72668142Y-125430000D01*
X72801101Y-125358932D01*
X73019608Y-125179608D01*
X73198932Y-124961101D01*
X73332182Y-124711808D01*
X73414236Y-124441309D01*
X73441943Y-124160000D01*
X73414236Y-123878691D01*
X73332182Y-123608192D01*
X73198932Y-123358899D01*
X73019608Y-123140392D01*
X72801101Y-122961068D01*
X72668142Y-122890000D01*
X72801101Y-122818932D01*
X73019608Y-122639608D01*
X73198932Y-122421101D01*
X73332182Y-122171808D01*
X73414236Y-121901309D01*
X73441943Y-121620000D01*
X73414236Y-121338691D01*
X73332182Y-121068192D01*
X73198932Y-120818899D01*
X73019608Y-120600392D01*
X72801101Y-120421068D01*
X72668142Y-120350000D01*
X72801101Y-120278932D01*
X73019608Y-120099608D01*
X73198932Y-119881101D01*
X73332182Y-119631808D01*
X73414236Y-119361309D01*
X73441943Y-119080000D01*
X73414236Y-118798691D01*
X73332182Y-118528192D01*
X73198932Y-118278899D01*
X73019608Y-118060392D01*
X72801101Y-117881068D01*
X72668142Y-117810000D01*
X72801101Y-117738932D01*
X73019608Y-117559608D01*
X73198932Y-117341101D01*
X73332182Y-117091808D01*
X73414236Y-116821309D01*
X73441943Y-116540000D01*
X73414236Y-116258691D01*
X73332182Y-115988192D01*
X73198932Y-115738899D01*
X73019608Y-115520392D01*
X72906518Y-115427581D01*
X72924482Y-115425812D01*
X73044180Y-115389502D01*
X73154494Y-115330537D01*
X73251185Y-115251185D01*
X73330537Y-115154494D01*
X73389502Y-115044180D01*
X73425812Y-114924482D01*
X73438072Y-114800000D01*
X73435000Y-114285750D01*
X73276250Y-114127000D01*
X72127000Y-114127000D01*
X72127000Y-114147000D01*
X71873000Y-114147000D01*
X71873000Y-114127000D01*
X70723750Y-114127000D01*
X70565000Y-114285750D01*
X70561928Y-114800000D01*
X70574188Y-114924482D01*
X70610498Y-115044180D01*
X70669463Y-115154494D01*
X70748815Y-115251185D01*
X70845506Y-115330537D01*
X70955820Y-115389502D01*
X71075518Y-115425812D01*
X71093482Y-115427581D01*
X70980392Y-115520392D01*
X70801068Y-115738899D01*
X70667818Y-115988192D01*
X70585764Y-116258691D01*
X70558057Y-116540000D01*
X70585764Y-116821309D01*
X70667818Y-117091808D01*
X70801068Y-117341101D01*
X70980392Y-117559608D01*
X71198899Y-117738932D01*
X71331858Y-117810000D01*
X71198899Y-117881068D01*
X70980392Y-118060392D01*
X70801068Y-118278899D01*
X70779099Y-118320000D01*
X69783711Y-118320000D01*
X69659774Y-118196063D01*
X69490256Y-118082795D01*
X69301898Y-118004774D01*
X69101939Y-117965000D01*
X68898061Y-117965000D01*
X68698102Y-118004774D01*
X68509744Y-118082795D01*
X68340226Y-118196063D01*
X68196063Y-118340226D01*
X68082795Y-118509744D01*
X68004774Y-118698102D01*
X67965000Y-118898061D01*
X67965000Y-119101939D01*
X68004774Y-119301898D01*
X68082795Y-119490256D01*
X68196063Y-119659774D01*
X68340226Y-119803937D01*
X68509744Y-119917205D01*
X68698102Y-119995226D01*
X68898061Y-120035000D01*
X69101939Y-120035000D01*
X69301898Y-119995226D01*
X69490256Y-119917205D01*
X69605802Y-119840000D01*
X70779099Y-119840000D01*
X70801068Y-119881101D01*
X70980392Y-120099608D01*
X71198899Y-120278932D01*
X71331858Y-120350000D01*
X71198899Y-120421068D01*
X70980392Y-120600392D01*
X70801068Y-120818899D01*
X70667818Y-121068192D01*
X70585764Y-121338691D01*
X70558057Y-121620000D01*
X70585764Y-121901309D01*
X70667818Y-122171808D01*
X70801068Y-122421101D01*
X70980392Y-122639608D01*
X71198899Y-122818932D01*
X71331858Y-122890000D01*
X71198899Y-122961068D01*
X70980392Y-123140392D01*
X70801068Y-123358899D01*
X70779099Y-123400000D01*
X66727322Y-123400000D01*
X66689999Y-123396324D01*
X66652676Y-123400000D01*
X66652667Y-123400000D01*
X66541014Y-123410997D01*
X66397753Y-123454454D01*
X66265723Y-123525026D01*
X66249827Y-123538072D01*
X66149999Y-123619999D01*
X66126201Y-123648997D01*
X62488998Y-127286201D01*
X62460000Y-127309999D01*
X62436202Y-127338997D01*
X62436201Y-127338998D01*
X62365026Y-127425724D01*
X62345674Y-127461928D01*
X62100000Y-127461928D01*
X61975518Y-127474188D01*
X61855820Y-127510498D01*
X61745506Y-127569463D01*
X61648815Y-127648815D01*
X61569463Y-127745506D01*
X61510498Y-127855820D01*
X61474188Y-127975518D01*
X61461928Y-128100000D01*
X60685000Y-128100000D01*
X60685000Y-121100000D01*
X61461928Y-121100000D01*
X61461928Y-122900000D01*
X61474188Y-123024482D01*
X61510498Y-123144180D01*
X61569463Y-123254494D01*
X61648815Y-123351185D01*
X61745506Y-123430537D01*
X61855820Y-123489502D01*
X61975518Y-123525812D01*
X62100000Y-123538072D01*
X63900000Y-123538072D01*
X64024482Y-123525812D01*
X64144180Y-123489502D01*
X64254494Y-123430537D01*
X64351185Y-123351185D01*
X64430537Y-123254494D01*
X64489502Y-123144180D01*
X64495056Y-123125873D01*
X64561495Y-123192312D01*
X64812905Y-123360299D01*
X65092257Y-123476011D01*
X65388816Y-123535000D01*
X65691184Y-123535000D01*
X65987743Y-123476011D01*
X66267095Y-123360299D01*
X66518505Y-123192312D01*
X66732312Y-122978505D01*
X66900299Y-122727095D01*
X67016011Y-122447743D01*
X67075000Y-122151184D01*
X67075000Y-121848816D01*
X67016011Y-121552257D01*
X66900299Y-121272905D01*
X66732312Y-121021495D01*
X66518505Y-120807688D01*
X66267095Y-120639701D01*
X65987743Y-120523989D01*
X65691184Y-120465000D01*
X65388816Y-120465000D01*
X65092257Y-120523989D01*
X64812905Y-120639701D01*
X64561495Y-120807688D01*
X64495056Y-120874127D01*
X64489502Y-120855820D01*
X64430537Y-120745506D01*
X64351185Y-120648815D01*
X64309882Y-120614919D01*
X68511004Y-116413798D01*
X68540001Y-116390001D01*
X68634974Y-116274276D01*
X68705546Y-116142247D01*
X68749003Y-115998986D01*
X68760000Y-115887333D01*
X68760000Y-115887323D01*
X68763676Y-115850000D01*
X68760000Y-115812677D01*
X68760000Y-113314801D01*
X68874801Y-113200000D01*
X70561928Y-113200000D01*
X70565000Y-113714250D01*
X70723750Y-113873000D01*
X71873000Y-113873000D01*
X71873000Y-112723750D01*
X72127000Y-112723750D01*
X72127000Y-113873000D01*
X73276250Y-113873000D01*
X73435000Y-113714250D01*
X73438072Y-113200000D01*
X73425812Y-113075518D01*
X73389502Y-112955820D01*
X73330537Y-112845506D01*
X73251185Y-112748815D01*
X73154494Y-112669463D01*
X73044180Y-112610498D01*
X72924482Y-112574188D01*
X72800000Y-112561928D01*
X72285750Y-112565000D01*
X72127000Y-112723750D01*
X71873000Y-112723750D01*
X71714250Y-112565000D01*
X71200000Y-112561928D01*
X71075518Y-112574188D01*
X70955820Y-112610498D01*
X70845506Y-112669463D01*
X70748815Y-112748815D01*
X70669463Y-112845506D01*
X70610498Y-112955820D01*
X70574188Y-113075518D01*
X70561928Y-113200000D01*
X68874801Y-113200000D01*
X70176740Y-111898061D01*
X76965000Y-111898061D01*
X76965000Y-112101939D01*
X77004774Y-112301898D01*
X77082795Y-112490256D01*
X77196063Y-112659774D01*
X77340226Y-112803937D01*
X77509744Y-112917205D01*
X77698102Y-112995226D01*
X77898061Y-113035000D01*
X78101939Y-113035000D01*
X78301898Y-112995226D01*
X78490256Y-112917205D01*
X78659774Y-112803937D01*
X78703711Y-112760000D01*
X78895732Y-112760000D01*
X78818899Y-112801068D01*
X78600392Y-112980392D01*
X78421068Y-113198899D01*
X78287818Y-113448192D01*
X78205764Y-113718691D01*
X78178057Y-114000000D01*
X78205764Y-114281309D01*
X78287818Y-114551808D01*
X78421068Y-114801101D01*
X78600392Y-115019608D01*
X78818899Y-115198932D01*
X78951858Y-115270000D01*
X78818899Y-115341068D01*
X78600392Y-115520392D01*
X78421068Y-115738899D01*
X78287818Y-115988192D01*
X78205764Y-116258691D01*
X78178057Y-116540000D01*
X78205764Y-116821309D01*
X78287818Y-117091808D01*
X78421068Y-117341101D01*
X78600392Y-117559608D01*
X78818899Y-117738932D01*
X78951858Y-117810000D01*
X78818899Y-117881068D01*
X78600392Y-118060392D01*
X78421068Y-118278899D01*
X78287818Y-118528192D01*
X78205764Y-118798691D01*
X78178057Y-119080000D01*
X78205764Y-119361309D01*
X78287818Y-119631808D01*
X78421068Y-119881101D01*
X78600392Y-120099608D01*
X78818899Y-120278932D01*
X78951858Y-120350000D01*
X78818899Y-120421068D01*
X78600392Y-120600392D01*
X78421068Y-120818899D01*
X78287818Y-121068192D01*
X78205764Y-121338691D01*
X78178057Y-121620000D01*
X78205764Y-121901309D01*
X78287818Y-122171808D01*
X78421068Y-122421101D01*
X78600392Y-122639608D01*
X78818899Y-122818932D01*
X78951858Y-122890000D01*
X78818899Y-122961068D01*
X78600392Y-123140392D01*
X78421068Y-123358899D01*
X78287818Y-123608192D01*
X78205764Y-123878691D01*
X78178057Y-124160000D01*
X78205764Y-124441309D01*
X78287818Y-124711808D01*
X78421068Y-124961101D01*
X78600392Y-125179608D01*
X78818899Y-125358932D01*
X78951858Y-125430000D01*
X78818899Y-125501068D01*
X78600392Y-125680392D01*
X78421068Y-125898899D01*
X78287818Y-126148192D01*
X78205764Y-126418691D01*
X78178057Y-126700000D01*
X78205764Y-126981309D01*
X78287818Y-127251808D01*
X78421068Y-127501101D01*
X78600392Y-127719608D01*
X78818899Y-127898932D01*
X78951858Y-127970000D01*
X78818899Y-128041068D01*
X78600392Y-128220392D01*
X78421068Y-128438899D01*
X78287818Y-128688192D01*
X78205764Y-128958691D01*
X78178057Y-129240000D01*
X78205764Y-129521309D01*
X78287818Y-129791808D01*
X78421068Y-130041101D01*
X78600392Y-130259608D01*
X78818899Y-130438932D01*
X78951858Y-130510000D01*
X78818899Y-130581068D01*
X78600392Y-130760392D01*
X78421068Y-130978899D01*
X78287818Y-131228192D01*
X78205764Y-131498691D01*
X78178057Y-131780000D01*
X78205764Y-132061309D01*
X78287818Y-132331808D01*
X78421068Y-132581101D01*
X78600392Y-132799608D01*
X78818899Y-132978932D01*
X79068192Y-133112182D01*
X79338691Y-133194236D01*
X79549508Y-133215000D01*
X79690492Y-133215000D01*
X79901309Y-133194236D01*
X80171808Y-133112182D01*
X80421101Y-132978932D01*
X80639608Y-132799608D01*
X80818932Y-132581101D01*
X80952182Y-132331808D01*
X81034236Y-132061309D01*
X81061943Y-131780000D01*
X81034236Y-131498691D01*
X80952182Y-131228192D01*
X80818932Y-130978899D01*
X80639608Y-130760392D01*
X80421101Y-130581068D01*
X80288142Y-130510000D01*
X80421101Y-130438932D01*
X80639608Y-130259608D01*
X80818932Y-130041101D01*
X80952182Y-129791808D01*
X81034236Y-129521309D01*
X81061943Y-129240000D01*
X81034236Y-128958691D01*
X80952182Y-128688192D01*
X80818932Y-128438899D01*
X80639608Y-128220392D01*
X80421101Y-128041068D01*
X80288142Y-127970000D01*
X80421101Y-127898932D01*
X80639608Y-127719608D01*
X80818932Y-127501101D01*
X80952182Y-127251808D01*
X81025823Y-127009040D01*
X83608091Y-127009040D01*
X83702930Y-127273881D01*
X83847615Y-127515131D01*
X84036586Y-127723519D01*
X84262580Y-127891037D01*
X84516913Y-128011246D01*
X84650961Y-128051904D01*
X84873000Y-127929915D01*
X84873000Y-126787000D01*
X85127000Y-126787000D01*
X85127000Y-127929915D01*
X85349039Y-128051904D01*
X85483087Y-128011246D01*
X85737420Y-127891037D01*
X85963414Y-127723519D01*
X86152385Y-127515131D01*
X86297070Y-127273881D01*
X86391909Y-127009040D01*
X86270624Y-126787000D01*
X85127000Y-126787000D01*
X84873000Y-126787000D01*
X83729376Y-126787000D01*
X83608091Y-127009040D01*
X81025823Y-127009040D01*
X81034236Y-126981309D01*
X81061943Y-126700000D01*
X81034236Y-126418691D01*
X81001557Y-126310960D01*
X83608091Y-126310960D01*
X83729376Y-126533000D01*
X84873000Y-126533000D01*
X84873000Y-125390085D01*
X85127000Y-125390085D01*
X85127000Y-126533000D01*
X86270624Y-126533000D01*
X86391909Y-126310960D01*
X86297070Y-126046119D01*
X86152385Y-125804869D01*
X85963414Y-125596481D01*
X85737420Y-125428963D01*
X85483087Y-125308754D01*
X85349039Y-125268096D01*
X85127000Y-125390085D01*
X84873000Y-125390085D01*
X84650961Y-125268096D01*
X84516913Y-125308754D01*
X84262580Y-125428963D01*
X84036586Y-125596481D01*
X83847615Y-125804869D01*
X83702930Y-126046119D01*
X83608091Y-126310960D01*
X81001557Y-126310960D01*
X80952182Y-126148192D01*
X80818932Y-125898899D01*
X80639608Y-125680392D01*
X80421101Y-125501068D01*
X80288142Y-125430000D01*
X80421101Y-125358932D01*
X80639608Y-125179608D01*
X80818932Y-124961101D01*
X80952182Y-124711808D01*
X81034236Y-124441309D01*
X81061943Y-124160000D01*
X81034236Y-123878691D01*
X80952182Y-123608192D01*
X80818932Y-123358899D01*
X80639608Y-123140392D01*
X80421101Y-122961068D01*
X80288142Y-122890000D01*
X80421101Y-122818932D01*
X80639608Y-122639608D01*
X80818932Y-122421101D01*
X80952182Y-122171808D01*
X81034236Y-121901309D01*
X81061943Y-121620000D01*
X81034236Y-121338691D01*
X80952182Y-121068192D01*
X80818932Y-120818899D01*
X80639608Y-120600392D01*
X80421101Y-120421068D01*
X80288142Y-120350000D01*
X80421101Y-120278932D01*
X80639608Y-120099608D01*
X80818932Y-119881101D01*
X80952182Y-119631808D01*
X81034236Y-119361309D01*
X81061943Y-119080000D01*
X81034236Y-118798691D01*
X81022499Y-118760000D01*
X81796289Y-118760000D01*
X81840226Y-118803937D01*
X82009744Y-118917205D01*
X82198102Y-118995226D01*
X82398061Y-119035000D01*
X82601939Y-119035000D01*
X82801898Y-118995226D01*
X82990256Y-118917205D01*
X83159774Y-118803937D01*
X83303937Y-118659774D01*
X83417205Y-118490256D01*
X83495226Y-118301898D01*
X83535000Y-118101939D01*
X83535000Y-117898061D01*
X83495226Y-117698102D01*
X83417205Y-117509744D01*
X83303937Y-117340226D01*
X83263711Y-117300000D01*
X83808684Y-117300000D01*
X83885363Y-117414759D01*
X84085241Y-117614637D01*
X84320273Y-117771680D01*
X84581426Y-117879853D01*
X84858665Y-117935000D01*
X85141335Y-117935000D01*
X85418574Y-117879853D01*
X85679727Y-117771680D01*
X85914759Y-117614637D01*
X86114637Y-117414759D01*
X86271680Y-117179727D01*
X86379853Y-116918574D01*
X86435000Y-116641335D01*
X86435000Y-116358665D01*
X86379853Y-116081426D01*
X86271680Y-115820273D01*
X86114637Y-115585241D01*
X85914759Y-115385363D01*
X85679727Y-115228320D01*
X85418574Y-115120147D01*
X85141335Y-115065000D01*
X84858665Y-115065000D01*
X84581426Y-115120147D01*
X84320273Y-115228320D01*
X84085241Y-115385363D01*
X83885363Y-115585241D01*
X83755229Y-115780000D01*
X80840901Y-115780000D01*
X80818932Y-115738899D01*
X80639608Y-115520392D01*
X80421101Y-115341068D01*
X80288142Y-115270000D01*
X80421101Y-115198932D01*
X80639608Y-115019608D01*
X80818932Y-114801101D01*
X80952182Y-114551808D01*
X81034236Y-114281309D01*
X81061943Y-114000000D01*
X81034236Y-113718691D01*
X80952182Y-113448192D01*
X80818932Y-113198899D01*
X80639608Y-112980392D01*
X80421101Y-112801068D01*
X80344268Y-112760000D01*
X83796289Y-112760000D01*
X83840226Y-112803937D01*
X84009744Y-112917205D01*
X84198102Y-112995226D01*
X84398061Y-113035000D01*
X84601939Y-113035000D01*
X84801898Y-112995226D01*
X84990256Y-112917205D01*
X85159774Y-112803937D01*
X85303937Y-112659774D01*
X85417205Y-112490256D01*
X85495226Y-112301898D01*
X85535000Y-112101939D01*
X85535000Y-111898061D01*
X85495226Y-111698102D01*
X85417205Y-111509744D01*
X85303937Y-111340226D01*
X85159774Y-111196063D01*
X84990256Y-111082795D01*
X84801898Y-111004774D01*
X84601939Y-110965000D01*
X84398061Y-110965000D01*
X84198102Y-111004774D01*
X84009744Y-111082795D01*
X83840226Y-111196063D01*
X83796289Y-111240000D01*
X78703711Y-111240000D01*
X78659774Y-111196063D01*
X78490256Y-111082795D01*
X78301898Y-111004774D01*
X78101939Y-110965000D01*
X77898061Y-110965000D01*
X77698102Y-111004774D01*
X77509744Y-111082795D01*
X77340226Y-111196063D01*
X77196063Y-111340226D01*
X77082795Y-111509744D01*
X77004774Y-111698102D01*
X76965000Y-111898061D01*
X70176740Y-111898061D01*
X71582099Y-110492702D01*
X73686903Y-110492702D01*
X73758486Y-110736671D01*
X74013996Y-110857571D01*
X74288184Y-110926300D01*
X74570512Y-110940217D01*
X74850130Y-110898787D01*
X75116292Y-110803603D01*
X75241514Y-110736671D01*
X75313097Y-110492702D01*
X74500000Y-109679605D01*
X73686903Y-110492702D01*
X71582099Y-110492702D01*
X72039802Y-110035000D01*
X72101939Y-110035000D01*
X72301898Y-109995226D01*
X72490256Y-109917205D01*
X72659774Y-109803937D01*
X72803937Y-109659774D01*
X72863579Y-109570512D01*
X73059783Y-109570512D01*
X73101213Y-109850130D01*
X73196397Y-110116292D01*
X73263329Y-110241514D01*
X73507298Y-110313097D01*
X74320395Y-109500000D01*
X74679605Y-109500000D01*
X75492702Y-110313097D01*
X75736671Y-110241514D01*
X75857571Y-109986004D01*
X75926300Y-109711816D01*
X75940217Y-109429488D01*
X75929724Y-109358665D01*
X78065000Y-109358665D01*
X78065000Y-109641335D01*
X78120147Y-109918574D01*
X78228320Y-110179727D01*
X78385363Y-110414759D01*
X78585241Y-110614637D01*
X78820273Y-110771680D01*
X79081426Y-110879853D01*
X79358665Y-110935000D01*
X79641335Y-110935000D01*
X79918574Y-110879853D01*
X80179727Y-110771680D01*
X80414759Y-110614637D01*
X80614637Y-110414759D01*
X80771680Y-110179727D01*
X80879853Y-109918574D01*
X80935000Y-109641335D01*
X80935000Y-109358665D01*
X80879853Y-109081426D01*
X80771680Y-108820273D01*
X80614637Y-108585241D01*
X80414759Y-108385363D01*
X80179727Y-108228320D01*
X79918574Y-108120147D01*
X79641335Y-108065000D01*
X79358665Y-108065000D01*
X79081426Y-108120147D01*
X78820273Y-108228320D01*
X78585241Y-108385363D01*
X78385363Y-108585241D01*
X78228320Y-108820273D01*
X78120147Y-109081426D01*
X78065000Y-109358665D01*
X75929724Y-109358665D01*
X75898787Y-109149870D01*
X75803603Y-108883708D01*
X75736671Y-108758486D01*
X75492702Y-108686903D01*
X74679605Y-109500000D01*
X74320395Y-109500000D01*
X73507298Y-108686903D01*
X73263329Y-108758486D01*
X73142429Y-109013996D01*
X73073700Y-109288184D01*
X73059783Y-109570512D01*
X72863579Y-109570512D01*
X72917205Y-109490256D01*
X72995226Y-109301898D01*
X73035000Y-109101939D01*
X73035000Y-108898061D01*
X72995226Y-108698102D01*
X72917205Y-108509744D01*
X72915571Y-108507298D01*
X73686903Y-108507298D01*
X74500000Y-109320395D01*
X75313097Y-108507298D01*
X75241514Y-108263329D01*
X74986004Y-108142429D01*
X74711816Y-108073700D01*
X74429488Y-108059783D01*
X74149870Y-108101213D01*
X73883708Y-108196397D01*
X73758486Y-108263329D01*
X73686903Y-108507298D01*
X72915571Y-108507298D01*
X72803937Y-108340226D01*
X72659774Y-108196063D01*
X72490256Y-108082795D01*
X72301898Y-108004774D01*
X72101939Y-107965000D01*
X71898061Y-107965000D01*
X71698102Y-108004774D01*
X71509744Y-108082795D01*
X71340226Y-108196063D01*
X71196063Y-108340226D01*
X71082795Y-108509744D01*
X71004774Y-108698102D01*
X70965000Y-108898061D01*
X70965000Y-108960198D01*
X67488998Y-112436201D01*
X67460000Y-112459999D01*
X67436202Y-112488997D01*
X67436201Y-112488998D01*
X67365026Y-112575724D01*
X67294454Y-112707754D01*
X67250998Y-112851015D01*
X67236324Y-113000000D01*
X67240001Y-113037332D01*
X67240000Y-115535198D01*
X62488998Y-120286201D01*
X62460000Y-120309999D01*
X62436202Y-120338997D01*
X62436201Y-120338998D01*
X62365026Y-120425724D01*
X62345674Y-120461928D01*
X62100000Y-120461928D01*
X61975518Y-120474188D01*
X61855820Y-120510498D01*
X61745506Y-120569463D01*
X61648815Y-120648815D01*
X61569463Y-120745506D01*
X61510498Y-120855820D01*
X61474188Y-120975518D01*
X61461928Y-121100000D01*
X60685000Y-121100000D01*
X60685000Y-63779872D01*
X61765000Y-63779872D01*
X61765000Y-64220128D01*
X61850890Y-64651925D01*
X62019369Y-65058669D01*
X62263962Y-65424729D01*
X62575271Y-65736038D01*
X62941331Y-65980631D01*
X63348075Y-66149110D01*
X63779872Y-66235000D01*
X64220128Y-66235000D01*
X64651925Y-66149110D01*
X65058669Y-65980631D01*
X65424729Y-65736038D01*
X65736038Y-65424729D01*
X65980631Y-65058669D01*
X66149110Y-64651925D01*
X66235000Y-64220128D01*
X66235000Y-63779872D01*
X88765000Y-63779872D01*
X88765000Y-64220128D01*
X88850890Y-64651925D01*
X89019369Y-65058669D01*
X89263962Y-65424729D01*
X89575271Y-65736038D01*
X89941331Y-65980631D01*
X90348075Y-66149110D01*
X90779872Y-66235000D01*
X91220128Y-66235000D01*
X91651925Y-66149110D01*
X92058669Y-65980631D01*
X92424729Y-65736038D01*
X92736038Y-65424729D01*
X92980631Y-65058669D01*
X93149110Y-64651925D01*
X93235000Y-64220128D01*
X93235000Y-63779872D01*
X93149110Y-63348075D01*
X92980631Y-62941331D01*
X92736038Y-62575271D01*
X92424729Y-62263962D01*
X92058669Y-62019369D01*
X91651925Y-61850890D01*
X91220128Y-61765000D01*
X90779872Y-61765000D01*
X90348075Y-61850890D01*
X89941331Y-62019369D01*
X89575271Y-62263962D01*
X89263962Y-62575271D01*
X89019369Y-62941331D01*
X88850890Y-63348075D01*
X88765000Y-63779872D01*
X66235000Y-63779872D01*
X66149110Y-63348075D01*
X65980631Y-62941331D01*
X65736038Y-62575271D01*
X65424729Y-62263962D01*
X65058669Y-62019369D01*
X64651925Y-61850890D01*
X64220128Y-61765000D01*
X63779872Y-61765000D01*
X63348075Y-61850890D01*
X62941331Y-62019369D01*
X62575271Y-62263962D01*
X62263962Y-62575271D01*
X62019369Y-62941331D01*
X61850890Y-63348075D01*
X61765000Y-63779872D01*
X60685000Y-63779872D01*
X60685000Y-60685000D01*
X94315000Y-60685000D01*
X94315000Y-85240198D01*
X94315000Y-85240198D01*
G37*
X94315000Y-85240198D02*
X91518803Y-82444002D01*
X91495000Y-82414998D01*
X91379275Y-82320025D01*
X91247246Y-82249453D01*
X91103985Y-82205996D01*
X90992332Y-82194999D01*
X90992321Y-82194999D01*
X90954999Y-82191323D01*
X90917677Y-82194999D01*
X86261476Y-82194999D01*
X86271680Y-82179727D01*
X86379853Y-81918574D01*
X86435000Y-81641335D01*
X86435000Y-81358665D01*
X86379853Y-81081426D01*
X86271680Y-80820273D01*
X86114637Y-80585241D01*
X85914759Y-80385363D01*
X85679727Y-80228320D01*
X85418574Y-80120147D01*
X85141335Y-80065000D01*
X84858665Y-80065000D01*
X84581426Y-80120147D01*
X84320273Y-80228320D01*
X84085241Y-80385363D01*
X83885363Y-80585241D01*
X83781957Y-80740000D01*
X80819520Y-80740000D01*
X80818932Y-80738899D01*
X80639608Y-80520392D01*
X80421101Y-80341068D01*
X80288142Y-80270000D01*
X80421101Y-80198932D01*
X80639608Y-80019608D01*
X80818932Y-79801101D01*
X80952182Y-79551808D01*
X81034236Y-79281309D01*
X81061943Y-79000000D01*
X81034236Y-78718691D01*
X80952182Y-78448192D01*
X80851591Y-78260000D01*
X88296289Y-78260000D01*
X88340226Y-78303937D01*
X88509744Y-78417205D01*
X88698102Y-78495226D01*
X88898061Y-78535000D01*
X89101939Y-78535000D01*
X89301898Y-78495226D01*
X89490256Y-78417205D01*
X89659774Y-78303937D01*
X89803937Y-78159774D01*
X89917205Y-77990256D01*
X89995226Y-77801898D01*
X90035000Y-77601939D01*
X90035000Y-77398061D01*
X89995226Y-77198102D01*
X89917205Y-77009744D01*
X89803937Y-76840226D01*
X89659774Y-76696063D01*
X89490256Y-76582795D01*
X89301898Y-76504774D01*
X89101939Y-76465000D01*
X88898061Y-76465000D01*
X88698102Y-76504774D01*
X88509744Y-76582795D01*
X88340226Y-76696063D01*
X88296289Y-76740000D01*
X78037325Y-76740000D01*
X78000000Y-76736324D01*
X77962675Y-76740000D01*
X77962667Y-76740000D01*
X77851014Y-76750997D01*
X77707753Y-76794454D01*
X77575724Y-76865026D01*
X77459999Y-76959999D01*
X77436201Y-76988997D01*
X73645199Y-80780000D01*
X73220901Y-80780000D01*
X73198932Y-80738899D01*
X73019608Y-80520392D01*
X72906518Y-80427581D01*
X72924482Y-80425812D01*
X73044180Y-80389502D01*
X73154494Y-80330537D01*
X73251185Y-80251185D01*
X73330537Y-80154494D01*
X73389502Y-80044180D01*
X73425812Y-79924482D01*
X73438072Y-79800000D01*
X73435000Y-79285750D01*
X73276250Y-79127000D01*
X72127000Y-79127000D01*
X72127000Y-79147000D01*
X71873000Y-79147000D01*
X71873000Y-79127000D01*
X70723750Y-79127000D01*
X70565000Y-79285750D01*
X70561928Y-79800000D01*
X70574188Y-79924482D01*
X70610498Y-80044180D01*
X70669463Y-80154494D01*
X70748815Y-80251185D01*
X70845506Y-80330537D01*
X70955820Y-80389502D01*
X71075518Y-80425812D01*
X71093482Y-80427581D01*
X70980392Y-80520392D01*
X70801068Y-80738899D01*
X70667818Y-80988192D01*
X70585764Y-81258691D01*
X70558057Y-81540000D01*
X70585764Y-81821309D01*
X70667818Y-82091808D01*
X70801068Y-82341101D01*
X70980392Y-82559608D01*
X71198899Y-82738932D01*
X71331858Y-82810000D01*
X71198899Y-82881068D01*
X70980392Y-83060392D01*
X70801068Y-83278899D01*
X70667818Y-83528192D01*
X70585764Y-83798691D01*
X70558057Y-84080000D01*
X70585764Y-84361309D01*
X70667818Y-84631808D01*
X70801068Y-84881101D01*
X70980392Y-85099608D01*
X71198899Y-85278932D01*
X71331858Y-85350000D01*
X71198899Y-85421068D01*
X70980392Y-85600392D01*
X70801068Y-85818899D01*
X70667818Y-86068192D01*
X70585764Y-86338691D01*
X70558057Y-86620000D01*
X70560598Y-86645796D01*
X69760000Y-85845199D01*
X69760000Y-80187322D01*
X69763676Y-80149999D01*
X69760000Y-80112676D01*
X69760000Y-80112667D01*
X69749003Y-80001014D01*
X69705546Y-79857753D01*
X69634974Y-79725724D01*
X69620226Y-79707753D01*
X69563799Y-79638996D01*
X69563795Y-79638992D01*
X69540001Y-79609999D01*
X69511009Y-79586206D01*
X68124803Y-78200000D01*
X70561928Y-78200000D01*
X70565000Y-78714250D01*
X70723750Y-78873000D01*
X71873000Y-78873000D01*
X71873000Y-77723750D01*
X72127000Y-77723750D01*
X72127000Y-78873000D01*
X73276250Y-78873000D01*
X73435000Y-78714250D01*
X73438072Y-78200000D01*
X73425812Y-78075518D01*
X73389502Y-77955820D01*
X73330537Y-77845506D01*
X73251185Y-77748815D01*
X73154494Y-77669463D01*
X73044180Y-77610498D01*
X72924482Y-77574188D01*
X72800000Y-77561928D01*
X72285750Y-77565000D01*
X72127000Y-77723750D01*
X71873000Y-77723750D01*
X71714250Y-77565000D01*
X71200000Y-77561928D01*
X71075518Y-77574188D01*
X70955820Y-77610498D01*
X70845506Y-77669463D01*
X70748815Y-77748815D01*
X70669463Y-77845506D01*
X70610498Y-77955820D01*
X70574188Y-78075518D01*
X70561928Y-78200000D01*
X68124803Y-78200000D01*
X65917505Y-75992702D01*
X71186903Y-75992702D01*
X71258486Y-76236671D01*
X71513996Y-76357571D01*
X71788184Y-76426300D01*
X72070512Y-76440217D01*
X72350130Y-76398787D01*
X72616292Y-76303603D01*
X72741514Y-76236671D01*
X72813097Y-75992702D01*
X72000000Y-75179605D01*
X71186903Y-75992702D01*
X65917505Y-75992702D01*
X64995314Y-75070512D01*
X70559783Y-75070512D01*
X70601213Y-75350130D01*
X70696397Y-75616292D01*
X70763329Y-75741514D01*
X71007298Y-75813097D01*
X71820395Y-75000000D01*
X72179605Y-75000000D01*
X72992702Y-75813097D01*
X73236671Y-75741514D01*
X73357571Y-75486004D01*
X73426300Y-75211816D01*
X73440217Y-74929488D01*
X73429724Y-74858665D01*
X75565000Y-74858665D01*
X75565000Y-75141335D01*
X75620147Y-75418574D01*
X75728320Y-75679727D01*
X75885363Y-75914759D01*
X76085241Y-76114637D01*
X76320273Y-76271680D01*
X76581426Y-76379853D01*
X76858665Y-76435000D01*
X77141335Y-76435000D01*
X77418574Y-76379853D01*
X77679727Y-76271680D01*
X77914759Y-76114637D01*
X78114637Y-75914759D01*
X78271680Y-75679727D01*
X78379853Y-75418574D01*
X78435000Y-75141335D01*
X78435000Y-74858665D01*
X78379853Y-74581426D01*
X78271680Y-74320273D01*
X78114637Y-74085241D01*
X77914759Y-73885363D01*
X77679727Y-73728320D01*
X77418574Y-73620147D01*
X77141335Y-73565000D01*
X76858665Y-73565000D01*
X76581426Y-73620147D01*
X76320273Y-73728320D01*
X76085241Y-73885363D01*
X75885363Y-74085241D01*
X75728320Y-74320273D01*
X75620147Y-74581426D01*
X75565000Y-74858665D01*
X73429724Y-74858665D01*
X73398787Y-74649870D01*
X73303603Y-74383708D01*
X73236671Y-74258486D01*
X72992702Y-74186903D01*
X72179605Y-75000000D01*
X71820395Y-75000000D01*
X71007298Y-74186903D01*
X70763329Y-74258486D01*
X70642429Y-74513996D01*
X70573700Y-74788184D01*
X70559783Y-75070512D01*
X64995314Y-75070512D01*
X64309882Y-74385081D01*
X64351185Y-74351185D01*
X64430537Y-74254494D01*
X64489502Y-74144180D01*
X64495056Y-74125873D01*
X64561495Y-74192312D01*
X64812905Y-74360299D01*
X65092257Y-74476011D01*
X65388816Y-74535000D01*
X65691184Y-74535000D01*
X65987743Y-74476011D01*
X66267095Y-74360299D01*
X66518505Y-74192312D01*
X66703519Y-74007298D01*
X71186903Y-74007298D01*
X72000000Y-74820395D01*
X72813097Y-74007298D01*
X72741514Y-73763329D01*
X72486004Y-73642429D01*
X72211816Y-73573700D01*
X71929488Y-73559783D01*
X71649870Y-73601213D01*
X71383708Y-73696397D01*
X71258486Y-73763329D01*
X71186903Y-74007298D01*
X66703519Y-74007298D01*
X66732312Y-73978505D01*
X66900299Y-73727095D01*
X67016011Y-73447743D01*
X67075000Y-73151184D01*
X67075000Y-72848816D01*
X67016011Y-72552257D01*
X66900299Y-72272905D01*
X66732312Y-72021495D01*
X66518505Y-71807688D01*
X66267095Y-71639701D01*
X65987743Y-71523989D01*
X65691184Y-71465000D01*
X65388816Y-71465000D01*
X65092257Y-71523989D01*
X64812905Y-71639701D01*
X64561495Y-71807688D01*
X64495056Y-71874127D01*
X64489502Y-71855820D01*
X64430537Y-71745506D01*
X64351185Y-71648815D01*
X64254494Y-71569463D01*
X64144180Y-71510498D01*
X64024482Y-71474188D01*
X63900000Y-71461928D01*
X62100000Y-71461928D01*
X61975518Y-71474188D01*
X61855820Y-71510498D01*
X61745506Y-71569463D01*
X61648815Y-71648815D01*
X61569463Y-71745506D01*
X61510498Y-71855820D01*
X61474188Y-71975518D01*
X61461928Y-72100000D01*
X61461928Y-73900000D01*
X61474188Y-74024482D01*
X61510498Y-74144180D01*
X61569463Y-74254494D01*
X61648815Y-74351185D01*
X61745506Y-74430537D01*
X61855820Y-74489502D01*
X61975518Y-74525812D01*
X62100000Y-74538072D01*
X62345674Y-74538072D01*
X62365026Y-74574276D01*
X62427065Y-74649870D01*
X62460000Y-74690001D01*
X62488998Y-74713799D01*
X68240000Y-80464803D01*
X68240001Y-85315199D01*
X64309882Y-81385081D01*
X64351185Y-81351185D01*
X64430537Y-81254494D01*
X64489502Y-81144180D01*
X64495056Y-81125873D01*
X64561495Y-81192312D01*
X64812905Y-81360299D01*
X65092257Y-81476011D01*
X65388816Y-81535000D01*
X65691184Y-81535000D01*
X65987743Y-81476011D01*
X66267095Y-81360299D01*
X66518505Y-81192312D01*
X66732312Y-80978505D01*
X66900299Y-80727095D01*
X67016011Y-80447743D01*
X67075000Y-80151184D01*
X67075000Y-79848816D01*
X67016011Y-79552257D01*
X66900299Y-79272905D01*
X66732312Y-79021495D01*
X66518505Y-78807688D01*
X66267095Y-78639701D01*
X65987743Y-78523989D01*
X65691184Y-78465000D01*
X65388816Y-78465000D01*
X65092257Y-78523989D01*
X64812905Y-78639701D01*
X64561495Y-78807688D01*
X64495056Y-78874127D01*
X64489502Y-78855820D01*
X64430537Y-78745506D01*
X64351185Y-78648815D01*
X64254494Y-78569463D01*
X64144180Y-78510498D01*
X64024482Y-78474188D01*
X63900000Y-78461928D01*
X62100000Y-78461928D01*
X61975518Y-78474188D01*
X61855820Y-78510498D01*
X61745506Y-78569463D01*
X61648815Y-78648815D01*
X61569463Y-78745506D01*
X61510498Y-78855820D01*
X61474188Y-78975518D01*
X61461928Y-79100000D01*
X61461928Y-80900000D01*
X61474188Y-81024482D01*
X61510498Y-81144180D01*
X61569463Y-81254494D01*
X61648815Y-81351185D01*
X61745506Y-81430537D01*
X61855820Y-81489502D01*
X61975518Y-81525812D01*
X62100000Y-81538072D01*
X62345674Y-81538072D01*
X62365026Y-81574276D01*
X62420061Y-81641335D01*
X62460000Y-81690001D01*
X62488998Y-81713799D01*
X67240000Y-86464802D01*
X67240001Y-87662668D01*
X67236324Y-87700000D01*
X67250998Y-87848985D01*
X67294454Y-87992246D01*
X67365026Y-88124276D01*
X67436201Y-88211002D01*
X67460000Y-88240001D01*
X67488998Y-88263799D01*
X70599292Y-91374094D01*
X70585764Y-91418691D01*
X70558057Y-91700000D01*
X70585764Y-91981309D01*
X70667818Y-92251808D01*
X70801068Y-92501101D01*
X70980392Y-92719608D01*
X71198899Y-92898932D01*
X71331858Y-92970000D01*
X71198899Y-93041068D01*
X70980392Y-93220392D01*
X70801068Y-93438899D01*
X70779099Y-93480000D01*
X69404802Y-93480000D01*
X64309882Y-88385081D01*
X64351185Y-88351185D01*
X64430537Y-88254494D01*
X64489502Y-88144180D01*
X64495056Y-88125873D01*
X64561495Y-88192312D01*
X64812905Y-88360299D01*
X65092257Y-88476011D01*
X65388816Y-88535000D01*
X65691184Y-88535000D01*
X65987743Y-88476011D01*
X66267095Y-88360299D01*
X66518505Y-88192312D01*
X66732312Y-87978505D01*
X66900299Y-87727095D01*
X67016011Y-87447743D01*
X67075000Y-87151184D01*
X67075000Y-86848816D01*
X67016011Y-86552257D01*
X66900299Y-86272905D01*
X66732312Y-86021495D01*
X66518505Y-85807688D01*
X66267095Y-85639701D01*
X65987743Y-85523989D01*
X65691184Y-85465000D01*
X65388816Y-85465000D01*
X65092257Y-85523989D01*
X64812905Y-85639701D01*
X64561495Y-85807688D01*
X64495056Y-85874127D01*
X64489502Y-85855820D01*
X64430537Y-85745506D01*
X64351185Y-85648815D01*
X64254494Y-85569463D01*
X64144180Y-85510498D01*
X64024482Y-85474188D01*
X63900000Y-85461928D01*
X62100000Y-85461928D01*
X61975518Y-85474188D01*
X61855820Y-85510498D01*
X61745506Y-85569463D01*
X61648815Y-85648815D01*
X61569463Y-85745506D01*
X61510498Y-85855820D01*
X61474188Y-85975518D01*
X61461928Y-86100000D01*
X61461928Y-87900000D01*
X61474188Y-88024482D01*
X61510498Y-88144180D01*
X61569463Y-88254494D01*
X61648815Y-88351185D01*
X61745506Y-88430537D01*
X61855820Y-88489502D01*
X61975518Y-88525812D01*
X62100000Y-88538072D01*
X62345674Y-88538072D01*
X62365026Y-88574276D01*
X62426340Y-88648986D01*
X62460000Y-88690001D01*
X62488998Y-88713799D01*
X68526200Y-94751002D01*
X68549999Y-94780001D01*
X68578997Y-94803799D01*
X68665724Y-94874974D01*
X68797753Y-94945546D01*
X68941014Y-94989003D01*
X69090000Y-95003677D01*
X69127333Y-95000000D01*
X70779099Y-95000000D01*
X70801068Y-95041101D01*
X70980392Y-95259608D01*
X71198899Y-95438932D01*
X71331858Y-95510000D01*
X71198899Y-95581068D01*
X70980392Y-95760392D01*
X70801068Y-95978899D01*
X70779099Y-96020000D01*
X64944802Y-96020000D01*
X64309882Y-95385081D01*
X64351185Y-95351185D01*
X64430537Y-95254494D01*
X64489502Y-95144180D01*
X64495056Y-95125873D01*
X64561495Y-95192312D01*
X64812905Y-95360299D01*
X65092257Y-95476011D01*
X65388816Y-95535000D01*
X65691184Y-95535000D01*
X65987743Y-95476011D01*
X66267095Y-95360299D01*
X66518505Y-95192312D01*
X66732312Y-94978505D01*
X66900299Y-94727095D01*
X67016011Y-94447743D01*
X67075000Y-94151184D01*
X67075000Y-93848816D01*
X67016011Y-93552257D01*
X66900299Y-93272905D01*
X66732312Y-93021495D01*
X66518505Y-92807688D01*
X66267095Y-92639701D01*
X65987743Y-92523989D01*
X65691184Y-92465000D01*
X65388816Y-92465000D01*
X65092257Y-92523989D01*
X64812905Y-92639701D01*
X64561495Y-92807688D01*
X64495056Y-92874127D01*
X64489502Y-92855820D01*
X64430537Y-92745506D01*
X64351185Y-92648815D01*
X64254494Y-92569463D01*
X64144180Y-92510498D01*
X64024482Y-92474188D01*
X63900000Y-92461928D01*
X62100000Y-92461928D01*
X61975518Y-92474188D01*
X61855820Y-92510498D01*
X61745506Y-92569463D01*
X61648815Y-92648815D01*
X61569463Y-92745506D01*
X61510498Y-92855820D01*
X61474188Y-92975518D01*
X61461928Y-93100000D01*
X61461928Y-94900000D01*
X61474188Y-95024482D01*
X61510498Y-95144180D01*
X61569463Y-95254494D01*
X61648815Y-95351185D01*
X61745506Y-95430537D01*
X61855820Y-95489502D01*
X61975518Y-95525812D01*
X62100000Y-95538072D01*
X62345674Y-95538072D01*
X62365026Y-95574276D01*
X62430648Y-95654236D01*
X62460000Y-95690001D01*
X62488998Y-95713799D01*
X64066201Y-97291003D01*
X64089999Y-97320001D01*
X64118997Y-97343799D01*
X64205723Y-97414974D01*
X64337753Y-97485546D01*
X64481014Y-97529003D01*
X64592667Y-97540000D01*
X64592676Y-97540000D01*
X64629999Y-97543676D01*
X64667322Y-97540000D01*
X70779099Y-97540000D01*
X70801068Y-97581101D01*
X70980392Y-97799608D01*
X71198899Y-97978932D01*
X71448192Y-98112182D01*
X71718691Y-98194236D01*
X71929508Y-98215000D01*
X72070492Y-98215000D01*
X72281309Y-98194236D01*
X72551808Y-98112182D01*
X72801101Y-97978932D01*
X73019608Y-97799608D01*
X73198932Y-97581101D01*
X73332182Y-97331808D01*
X73414236Y-97061309D01*
X73441943Y-96780000D01*
X73414236Y-96498691D01*
X73332182Y-96228192D01*
X73198932Y-95978899D01*
X73019608Y-95760392D01*
X72801101Y-95581068D01*
X72668142Y-95510000D01*
X72801101Y-95438932D01*
X73019608Y-95259608D01*
X73198932Y-95041101D01*
X73332182Y-94791808D01*
X73414236Y-94521309D01*
X73441943Y-94240000D01*
X73414236Y-93958691D01*
X73332182Y-93688192D01*
X73198932Y-93438899D01*
X73019608Y-93220392D01*
X72801101Y-93041068D01*
X72668142Y-92970000D01*
X72801101Y-92898932D01*
X73019608Y-92719608D01*
X73198932Y-92501101D01*
X73332182Y-92251808D01*
X73414236Y-91981309D01*
X73441943Y-91700000D01*
X73414236Y-91418691D01*
X73332182Y-91148192D01*
X73198932Y-90898899D01*
X73019608Y-90680392D01*
X72801101Y-90501068D01*
X72668142Y-90430000D01*
X72801101Y-90358932D01*
X73019608Y-90179608D01*
X73198932Y-89961101D01*
X73332182Y-89711808D01*
X73414236Y-89441309D01*
X73441943Y-89160000D01*
X73414236Y-88878691D01*
X73332182Y-88608192D01*
X73198932Y-88358899D01*
X73019608Y-88140392D01*
X72801101Y-87961068D01*
X72668142Y-87890000D01*
X72801101Y-87818932D01*
X73019608Y-87639608D01*
X73198932Y-87421101D01*
X73332182Y-87171808D01*
X73414236Y-86901309D01*
X73441943Y-86620000D01*
X73414236Y-86338691D01*
X73400708Y-86294094D01*
X73439803Y-86254999D01*
X78231151Y-86254999D01*
X78205764Y-86338691D01*
X78178057Y-86620000D01*
X78205764Y-86901309D01*
X78287818Y-87171808D01*
X78421068Y-87421101D01*
X78600392Y-87639608D01*
X78818899Y-87818932D01*
X78951858Y-87890000D01*
X78818899Y-87961068D01*
X78600392Y-88140392D01*
X78421068Y-88358899D01*
X78287818Y-88608192D01*
X78205764Y-88878691D01*
X78178057Y-89160000D01*
X78205764Y-89441309D01*
X78287818Y-89711808D01*
X78421068Y-89961101D01*
X78600392Y-90179608D01*
X78818899Y-90358932D01*
X78951858Y-90430000D01*
X78818899Y-90501068D01*
X78600392Y-90680392D01*
X78421068Y-90898899D01*
X78287818Y-91148192D01*
X78205764Y-91418691D01*
X78178057Y-91700000D01*
X78205764Y-91981309D01*
X78287818Y-92251808D01*
X78421068Y-92501101D01*
X78600392Y-92719608D01*
X78818899Y-92898932D01*
X78951858Y-92970000D01*
X78818899Y-93041068D01*
X78600392Y-93220392D01*
X78421068Y-93438899D01*
X78287818Y-93688192D01*
X78205764Y-93958691D01*
X78178057Y-94240000D01*
X78205764Y-94521309D01*
X78287818Y-94791808D01*
X78421068Y-95041101D01*
X78600392Y-95259608D01*
X78818899Y-95438932D01*
X78951858Y-95510000D01*
X78818899Y-95581068D01*
X78600392Y-95760392D01*
X78421068Y-95978899D01*
X78287818Y-96228192D01*
X78205764Y-96498691D01*
X78178057Y-96780000D01*
X78205764Y-97061309D01*
X78219292Y-97105906D01*
X77085199Y-98240000D01*
X63887333Y-98240000D01*
X63850000Y-98236323D01*
X63812667Y-98240000D01*
X63701014Y-98250997D01*
X63557753Y-98294454D01*
X63425724Y-98365026D01*
X63309999Y-98459999D01*
X63286201Y-98488997D01*
X62488998Y-99286201D01*
X62460000Y-99309999D01*
X62436202Y-99338997D01*
X62436201Y-99338998D01*
X62365026Y-99425724D01*
X62345674Y-99461928D01*
X62100000Y-99461928D01*
X61975518Y-99474188D01*
X61855820Y-99510498D01*
X61745506Y-99569463D01*
X61648815Y-99648815D01*
X61569463Y-99745506D01*
X61510498Y-99855820D01*
X61474188Y-99975518D01*
X61461928Y-100100000D01*
X61461928Y-101900000D01*
X61474188Y-102024482D01*
X61510498Y-102144180D01*
X61569463Y-102254494D01*
X61648815Y-102351185D01*
X61745506Y-102430537D01*
X61855820Y-102489502D01*
X61975518Y-102525812D01*
X62100000Y-102538072D01*
X63900000Y-102538072D01*
X64024482Y-102525812D01*
X64144180Y-102489502D01*
X64254494Y-102430537D01*
X64351185Y-102351185D01*
X64430537Y-102254494D01*
X64489502Y-102144180D01*
X64495056Y-102125873D01*
X64561495Y-102192312D01*
X64812905Y-102360299D01*
X65092257Y-102476011D01*
X65388816Y-102535000D01*
X65691184Y-102535000D01*
X65987743Y-102476011D01*
X66267095Y-102360299D01*
X66518505Y-102192312D01*
X66732312Y-101978505D01*
X66900299Y-101727095D01*
X67016011Y-101447743D01*
X67075000Y-101151184D01*
X67075000Y-100848816D01*
X67016011Y-100552257D01*
X66900299Y-100272905D01*
X66732312Y-100021495D01*
X66518505Y-99807688D01*
X66447135Y-99760000D01*
X70892195Y-99760000D01*
X64142276Y-106509921D01*
X64024482Y-106474188D01*
X63900000Y-106461928D01*
X62100000Y-106461928D01*
X61975518Y-106474188D01*
X61855820Y-106510498D01*
X61745506Y-106569463D01*
X61648815Y-106648815D01*
X61569463Y-106745506D01*
X61510498Y-106855820D01*
X61474188Y-106975518D01*
X61461928Y-107100000D01*
X61461928Y-108900000D01*
X61474188Y-109024482D01*
X61510498Y-109144180D01*
X61569463Y-109254494D01*
X61648815Y-109351185D01*
X61745506Y-109430537D01*
X61855820Y-109489502D01*
X61975518Y-109525812D01*
X62100000Y-109538072D01*
X63900000Y-109538072D01*
X64024482Y-109525812D01*
X64144180Y-109489502D01*
X64254494Y-109430537D01*
X64351185Y-109351185D01*
X64430537Y-109254494D01*
X64489502Y-109144180D01*
X64495056Y-109125873D01*
X64561495Y-109192312D01*
X64812905Y-109360299D01*
X65092257Y-109476011D01*
X65388816Y-109535000D01*
X65691184Y-109535000D01*
X65987743Y-109476011D01*
X66267095Y-109360299D01*
X66518505Y-109192312D01*
X66732312Y-108978505D01*
X66900299Y-108727095D01*
X67016011Y-108447743D01*
X67075000Y-108151184D01*
X67075000Y-107848816D01*
X67016011Y-107552257D01*
X66900299Y-107272905D01*
X66732312Y-107021495D01*
X66518505Y-106807688D01*
X66267095Y-106639701D01*
X66192851Y-106608948D01*
X72041801Y-100760000D01*
X78801608Y-100760000D01*
X73321609Y-106240000D01*
X71037322Y-106240000D01*
X70999999Y-106236324D01*
X70962676Y-106240000D01*
X70962667Y-106240000D01*
X70851014Y-106250997D01*
X70707753Y-106294454D01*
X70575724Y-106365026D01*
X70575722Y-106365027D01*
X70575723Y-106365027D01*
X70488996Y-106436201D01*
X70488992Y-106436205D01*
X70459999Y-106459999D01*
X70436205Y-106488992D01*
X63463271Y-113461928D01*
X62100000Y-113461928D01*
X61975518Y-113474188D01*
X61855820Y-113510498D01*
X61745506Y-113569463D01*
X61648815Y-113648815D01*
X61569463Y-113745506D01*
X61510498Y-113855820D01*
X61474188Y-113975518D01*
X61461928Y-114100000D01*
X61461928Y-115900000D01*
X61474188Y-116024482D01*
X61510498Y-116144180D01*
X61569463Y-116254494D01*
X61648815Y-116351185D01*
X61745506Y-116430537D01*
X61855820Y-116489502D01*
X61975518Y-116525812D01*
X62100000Y-116538072D01*
X63900000Y-116538072D01*
X64024482Y-116525812D01*
X64144180Y-116489502D01*
X64254494Y-116430537D01*
X64351185Y-116351185D01*
X64430537Y-116254494D01*
X64489502Y-116144180D01*
X64495056Y-116125873D01*
X64561495Y-116192312D01*
X64812905Y-116360299D01*
X65092257Y-116476011D01*
X65388816Y-116535000D01*
X65691184Y-116535000D01*
X65987743Y-116476011D01*
X66267095Y-116360299D01*
X66518505Y-116192312D01*
X66732312Y-115978505D01*
X66900299Y-115727095D01*
X67016011Y-115447743D01*
X67075000Y-115151184D01*
X67075000Y-114848816D01*
X67016011Y-114552257D01*
X66900299Y-114272905D01*
X66732312Y-114021495D01*
X66518505Y-113807688D01*
X66267095Y-113639701D01*
X65987743Y-113523989D01*
X65691184Y-113465000D01*
X65609802Y-113465000D01*
X71314803Y-107760000D01*
X73599088Y-107760000D01*
X73636410Y-107763676D01*
X73673732Y-107760000D01*
X73673743Y-107760000D01*
X73785396Y-107749003D01*
X73928657Y-107705546D01*
X74060686Y-107634974D01*
X74176411Y-107540001D01*
X74200214Y-107510997D01*
X75313150Y-106398061D01*
X75965000Y-106398061D01*
X75965000Y-106601939D01*
X76004774Y-106801898D01*
X76082795Y-106990256D01*
X76196063Y-107159774D01*
X76340226Y-107303937D01*
X76509744Y-107417205D01*
X76698102Y-107495226D01*
X76898061Y-107535000D01*
X77101939Y-107535000D01*
X77301898Y-107495226D01*
X77490256Y-107417205D01*
X77659774Y-107303937D01*
X77703711Y-107260000D01*
X81256289Y-107260000D01*
X81340226Y-107343937D01*
X81509744Y-107457205D01*
X81698102Y-107535226D01*
X81898061Y-107575000D01*
X82101939Y-107575000D01*
X82301898Y-107535226D01*
X82490256Y-107457205D01*
X82659774Y-107343937D01*
X82803937Y-107199774D01*
X82917205Y-107030256D01*
X82995226Y-106841898D01*
X83035000Y-106641939D01*
X83035000Y-106438061D01*
X82995226Y-106238102D01*
X82917205Y-106049744D01*
X82803937Y-105880226D01*
X82659774Y-105736063D01*
X82490256Y-105622795D01*
X82301898Y-105544774D01*
X82101939Y-105505000D01*
X81898061Y-105505000D01*
X81698102Y-105544774D01*
X81509744Y-105622795D01*
X81340226Y-105736063D01*
X81336289Y-105740000D01*
X77703711Y-105740000D01*
X77659774Y-105696063D01*
X77490256Y-105582795D01*
X77301898Y-105504774D01*
X77101939Y-105465000D01*
X76898061Y-105465000D01*
X76698102Y-105504774D01*
X76509744Y-105582795D01*
X76340226Y-105696063D01*
X76196063Y-105840226D01*
X76082795Y-106009744D01*
X76004774Y-106198102D01*
X75965000Y-106398061D01*
X75313150Y-106398061D01*
X76511211Y-105200000D01*
X86061928Y-105200000D01*
X86061928Y-106800000D01*
X86074188Y-106924482D01*
X86110498Y-107044180D01*
X86169463Y-107154494D01*
X86248815Y-107251185D01*
X86345506Y-107330537D01*
X86455820Y-107389502D01*
X86575518Y-107425812D01*
X86700000Y-107438072D01*
X88300000Y-107438072D01*
X88424482Y-107425812D01*
X88544180Y-107389502D01*
X88654494Y-107330537D01*
X88751185Y-107251185D01*
X88830537Y-107154494D01*
X88889502Y-107044180D01*
X88905117Y-106992702D01*
X89186903Y-106992702D01*
X89258486Y-107236671D01*
X89513996Y-107357571D01*
X89788184Y-107426300D01*
X90070512Y-107440217D01*
X90350130Y-107398787D01*
X90616292Y-107303603D01*
X90741514Y-107236671D01*
X90813097Y-106992702D01*
X90000000Y-106179605D01*
X89186903Y-106992702D01*
X88905117Y-106992702D01*
X88925812Y-106924482D01*
X88938072Y-106800000D01*
X88938072Y-106792785D01*
X89007298Y-106813097D01*
X89820395Y-106000000D01*
X90179605Y-106000000D01*
X90992702Y-106813097D01*
X91236671Y-106741514D01*
X91357571Y-106486004D01*
X91426300Y-106211816D01*
X91440217Y-105929488D01*
X91398787Y-105649870D01*
X91303603Y-105383708D01*
X91236671Y-105258486D01*
X90992702Y-105186903D01*
X90179605Y-106000000D01*
X89820395Y-106000000D01*
X89007298Y-105186903D01*
X88938072Y-105207215D01*
X88938072Y-105200000D01*
X88925812Y-105075518D01*
X88905118Y-105007298D01*
X89186903Y-105007298D01*
X90000000Y-105820395D01*
X90813097Y-105007298D01*
X90741514Y-104763329D01*
X90486004Y-104642429D01*
X90211816Y-104573700D01*
X89929488Y-104559783D01*
X89649870Y-104601213D01*
X89383708Y-104696397D01*
X89258486Y-104763329D01*
X89186903Y-105007298D01*
X88905118Y-105007298D01*
X88889502Y-104955820D01*
X88830537Y-104845506D01*
X88751185Y-104748815D01*
X88654494Y-104669463D01*
X88544180Y-104610498D01*
X88424482Y-104574188D01*
X88300000Y-104561928D01*
X86700000Y-104561928D01*
X86575518Y-104574188D01*
X86455820Y-104610498D01*
X86345506Y-104669463D01*
X86248815Y-104748815D01*
X86169463Y-104845506D01*
X86110498Y-104955820D01*
X86074188Y-105075518D01*
X86061928Y-105200000D01*
X76511211Y-105200000D01*
X83511003Y-98200209D01*
X83540001Y-98176411D01*
X83566332Y-98144327D01*
X83634974Y-98060687D01*
X83658384Y-98016890D01*
X87518524Y-98016890D01*
X87563175Y-98164099D01*
X87688359Y-98426920D01*
X87862412Y-98660269D01*
X88078645Y-98855178D01*
X88328748Y-99004157D01*
X88603109Y-99101481D01*
X88833000Y-98980814D01*
X88833000Y-97787000D01*
X87639845Y-97787000D01*
X87518524Y-98016890D01*
X83658384Y-98016890D01*
X83705546Y-97928657D01*
X83749003Y-97785396D01*
X83760000Y-97673743D01*
X83760000Y-97673733D01*
X83763676Y-97636410D01*
X83760000Y-97599087D01*
X83760000Y-93037322D01*
X83763676Y-92999999D01*
X83760000Y-92962676D01*
X83760000Y-92962667D01*
X83749003Y-92851014D01*
X83705546Y-92707753D01*
X83634974Y-92575724D01*
X83540001Y-92459999D01*
X83510998Y-92436197D01*
X83083841Y-92009040D01*
X83608091Y-92009040D01*
X83702930Y-92273881D01*
X83847615Y-92515131D01*
X84036586Y-92723519D01*
X84262580Y-92891037D01*
X84516913Y-93011246D01*
X84650961Y-93051904D01*
X84873000Y-92929915D01*
X84873000Y-91787000D01*
X85127000Y-91787000D01*
X85127000Y-92929915D01*
X85349039Y-93051904D01*
X85483087Y-93011246D01*
X85737420Y-92891037D01*
X85963414Y-92723519D01*
X86152385Y-92515131D01*
X86297070Y-92273881D01*
X86391909Y-92009040D01*
X86270624Y-91787000D01*
X85127000Y-91787000D01*
X84873000Y-91787000D01*
X83729376Y-91787000D01*
X83608091Y-92009040D01*
X83083841Y-92009040D01*
X83063803Y-91989002D01*
X83040000Y-91959998D01*
X82924275Y-91865025D01*
X82792246Y-91794453D01*
X82648985Y-91750996D01*
X82537332Y-91739999D01*
X82537321Y-91739999D01*
X82499999Y-91736323D01*
X82462677Y-91739999D01*
X81058003Y-91739999D01*
X81061943Y-91700000D01*
X81034236Y-91418691D01*
X81001557Y-91310960D01*
X83608091Y-91310960D01*
X83729376Y-91533000D01*
X84873000Y-91533000D01*
X84873000Y-90390085D01*
X85127000Y-90390085D01*
X85127000Y-91533000D01*
X86270624Y-91533000D01*
X86391909Y-91310960D01*
X86297070Y-91046119D01*
X86152385Y-90804869D01*
X85963414Y-90596481D01*
X85737420Y-90428963D01*
X85483087Y-90308754D01*
X85349039Y-90268096D01*
X85127000Y-90390085D01*
X84873000Y-90390085D01*
X84650961Y-90268096D01*
X84516913Y-90308754D01*
X84262580Y-90428963D01*
X84036586Y-90596481D01*
X83847615Y-90804869D01*
X83702930Y-91046119D01*
X83608091Y-91310960D01*
X81001557Y-91310960D01*
X80952182Y-91148192D01*
X80818932Y-90898899D01*
X80639608Y-90680392D01*
X80421101Y-90501068D01*
X80288142Y-90430000D01*
X80421101Y-90358932D01*
X80639608Y-90179608D01*
X80818932Y-89961101D01*
X80952182Y-89711808D01*
X81034236Y-89441309D01*
X81061943Y-89160000D01*
X81034236Y-88878691D01*
X80952182Y-88608192D01*
X80818932Y-88358899D01*
X80639608Y-88140392D01*
X80421101Y-87961068D01*
X80288142Y-87890000D01*
X80421101Y-87818932D01*
X80639608Y-87639608D01*
X80818932Y-87421101D01*
X80840901Y-87380000D01*
X83305199Y-87380000D01*
X87704277Y-91779080D01*
X87581401Y-92008966D01*
X87496487Y-92288889D01*
X87467815Y-92580000D01*
X87496487Y-92871111D01*
X87581401Y-93151034D01*
X87719294Y-93409014D01*
X87904866Y-93635134D01*
X88130986Y-93820706D01*
X88185791Y-93850000D01*
X88130986Y-93879294D01*
X87904866Y-94064866D01*
X87719294Y-94290986D01*
X87581401Y-94548966D01*
X87496487Y-94828889D01*
X87467815Y-95120000D01*
X87496487Y-95411111D01*
X87581401Y-95691034D01*
X87719294Y-95949014D01*
X87904866Y-96175134D01*
X88130986Y-96360706D01*
X88195523Y-96395201D01*
X88078645Y-96464822D01*
X87862412Y-96659731D01*
X87688359Y-96893080D01*
X87563175Y-97155901D01*
X87518524Y-97303110D01*
X87639845Y-97533000D01*
X88833000Y-97533000D01*
X88833000Y-97513000D01*
X89087000Y-97513000D01*
X89087000Y-97533000D01*
X89107000Y-97533000D01*
X89107000Y-97787000D01*
X89087000Y-97787000D01*
X89087000Y-98980814D01*
X89316891Y-99101481D01*
X89591252Y-99004157D01*
X89841355Y-98855178D01*
X90057588Y-98660269D01*
X90228416Y-98431244D01*
X90259294Y-98489014D01*
X90444866Y-98715134D01*
X90670986Y-98900706D01*
X90928966Y-99038599D01*
X91208889Y-99123513D01*
X91427050Y-99145000D01*
X91572950Y-99145000D01*
X91791111Y-99123513D01*
X92071034Y-99038599D01*
X92329014Y-98900706D01*
X92555134Y-98715134D01*
X92740706Y-98489014D01*
X92878599Y-98231034D01*
X92963513Y-97951111D01*
X92992185Y-97660000D01*
X92963513Y-97368889D01*
X92878599Y-97088966D01*
X92740706Y-96830986D01*
X92555134Y-96604866D01*
X92329014Y-96419294D01*
X92274209Y-96390000D01*
X92329014Y-96360706D01*
X92555134Y-96175134D01*
X92740706Y-95949014D01*
X92878599Y-95691034D01*
X92963513Y-95411111D01*
X92992185Y-95120000D01*
X92963513Y-94828889D01*
X92878599Y-94548966D01*
X92740706Y-94290986D01*
X92555134Y-94064866D01*
X92329014Y-93879294D01*
X92274209Y-93850000D01*
X92329014Y-93820706D01*
X92555134Y-93635134D01*
X92740706Y-93409014D01*
X92878599Y-93151034D01*
X92963513Y-92871111D01*
X92992185Y-92580000D01*
X92963513Y-92288889D01*
X92878599Y-92008966D01*
X92740706Y-91750986D01*
X92555134Y-91524866D01*
X92329014Y-91339294D01*
X92274209Y-91310000D01*
X92329014Y-91280706D01*
X92555134Y-91095134D01*
X92740706Y-90869014D01*
X92828482Y-90704797D01*
X92884276Y-90674974D01*
X93000001Y-90580001D01*
X93023804Y-90550997D01*
X94315000Y-89259802D01*
X94315001Y-169315000D01*
X60685000Y-169315000D01*
X60685000Y-165779872D01*
X61765000Y-165779872D01*
X61765000Y-166220128D01*
X61850890Y-166651925D01*
X62019369Y-167058669D01*
X62263962Y-167424729D01*
X62575271Y-167736038D01*
X62941331Y-167980631D01*
X63348075Y-168149110D01*
X63779872Y-168235000D01*
X64220128Y-168235000D01*
X64651925Y-168149110D01*
X65058669Y-167980631D01*
X65424729Y-167736038D01*
X65736038Y-167424729D01*
X65980631Y-167058669D01*
X66149110Y-166651925D01*
X66211361Y-166338967D01*
X73565000Y-166338967D01*
X73565000Y-166661033D01*
X73627832Y-166976912D01*
X73751082Y-167274463D01*
X73930013Y-167542252D01*
X74157748Y-167769987D01*
X74425537Y-167948918D01*
X74723088Y-168072168D01*
X75038967Y-168135000D01*
X75361033Y-168135000D01*
X75676912Y-168072168D01*
X75974463Y-167948918D01*
X76242252Y-167769987D01*
X76376826Y-167635413D01*
X76744192Y-167635413D01*
X76839956Y-167899814D01*
X77129571Y-168040704D01*
X77441108Y-168122384D01*
X77762595Y-168141718D01*
X78081675Y-168097961D01*
X78386088Y-167992795D01*
X78560044Y-167899814D01*
X78655808Y-167635413D01*
X77700000Y-166679605D01*
X76744192Y-167635413D01*
X76376826Y-167635413D01*
X76469987Y-167542252D01*
X76534925Y-167445065D01*
X76564587Y-167455808D01*
X77520395Y-166500000D01*
X77879605Y-166500000D01*
X78835413Y-167455808D01*
X78865075Y-167445065D01*
X78930013Y-167542252D01*
X79157748Y-167769987D01*
X79425537Y-167948918D01*
X79723088Y-168072168D01*
X80038967Y-168135000D01*
X80361033Y-168135000D01*
X80676912Y-168072168D01*
X80974463Y-167948918D01*
X81242252Y-167769987D01*
X81469987Y-167542252D01*
X81648918Y-167274463D01*
X81772168Y-166976912D01*
X81835000Y-166661033D01*
X81835000Y-166338967D01*
X81772168Y-166023088D01*
X81671425Y-165779872D01*
X88765000Y-165779872D01*
X88765000Y-166220128D01*
X88850890Y-166651925D01*
X89019369Y-167058669D01*
X89263962Y-167424729D01*
X89575271Y-167736038D01*
X89941331Y-167980631D01*
X90348075Y-168149110D01*
X90779872Y-168235000D01*
X91220128Y-168235000D01*
X91651925Y-168149110D01*
X92058669Y-167980631D01*
X92424729Y-167736038D01*
X92736038Y-167424729D01*
X92980631Y-167058669D01*
X93149110Y-166651925D01*
X93235000Y-166220128D01*
X93235000Y-165779872D01*
X93149110Y-165348075D01*
X92980631Y-164941331D01*
X92736038Y-164575271D01*
X92424729Y-164263962D01*
X92058669Y-164019369D01*
X91651925Y-163850890D01*
X91220128Y-163765000D01*
X90779872Y-163765000D01*
X90348075Y-163850890D01*
X89941331Y-164019369D01*
X89575271Y-164263962D01*
X89263962Y-164575271D01*
X89019369Y-164941331D01*
X88850890Y-165348075D01*
X88765000Y-165779872D01*
X81671425Y-165779872D01*
X81648918Y-165725537D01*
X81469987Y-165457748D01*
X81242252Y-165230013D01*
X80974463Y-165051082D01*
X80676912Y-164927832D01*
X80361033Y-164865000D01*
X80038967Y-164865000D01*
X79723088Y-164927832D01*
X79425537Y-165051082D01*
X79157748Y-165230013D01*
X78930013Y-165457748D01*
X78865075Y-165554935D01*
X78835413Y-165544192D01*
X77879605Y-166500000D01*
X77520395Y-166500000D01*
X76564587Y-165544192D01*
X76534925Y-165554935D01*
X76469987Y-165457748D01*
X76376826Y-165364587D01*
X76744192Y-165364587D01*
X77700000Y-166320395D01*
X78655808Y-165364587D01*
X78560044Y-165100186D01*
X78270429Y-164959296D01*
X77958892Y-164877616D01*
X77637405Y-164858282D01*
X77318325Y-164902039D01*
X77013912Y-165007205D01*
X76839956Y-165100186D01*
X76744192Y-165364587D01*
X76376826Y-165364587D01*
X76242252Y-165230013D01*
X75974463Y-165051082D01*
X75676912Y-164927832D01*
X75361033Y-164865000D01*
X75038967Y-164865000D01*
X74723088Y-164927832D01*
X74425537Y-165051082D01*
X74157748Y-165230013D01*
X73930013Y-165457748D01*
X73751082Y-165725537D01*
X73627832Y-166023088D01*
X73565000Y-166338967D01*
X66211361Y-166338967D01*
X66235000Y-166220128D01*
X66235000Y-165779872D01*
X66149110Y-165348075D01*
X65980631Y-164941331D01*
X65736038Y-164575271D01*
X65424729Y-164263962D01*
X65058669Y-164019369D01*
X64651925Y-163850890D01*
X64220128Y-163765000D01*
X63779872Y-163765000D01*
X63348075Y-163850890D01*
X62941331Y-164019369D01*
X62575271Y-164263962D01*
X62263962Y-164575271D01*
X62019369Y-164941331D01*
X61850890Y-165348075D01*
X61765000Y-165779872D01*
X60685000Y-165779872D01*
X60685000Y-157858665D01*
X62565000Y-157858665D01*
X62565000Y-158141335D01*
X62620147Y-158418574D01*
X62728320Y-158679727D01*
X62885363Y-158914759D01*
X63085241Y-159114637D01*
X63320273Y-159271680D01*
X63581426Y-159379853D01*
X63858665Y-159435000D01*
X64141335Y-159435000D01*
X64418574Y-159379853D01*
X64679727Y-159271680D01*
X64914759Y-159114637D01*
X65036694Y-158992702D01*
X65686903Y-158992702D01*
X65758486Y-159236671D01*
X66013996Y-159357571D01*
X66288184Y-159426300D01*
X66570512Y-159440217D01*
X66850130Y-159398787D01*
X67116292Y-159303603D01*
X67241514Y-159236671D01*
X67313097Y-158992702D01*
X66500000Y-158179605D01*
X65686903Y-158992702D01*
X65036694Y-158992702D01*
X65114637Y-158914759D01*
X65248692Y-158714131D01*
X65263329Y-158741514D01*
X65507298Y-158813097D01*
X66320395Y-158000000D01*
X66679605Y-158000000D01*
X67492702Y-158813097D01*
X67736671Y-158741514D01*
X67857571Y-158486004D01*
X67926300Y-158211816D01*
X67940217Y-157929488D01*
X67898787Y-157649870D01*
X67803603Y-157383708D01*
X67736671Y-157258486D01*
X67537340Y-157200000D01*
X69961928Y-157200000D01*
X69961928Y-160800000D01*
X69974188Y-160924482D01*
X70010498Y-161044180D01*
X70069463Y-161154494D01*
X70148815Y-161251185D01*
X70245506Y-161330537D01*
X70355820Y-161389502D01*
X70475518Y-161425812D01*
X70600000Y-161438072D01*
X73400000Y-161438072D01*
X73524482Y-161425812D01*
X73644180Y-161389502D01*
X73754494Y-161330537D01*
X73851185Y-161251185D01*
X73930537Y-161154494D01*
X73989502Y-161044180D01*
X74025812Y-160924482D01*
X74038072Y-160800000D01*
X74038072Y-157200000D01*
X81361928Y-157200000D01*
X81361928Y-160800000D01*
X81374188Y-160924482D01*
X81410498Y-161044180D01*
X81469463Y-161154494D01*
X81548815Y-161251185D01*
X81645506Y-161330537D01*
X81755820Y-161389502D01*
X81875518Y-161425812D01*
X82000000Y-161438072D01*
X84800000Y-161438072D01*
X84924482Y-161425812D01*
X85044180Y-161389502D01*
X85154494Y-161330537D01*
X85251185Y-161251185D01*
X85330537Y-161154494D01*
X85389502Y-161044180D01*
X85425812Y-160924482D01*
X85438072Y-160800000D01*
X85438072Y-157200000D01*
X85425812Y-157075518D01*
X85389502Y-156955820D01*
X85337571Y-156858665D01*
X87565000Y-156858665D01*
X87565000Y-157141335D01*
X87620147Y-157418574D01*
X87728320Y-157679727D01*
X87885363Y-157914759D01*
X88085241Y-158114637D01*
X88320273Y-158271680D01*
X88581426Y-158379853D01*
X88706070Y-158404647D01*
X88707753Y-158405546D01*
X88851014Y-158449003D01*
X89000000Y-158463677D01*
X89148985Y-158449003D01*
X89292246Y-158405546D01*
X89293928Y-158404647D01*
X89418574Y-158379853D01*
X89679727Y-158271680D01*
X89914759Y-158114637D01*
X90036694Y-157992702D01*
X90686903Y-157992702D01*
X90758486Y-158236671D01*
X91013996Y-158357571D01*
X91288184Y-158426300D01*
X91570512Y-158440217D01*
X91850130Y-158398787D01*
X92116292Y-158303603D01*
X92241514Y-158236671D01*
X92313097Y-157992702D01*
X91500000Y-157179605D01*
X90686903Y-157992702D01*
X90036694Y-157992702D01*
X90114637Y-157914759D01*
X90248692Y-157714131D01*
X90263329Y-157741514D01*
X90507298Y-157813097D01*
X91320395Y-157000000D01*
X91679605Y-157000000D01*
X92492702Y-157813097D01*
X92736671Y-157741514D01*
X92857571Y-157486004D01*
X92926300Y-157211816D01*
X92940217Y-156929488D01*
X92898787Y-156649870D01*
X92803603Y-156383708D01*
X92736671Y-156258486D01*
X92492702Y-156186903D01*
X91679605Y-157000000D01*
X91320395Y-157000000D01*
X90507298Y-156186903D01*
X90263329Y-156258486D01*
X90249676Y-156287341D01*
X90114637Y-156085241D01*
X90036694Y-156007298D01*
X90686903Y-156007298D01*
X91500000Y-156820395D01*
X92313097Y-156007298D01*
X92241514Y-155763329D01*
X91986004Y-155642429D01*
X91711816Y-155573700D01*
X91429488Y-155559783D01*
X91149870Y-155601213D01*
X90883708Y-155696397D01*
X90758486Y-155763329D01*
X90686903Y-156007298D01*
X90036694Y-156007298D01*
X89914759Y-155885363D01*
X89679727Y-155728320D01*
X89418574Y-155620147D01*
X89141335Y-155565000D01*
X88858665Y-155565000D01*
X88581426Y-155620147D01*
X88320273Y-155728320D01*
X88085241Y-155885363D01*
X87885363Y-156085241D01*
X87728320Y-156320273D01*
X87620147Y-156581426D01*
X87565000Y-156858665D01*
X85337571Y-156858665D01*
X85330537Y-156845506D01*
X85251185Y-156748815D01*
X85154494Y-156669463D01*
X85044180Y-156610498D01*
X84924482Y-156574188D01*
X84800000Y-156561928D01*
X82000000Y-156561928D01*
X81875518Y-156574188D01*
X81755820Y-156610498D01*
X81645506Y-156669463D01*
X81548815Y-156748815D01*
X81469463Y-156845506D01*
X81410498Y-156955820D01*
X81374188Y-157075518D01*
X81361928Y-157200000D01*
X74038072Y-157200000D01*
X74025812Y-157075518D01*
X73989502Y-156955820D01*
X73930537Y-156845506D01*
X73851185Y-156748815D01*
X73754494Y-156669463D01*
X73644180Y-156610498D01*
X73524482Y-156574188D01*
X73400000Y-156561928D01*
X70600000Y-156561928D01*
X70475518Y-156574188D01*
X70355820Y-156610498D01*
X70245506Y-156669463D01*
X70148815Y-156748815D01*
X70069463Y-156845506D01*
X70010498Y-156955820D01*
X69974188Y-157075518D01*
X69961928Y-157200000D01*
X67537340Y-157200000D01*
X67492702Y-157186903D01*
X66679605Y-158000000D01*
X66320395Y-158000000D01*
X65507298Y-157186903D01*
X65263329Y-157258486D01*
X65249676Y-157287341D01*
X65114637Y-157085241D01*
X65036694Y-157007298D01*
X65686903Y-157007298D01*
X66500000Y-157820395D01*
X67313097Y-157007298D01*
X67241514Y-156763329D01*
X66986004Y-156642429D01*
X66711816Y-156573700D01*
X66429488Y-156559783D01*
X66149870Y-156601213D01*
X65883708Y-156696397D01*
X65758486Y-156763329D01*
X65686903Y-157007298D01*
X65036694Y-157007298D01*
X64914759Y-156885363D01*
X64679727Y-156728320D01*
X64418574Y-156620147D01*
X64141335Y-156565000D01*
X63858665Y-156565000D01*
X63581426Y-156620147D01*
X63320273Y-156728320D01*
X63085241Y-156885363D01*
X62885363Y-157085241D01*
X62728320Y-157320273D01*
X62620147Y-157581426D01*
X62565000Y-157858665D01*
X60685000Y-157858665D01*
X60685000Y-128100000D01*
X61461928Y-128100000D01*
X61461928Y-129900000D01*
X61474188Y-130024482D01*
X61510498Y-130144180D01*
X61569463Y-130254494D01*
X61648815Y-130351185D01*
X61745506Y-130430537D01*
X61855820Y-130489502D01*
X61975518Y-130525812D01*
X62100000Y-130538072D01*
X63900000Y-130538072D01*
X64024482Y-130525812D01*
X64144180Y-130489502D01*
X64254494Y-130430537D01*
X64351185Y-130351185D01*
X64430537Y-130254494D01*
X64489502Y-130144180D01*
X64495056Y-130125873D01*
X64561495Y-130192312D01*
X64812905Y-130360299D01*
X65092257Y-130476011D01*
X65388816Y-130535000D01*
X65691184Y-130535000D01*
X65987743Y-130476011D01*
X66267095Y-130360299D01*
X66518505Y-130192312D01*
X66732312Y-129978505D01*
X66900299Y-129727095D01*
X67016011Y-129447743D01*
X67075000Y-129151184D01*
X67075000Y-128848816D01*
X67016011Y-128552257D01*
X66900299Y-128272905D01*
X66732312Y-128021495D01*
X66518505Y-127807688D01*
X66267095Y-127639701D01*
X65987743Y-127523989D01*
X65691184Y-127465000D01*
X65388816Y-127465000D01*
X65092257Y-127523989D01*
X64812905Y-127639701D01*
X64561495Y-127807688D01*
X64495056Y-127874127D01*
X64489502Y-127855820D01*
X64430537Y-127745506D01*
X64351185Y-127648815D01*
X64309882Y-127614919D01*
X67004802Y-124920000D01*
X70779099Y-124920000D01*
X70801068Y-124961101D01*
X70980392Y-125179608D01*
X71198899Y-125358932D01*
X71331858Y-125430000D01*
X71198899Y-125501068D01*
X70980392Y-125680392D01*
X70801068Y-125898899D01*
X70701758Y-126084694D01*
X70609999Y-126159999D01*
X70586201Y-126188997D01*
X62488998Y-134286201D01*
X62460000Y-134309999D01*
X62436202Y-134338997D01*
X62436201Y-134338998D01*
X62365026Y-134425724D01*
X62345674Y-134461928D01*
X62100000Y-134461928D01*
X61975518Y-134474188D01*
X61855820Y-134510498D01*
X61745506Y-134569463D01*
X61648815Y-134648815D01*
X61569463Y-134745506D01*
X61510498Y-134855820D01*
X61474188Y-134975518D01*
X61461928Y-135100000D01*
X61461928Y-136900000D01*
X61474188Y-137024482D01*
X61510498Y-137144180D01*
X61569463Y-137254494D01*
X61648815Y-137351185D01*
X61745506Y-137430537D01*
X61855820Y-137489502D01*
X61975518Y-137525812D01*
X62100000Y-137538072D01*
X63900000Y-137538072D01*
X64024482Y-137525812D01*
X64144180Y-137489502D01*
X64254494Y-137430537D01*
X64351185Y-137351185D01*
X64430537Y-137254494D01*
X64489502Y-137144180D01*
X64495056Y-137125873D01*
X64561495Y-137192312D01*
X64812905Y-137360299D01*
X65092257Y-137476011D01*
X65388816Y-137535000D01*
X65691184Y-137535000D01*
X65987743Y-137476011D01*
X66267095Y-137360299D01*
X66518505Y-137192312D01*
X66732312Y-136978505D01*
X66900299Y-136727095D01*
X67016011Y-136447743D01*
X67075000Y-136151184D01*
X67075000Y-135848816D01*
X67016011Y-135552257D01*
X66900299Y-135272905D01*
X66732312Y-135021495D01*
X66518505Y-134807688D01*
X66267095Y-134639701D01*
X65987743Y-134523989D01*
X65691184Y-134465000D01*
X65388816Y-134465000D01*
X65092257Y-134523989D01*
X64812905Y-134639701D01*
X64561495Y-134807688D01*
X64495056Y-134874127D01*
X64489502Y-134855820D01*
X64430537Y-134745506D01*
X64351185Y-134648815D01*
X64309882Y-134614919D01*
X71103864Y-127820938D01*
X71198899Y-127898932D01*
X71331858Y-127970000D01*
X71198899Y-128041068D01*
X70980392Y-128220392D01*
X70801068Y-128438899D01*
X70667818Y-128688192D01*
X70585764Y-128958691D01*
X70558057Y-129240000D01*
X70585764Y-129521309D01*
X70599292Y-129565905D01*
X67988998Y-132176201D01*
X67960000Y-132199999D01*
X67936202Y-132228997D01*
X67936201Y-132228998D01*
X67865026Y-132315724D01*
X67794454Y-132447754D01*
X67750998Y-132591015D01*
X67736324Y-132740000D01*
X67740001Y-132777332D01*
X67740000Y-136035198D01*
X62488998Y-141286201D01*
X62460000Y-141309999D01*
X62436202Y-141338997D01*
X62436201Y-141338998D01*
X62365026Y-141425724D01*
X62345674Y-141461928D01*
X62100000Y-141461928D01*
X61975518Y-141474188D01*
X61855820Y-141510498D01*
X61745506Y-141569463D01*
X61648815Y-141648815D01*
X61569463Y-141745506D01*
X61510498Y-141855820D01*
X61474188Y-141975518D01*
X61461928Y-142100000D01*
X61461928Y-143900000D01*
X61474188Y-144024482D01*
X61510498Y-144144180D01*
X61569463Y-144254494D01*
X61648815Y-144351185D01*
X61745506Y-144430537D01*
X61855820Y-144489502D01*
X61975518Y-144525812D01*
X62100000Y-144538072D01*
X63900000Y-144538072D01*
X64024482Y-144525812D01*
X64144180Y-144489502D01*
X64254494Y-144430537D01*
X64351185Y-144351185D01*
X64430537Y-144254494D01*
X64489502Y-144144180D01*
X64495056Y-144125873D01*
X64561495Y-144192312D01*
X64812905Y-144360299D01*
X64887149Y-144391052D01*
X62488998Y-146789203D01*
X62460000Y-146813001D01*
X62436202Y-146841999D01*
X62436201Y-146842000D01*
X62365026Y-146928726D01*
X62294454Y-147060756D01*
X62250998Y-147204017D01*
X62236324Y-147353002D01*
X62240001Y-147390334D01*
X62240001Y-148461928D01*
X62100000Y-148461928D01*
X61975518Y-148474188D01*
X61855820Y-148510498D01*
X61745506Y-148569463D01*
X61648815Y-148648815D01*
X61569463Y-148745506D01*
X61510498Y-148855820D01*
X61474188Y-148975518D01*
X61461928Y-149100000D01*
X61461928Y-150900000D01*
X61474188Y-151024482D01*
X61510498Y-151144180D01*
X61569463Y-151254494D01*
X61648815Y-151351185D01*
X61745506Y-151430537D01*
X61855820Y-151489502D01*
X61975518Y-151525812D01*
X62100000Y-151538072D01*
X63900000Y-151538072D01*
X64024482Y-151525812D01*
X64144180Y-151489502D01*
X64254494Y-151430537D01*
X64351185Y-151351185D01*
X64430537Y-151254494D01*
X64489502Y-151144180D01*
X64495056Y-151125873D01*
X64561495Y-151192312D01*
X64812905Y-151360299D01*
X65092257Y-151476011D01*
X65388816Y-151535000D01*
X65691184Y-151535000D01*
X65948930Y-151483731D01*
X66976201Y-152511003D01*
X66999999Y-152540001D01*
X67028997Y-152563799D01*
X67115723Y-152634974D01*
X67247753Y-152705546D01*
X67391014Y-152749003D01*
X67502667Y-152760000D01*
X67502676Y-152760000D01*
X67539999Y-152763676D01*
X67577322Y-152760000D01*
X73745091Y-152760000D01*
X73751082Y-152774463D01*
X73930013Y-153042252D01*
X74157748Y-153269987D01*
X74425537Y-153448918D01*
X74723088Y-153572168D01*
X75038967Y-153635000D01*
X75361033Y-153635000D01*
X75676912Y-153572168D01*
X75974463Y-153448918D01*
X76242252Y-153269987D01*
X76469987Y-153042252D01*
X76648918Y-152774463D01*
X76772168Y-152476912D01*
X76835000Y-152161033D01*
X76835000Y-151838967D01*
X78565000Y-151838967D01*
X78565000Y-152161033D01*
X78627832Y-152476912D01*
X78751082Y-152774463D01*
X78930013Y-153042252D01*
X79157748Y-153269987D01*
X79425537Y-153448918D01*
X79723088Y-153572168D01*
X80038967Y-153635000D01*
X80361033Y-153635000D01*
X80676912Y-153572168D01*
X80974463Y-153448918D01*
X81242252Y-153269987D01*
X81469987Y-153042252D01*
X81648918Y-152774463D01*
X81772168Y-152476912D01*
X81835000Y-152161033D01*
X81835000Y-151838967D01*
X81772168Y-151523088D01*
X81648918Y-151225537D01*
X81469987Y-150957748D01*
X81242252Y-150730013D01*
X80974463Y-150551082D01*
X80676912Y-150427832D01*
X80361033Y-150365000D01*
X80038967Y-150365000D01*
X79723088Y-150427832D01*
X79425537Y-150551082D01*
X79157748Y-150730013D01*
X78930013Y-150957748D01*
X78751082Y-151225537D01*
X78627832Y-151523088D01*
X78565000Y-151838967D01*
X76835000Y-151838967D01*
X76772168Y-151523088D01*
X76648918Y-151225537D01*
X76469987Y-150957748D01*
X76242252Y-150730013D01*
X75974463Y-150551082D01*
X75676912Y-150427832D01*
X75361033Y-150365000D01*
X75038967Y-150365000D01*
X74723088Y-150427832D01*
X74425537Y-150551082D01*
X74157748Y-150730013D01*
X73930013Y-150957748D01*
X73751082Y-151225537D01*
X73745091Y-151240000D01*
X67854802Y-151240000D01*
X67023731Y-150408930D01*
X67075000Y-150151184D01*
X67075000Y-149848816D01*
X67016011Y-149552257D01*
X66900299Y-149272905D01*
X66732312Y-149021495D01*
X66518505Y-148807688D01*
X66267095Y-148639701D01*
X65987743Y-148523989D01*
X65691184Y-148465000D01*
X65388816Y-148465000D01*
X65092257Y-148523989D01*
X64812905Y-148639701D01*
X64561495Y-148807688D01*
X64495056Y-148874127D01*
X64489502Y-148855820D01*
X64430537Y-148745506D01*
X64351185Y-148648815D01*
X64254494Y-148569463D01*
X64144180Y-148510498D01*
X64024482Y-148474188D01*
X63900000Y-148461928D01*
X63760000Y-148461928D01*
X63760000Y-147667803D01*
X64267803Y-147160000D01*
X69558057Y-147160000D01*
X69585764Y-147441309D01*
X69667818Y-147711808D01*
X69801068Y-147961101D01*
X69980392Y-148179608D01*
X70198899Y-148358932D01*
X70448192Y-148492182D01*
X70718691Y-148574236D01*
X70929508Y-148595000D01*
X71070492Y-148595000D01*
X71281309Y-148574236D01*
X71551808Y-148492182D01*
X71801101Y-148358932D01*
X72019608Y-148179608D01*
X72198932Y-147961101D01*
X72220901Y-147920000D01*
X74779099Y-147920000D01*
X74801068Y-147961101D01*
X74980392Y-148179608D01*
X75198899Y-148358932D01*
X75448192Y-148492182D01*
X75718691Y-148574236D01*
X75929508Y-148595000D01*
X76070492Y-148595000D01*
X76281309Y-148574236D01*
X76551808Y-148492182D01*
X76801101Y-148358932D01*
X77019608Y-148179608D01*
X77198932Y-147961101D01*
X77332182Y-147711808D01*
X77414236Y-147441309D01*
X77441943Y-147160000D01*
X82558057Y-147160000D01*
X82585764Y-147441309D01*
X82667818Y-147711808D01*
X82801068Y-147961101D01*
X82980392Y-148179608D01*
X83198899Y-148358932D01*
X83448192Y-148492182D01*
X83718691Y-148574236D01*
X83929508Y-148595000D01*
X84070492Y-148595000D01*
X84281309Y-148574236D01*
X84551808Y-148492182D01*
X84801101Y-148358932D01*
X85019608Y-148179608D01*
X85198932Y-147961101D01*
X85220901Y-147920000D01*
X87779099Y-147920000D01*
X87801068Y-147961101D01*
X87980392Y-148179608D01*
X88198899Y-148358932D01*
X88448192Y-148492182D01*
X88718691Y-148574236D01*
X88929508Y-148595000D01*
X89070492Y-148595000D01*
X89281309Y-148574236D01*
X89551808Y-148492182D01*
X89801101Y-148358932D01*
X90019608Y-148179608D01*
X90198932Y-147961101D01*
X90332182Y-147711808D01*
X90414236Y-147441309D01*
X90441943Y-147160000D01*
X90414236Y-146878691D01*
X90332182Y-146608192D01*
X90198932Y-146358899D01*
X90019608Y-146140392D01*
X89801101Y-145961068D01*
X89551808Y-145827818D01*
X89281309Y-145745764D01*
X89070492Y-145725000D01*
X88929508Y-145725000D01*
X88718691Y-145745764D01*
X88448192Y-145827818D01*
X88198899Y-145961068D01*
X87980392Y-146140392D01*
X87801068Y-146358899D01*
X87779099Y-146400000D01*
X85220901Y-146400000D01*
X85198932Y-146358899D01*
X85019608Y-146140392D01*
X84801101Y-145961068D01*
X84551808Y-145827818D01*
X84281309Y-145745764D01*
X84070492Y-145725000D01*
X83929508Y-145725000D01*
X83718691Y-145745764D01*
X83448192Y-145827818D01*
X83198899Y-145961068D01*
X82980392Y-146140392D01*
X82801068Y-146358899D01*
X82667818Y-146608192D01*
X82585764Y-146878691D01*
X82558057Y-147160000D01*
X77441943Y-147160000D01*
X77414236Y-146878691D01*
X77332182Y-146608192D01*
X77198932Y-146358899D01*
X77019608Y-146140392D01*
X76801101Y-145961068D01*
X76551808Y-145827818D01*
X76281309Y-145745764D01*
X76070492Y-145725000D01*
X75929508Y-145725000D01*
X75718691Y-145745764D01*
X75448192Y-145827818D01*
X75198899Y-145961068D01*
X74980392Y-146140392D01*
X74801068Y-146358899D01*
X74779099Y-146400000D01*
X72220901Y-146400000D01*
X72198932Y-146358899D01*
X72019608Y-146140392D01*
X71801101Y-145961068D01*
X71551808Y-145827818D01*
X71281309Y-145745764D01*
X71070492Y-145725000D01*
X70929508Y-145725000D01*
X70718691Y-145745764D01*
X70448192Y-145827818D01*
X70198899Y-145961068D01*
X69980392Y-146140392D01*
X69801068Y-146358899D01*
X69667818Y-146608192D01*
X69585764Y-146878691D01*
X69558057Y-147160000D01*
X64267803Y-147160000D01*
X70011004Y-141416800D01*
X70040001Y-141393003D01*
X70108121Y-141309999D01*
X70134974Y-141277279D01*
X70205546Y-141145249D01*
X70218969Y-141100997D01*
X70249003Y-141001988D01*
X70260000Y-140890335D01*
X70260000Y-140890326D01*
X70263676Y-140853003D01*
X70260000Y-140815680D01*
X70260000Y-138231407D01*
X70320273Y-138271680D01*
X70581426Y-138379853D01*
X70858665Y-138435000D01*
X71141335Y-138435000D01*
X71418574Y-138379853D01*
X71679727Y-138271680D01*
X71914759Y-138114637D01*
X72114637Y-137914759D01*
X72271680Y-137679727D01*
X72379853Y-137418574D01*
X72435000Y-137141335D01*
X72435000Y-136858665D01*
X74565000Y-136858665D01*
X74565000Y-137141335D01*
X74620147Y-137418574D01*
X74728320Y-137679727D01*
X74885363Y-137914759D01*
X75085241Y-138114637D01*
X75320273Y-138271680D01*
X75581426Y-138379853D01*
X75858665Y-138435000D01*
X76141335Y-138435000D01*
X76418574Y-138379853D01*
X76679727Y-138271680D01*
X76914759Y-138114637D01*
X77114637Y-137914759D01*
X77271680Y-137679727D01*
X77379853Y-137418574D01*
X77435000Y-137141335D01*
X77435000Y-136858665D01*
X82565000Y-136858665D01*
X82565000Y-137141335D01*
X82620147Y-137418574D01*
X82728320Y-137679727D01*
X82885363Y-137914759D01*
X83085241Y-138114637D01*
X83320273Y-138271680D01*
X83581426Y-138379853D01*
X83858665Y-138435000D01*
X84141335Y-138435000D01*
X84418574Y-138379853D01*
X84679727Y-138271680D01*
X84914759Y-138114637D01*
X85114637Y-137914759D01*
X85271680Y-137679727D01*
X85379853Y-137418574D01*
X85435000Y-137141335D01*
X85435000Y-136858665D01*
X87565000Y-136858665D01*
X87565000Y-137141335D01*
X87620147Y-137418574D01*
X87728320Y-137679727D01*
X87885363Y-137914759D01*
X88085241Y-138114637D01*
X88320273Y-138271680D01*
X88581426Y-138379853D01*
X88858665Y-138435000D01*
X89141335Y-138435000D01*
X89418574Y-138379853D01*
X89679727Y-138271680D01*
X89914759Y-138114637D01*
X90114637Y-137914759D01*
X90271680Y-137679727D01*
X90379853Y-137418574D01*
X90435000Y-137141335D01*
X90435000Y-136858665D01*
X90379853Y-136581426D01*
X90271680Y-136320273D01*
X90114637Y-136085241D01*
X89914759Y-135885363D01*
X89679727Y-135728320D01*
X89418574Y-135620147D01*
X89141335Y-135565000D01*
X88858665Y-135565000D01*
X88581426Y-135620147D01*
X88320273Y-135728320D01*
X88085241Y-135885363D01*
X87885363Y-136085241D01*
X87728320Y-136320273D01*
X87620147Y-136581426D01*
X87565000Y-136858665D01*
X85435000Y-136858665D01*
X85379853Y-136581426D01*
X85271680Y-136320273D01*
X85114637Y-136085241D01*
X84914759Y-135885363D01*
X84679727Y-135728320D01*
X84418574Y-135620147D01*
X84141335Y-135565000D01*
X83858665Y-135565000D01*
X83581426Y-135620147D01*
X83320273Y-135728320D01*
X83085241Y-135885363D01*
X82885363Y-136085241D01*
X82728320Y-136320273D01*
X82620147Y-136581426D01*
X82565000Y-136858665D01*
X77435000Y-136858665D01*
X77379853Y-136581426D01*
X77271680Y-136320273D01*
X77114637Y-136085241D01*
X76914759Y-135885363D01*
X76679727Y-135728320D01*
X76418574Y-135620147D01*
X76141335Y-135565000D01*
X75858665Y-135565000D01*
X75581426Y-135620147D01*
X75320273Y-135728320D01*
X75085241Y-135885363D01*
X74885363Y-136085241D01*
X74728320Y-136320273D01*
X74620147Y-136581426D01*
X74565000Y-136858665D01*
X72435000Y-136858665D01*
X72379853Y-136581426D01*
X72271680Y-136320273D01*
X72114637Y-136085241D01*
X71914759Y-135885363D01*
X71679727Y-135728320D01*
X71418574Y-135620147D01*
X71141335Y-135565000D01*
X70858665Y-135565000D01*
X70581426Y-135620147D01*
X70320273Y-135728320D01*
X70260000Y-135768593D01*
X70260000Y-134594801D01*
X71674094Y-133180708D01*
X71718691Y-133194236D01*
X71929508Y-133215000D01*
X72070492Y-133215000D01*
X72281309Y-133194236D01*
X72551808Y-133112182D01*
X72801101Y-132978932D01*
X73019608Y-132799608D01*
X73198932Y-132581101D01*
X73332182Y-132331808D01*
X73414236Y-132061309D01*
X73441943Y-131780000D01*
X73414236Y-131498691D01*
X73332182Y-131228192D01*
X73198932Y-130978899D01*
X73019608Y-130760392D01*
X72801101Y-130581068D01*
X72668142Y-130510000D01*
X72801101Y-130438932D01*
X73019608Y-130259608D01*
X73198932Y-130041101D01*
X73332182Y-129791808D01*
X73414236Y-129521309D01*
X73441943Y-129240000D01*
X73414236Y-128958691D01*
X73332182Y-128688192D01*
X73198932Y-128438899D01*
X73019608Y-128220392D01*
X72801101Y-128041068D01*
X72668142Y-127970000D01*
X72801101Y-127898932D01*
X73019608Y-127719608D01*
X73198932Y-127501101D01*
X73332182Y-127251808D01*
X73414236Y-126981309D01*
X73441943Y-126700000D01*
X73414236Y-126418691D01*
X73332182Y-126148192D01*
X73198932Y-125898899D01*
X73019608Y-125680392D01*
X72801101Y-125501068D01*
X72668142Y-125430000D01*
X72801101Y-125358932D01*
X73019608Y-125179608D01*
X73198932Y-124961101D01*
X73332182Y-124711808D01*
X73414236Y-124441309D01*
X73441943Y-124160000D01*
X73414236Y-123878691D01*
X73332182Y-123608192D01*
X73198932Y-123358899D01*
X73019608Y-123140392D01*
X72801101Y-122961068D01*
X72668142Y-122890000D01*
X72801101Y-122818932D01*
X73019608Y-122639608D01*
X73198932Y-122421101D01*
X73332182Y-122171808D01*
X73414236Y-121901309D01*
X73441943Y-121620000D01*
X73414236Y-121338691D01*
X73332182Y-121068192D01*
X73198932Y-120818899D01*
X73019608Y-120600392D01*
X72801101Y-120421068D01*
X72668142Y-120350000D01*
X72801101Y-120278932D01*
X73019608Y-120099608D01*
X73198932Y-119881101D01*
X73332182Y-119631808D01*
X73414236Y-119361309D01*
X73441943Y-119080000D01*
X73414236Y-118798691D01*
X73332182Y-118528192D01*
X73198932Y-118278899D01*
X73019608Y-118060392D01*
X72801101Y-117881068D01*
X72668142Y-117810000D01*
X72801101Y-117738932D01*
X73019608Y-117559608D01*
X73198932Y-117341101D01*
X73332182Y-117091808D01*
X73414236Y-116821309D01*
X73441943Y-116540000D01*
X73414236Y-116258691D01*
X73332182Y-115988192D01*
X73198932Y-115738899D01*
X73019608Y-115520392D01*
X72906518Y-115427581D01*
X72924482Y-115425812D01*
X73044180Y-115389502D01*
X73154494Y-115330537D01*
X73251185Y-115251185D01*
X73330537Y-115154494D01*
X73389502Y-115044180D01*
X73425812Y-114924482D01*
X73438072Y-114800000D01*
X73435000Y-114285750D01*
X73276250Y-114127000D01*
X72127000Y-114127000D01*
X72127000Y-114147000D01*
X71873000Y-114147000D01*
X71873000Y-114127000D01*
X70723750Y-114127000D01*
X70565000Y-114285750D01*
X70561928Y-114800000D01*
X70574188Y-114924482D01*
X70610498Y-115044180D01*
X70669463Y-115154494D01*
X70748815Y-115251185D01*
X70845506Y-115330537D01*
X70955820Y-115389502D01*
X71075518Y-115425812D01*
X71093482Y-115427581D01*
X70980392Y-115520392D01*
X70801068Y-115738899D01*
X70667818Y-115988192D01*
X70585764Y-116258691D01*
X70558057Y-116540000D01*
X70585764Y-116821309D01*
X70667818Y-117091808D01*
X70801068Y-117341101D01*
X70980392Y-117559608D01*
X71198899Y-117738932D01*
X71331858Y-117810000D01*
X71198899Y-117881068D01*
X70980392Y-118060392D01*
X70801068Y-118278899D01*
X70779099Y-118320000D01*
X69783711Y-118320000D01*
X69659774Y-118196063D01*
X69490256Y-118082795D01*
X69301898Y-118004774D01*
X69101939Y-117965000D01*
X68898061Y-117965000D01*
X68698102Y-118004774D01*
X68509744Y-118082795D01*
X68340226Y-118196063D01*
X68196063Y-118340226D01*
X68082795Y-118509744D01*
X68004774Y-118698102D01*
X67965000Y-118898061D01*
X67965000Y-119101939D01*
X68004774Y-119301898D01*
X68082795Y-119490256D01*
X68196063Y-119659774D01*
X68340226Y-119803937D01*
X68509744Y-119917205D01*
X68698102Y-119995226D01*
X68898061Y-120035000D01*
X69101939Y-120035000D01*
X69301898Y-119995226D01*
X69490256Y-119917205D01*
X69605802Y-119840000D01*
X70779099Y-119840000D01*
X70801068Y-119881101D01*
X70980392Y-120099608D01*
X71198899Y-120278932D01*
X71331858Y-120350000D01*
X71198899Y-120421068D01*
X70980392Y-120600392D01*
X70801068Y-120818899D01*
X70667818Y-121068192D01*
X70585764Y-121338691D01*
X70558057Y-121620000D01*
X70585764Y-121901309D01*
X70667818Y-122171808D01*
X70801068Y-122421101D01*
X70980392Y-122639608D01*
X71198899Y-122818932D01*
X71331858Y-122890000D01*
X71198899Y-122961068D01*
X70980392Y-123140392D01*
X70801068Y-123358899D01*
X70779099Y-123400000D01*
X66727322Y-123400000D01*
X66689999Y-123396324D01*
X66652676Y-123400000D01*
X66652667Y-123400000D01*
X66541014Y-123410997D01*
X66397753Y-123454454D01*
X66265723Y-123525026D01*
X66249827Y-123538072D01*
X66149999Y-123619999D01*
X66126201Y-123648997D01*
X62488998Y-127286201D01*
X62460000Y-127309999D01*
X62436202Y-127338997D01*
X62436201Y-127338998D01*
X62365026Y-127425724D01*
X62345674Y-127461928D01*
X62100000Y-127461928D01*
X61975518Y-127474188D01*
X61855820Y-127510498D01*
X61745506Y-127569463D01*
X61648815Y-127648815D01*
X61569463Y-127745506D01*
X61510498Y-127855820D01*
X61474188Y-127975518D01*
X61461928Y-128100000D01*
X60685000Y-128100000D01*
X60685000Y-121100000D01*
X61461928Y-121100000D01*
X61461928Y-122900000D01*
X61474188Y-123024482D01*
X61510498Y-123144180D01*
X61569463Y-123254494D01*
X61648815Y-123351185D01*
X61745506Y-123430537D01*
X61855820Y-123489502D01*
X61975518Y-123525812D01*
X62100000Y-123538072D01*
X63900000Y-123538072D01*
X64024482Y-123525812D01*
X64144180Y-123489502D01*
X64254494Y-123430537D01*
X64351185Y-123351185D01*
X64430537Y-123254494D01*
X64489502Y-123144180D01*
X64495056Y-123125873D01*
X64561495Y-123192312D01*
X64812905Y-123360299D01*
X65092257Y-123476011D01*
X65388816Y-123535000D01*
X65691184Y-123535000D01*
X65987743Y-123476011D01*
X66267095Y-123360299D01*
X66518505Y-123192312D01*
X66732312Y-122978505D01*
X66900299Y-122727095D01*
X67016011Y-122447743D01*
X67075000Y-122151184D01*
X67075000Y-121848816D01*
X67016011Y-121552257D01*
X66900299Y-121272905D01*
X66732312Y-121021495D01*
X66518505Y-120807688D01*
X66267095Y-120639701D01*
X65987743Y-120523989D01*
X65691184Y-120465000D01*
X65388816Y-120465000D01*
X65092257Y-120523989D01*
X64812905Y-120639701D01*
X64561495Y-120807688D01*
X64495056Y-120874127D01*
X64489502Y-120855820D01*
X64430537Y-120745506D01*
X64351185Y-120648815D01*
X64309882Y-120614919D01*
X68511004Y-116413798D01*
X68540001Y-116390001D01*
X68634974Y-116274276D01*
X68705546Y-116142247D01*
X68749003Y-115998986D01*
X68760000Y-115887333D01*
X68760000Y-115887323D01*
X68763676Y-115850000D01*
X68760000Y-115812677D01*
X68760000Y-113314801D01*
X68874801Y-113200000D01*
X70561928Y-113200000D01*
X70565000Y-113714250D01*
X70723750Y-113873000D01*
X71873000Y-113873000D01*
X71873000Y-112723750D01*
X72127000Y-112723750D01*
X72127000Y-113873000D01*
X73276250Y-113873000D01*
X73435000Y-113714250D01*
X73438072Y-113200000D01*
X73425812Y-113075518D01*
X73389502Y-112955820D01*
X73330537Y-112845506D01*
X73251185Y-112748815D01*
X73154494Y-112669463D01*
X73044180Y-112610498D01*
X72924482Y-112574188D01*
X72800000Y-112561928D01*
X72285750Y-112565000D01*
X72127000Y-112723750D01*
X71873000Y-112723750D01*
X71714250Y-112565000D01*
X71200000Y-112561928D01*
X71075518Y-112574188D01*
X70955820Y-112610498D01*
X70845506Y-112669463D01*
X70748815Y-112748815D01*
X70669463Y-112845506D01*
X70610498Y-112955820D01*
X70574188Y-113075518D01*
X70561928Y-113200000D01*
X68874801Y-113200000D01*
X70176740Y-111898061D01*
X76965000Y-111898061D01*
X76965000Y-112101939D01*
X77004774Y-112301898D01*
X77082795Y-112490256D01*
X77196063Y-112659774D01*
X77340226Y-112803937D01*
X77509744Y-112917205D01*
X77698102Y-112995226D01*
X77898061Y-113035000D01*
X78101939Y-113035000D01*
X78301898Y-112995226D01*
X78490256Y-112917205D01*
X78659774Y-112803937D01*
X78703711Y-112760000D01*
X78895732Y-112760000D01*
X78818899Y-112801068D01*
X78600392Y-112980392D01*
X78421068Y-113198899D01*
X78287818Y-113448192D01*
X78205764Y-113718691D01*
X78178057Y-114000000D01*
X78205764Y-114281309D01*
X78287818Y-114551808D01*
X78421068Y-114801101D01*
X78600392Y-115019608D01*
X78818899Y-115198932D01*
X78951858Y-115270000D01*
X78818899Y-115341068D01*
X78600392Y-115520392D01*
X78421068Y-115738899D01*
X78287818Y-115988192D01*
X78205764Y-116258691D01*
X78178057Y-116540000D01*
X78205764Y-116821309D01*
X78287818Y-117091808D01*
X78421068Y-117341101D01*
X78600392Y-117559608D01*
X78818899Y-117738932D01*
X78951858Y-117810000D01*
X78818899Y-117881068D01*
X78600392Y-118060392D01*
X78421068Y-118278899D01*
X78287818Y-118528192D01*
X78205764Y-118798691D01*
X78178057Y-119080000D01*
X78205764Y-119361309D01*
X78287818Y-119631808D01*
X78421068Y-119881101D01*
X78600392Y-120099608D01*
X78818899Y-120278932D01*
X78951858Y-120350000D01*
X78818899Y-120421068D01*
X78600392Y-120600392D01*
X78421068Y-120818899D01*
X78287818Y-121068192D01*
X78205764Y-121338691D01*
X78178057Y-121620000D01*
X78205764Y-121901309D01*
X78287818Y-122171808D01*
X78421068Y-122421101D01*
X78600392Y-122639608D01*
X78818899Y-122818932D01*
X78951858Y-122890000D01*
X78818899Y-122961068D01*
X78600392Y-123140392D01*
X78421068Y-123358899D01*
X78287818Y-123608192D01*
X78205764Y-123878691D01*
X78178057Y-124160000D01*
X78205764Y-124441309D01*
X78287818Y-124711808D01*
X78421068Y-124961101D01*
X78600392Y-125179608D01*
X78818899Y-125358932D01*
X78951858Y-125430000D01*
X78818899Y-125501068D01*
X78600392Y-125680392D01*
X78421068Y-125898899D01*
X78287818Y-126148192D01*
X78205764Y-126418691D01*
X78178057Y-126700000D01*
X78205764Y-126981309D01*
X78287818Y-127251808D01*
X78421068Y-127501101D01*
X78600392Y-127719608D01*
X78818899Y-127898932D01*
X78951858Y-127970000D01*
X78818899Y-128041068D01*
X78600392Y-128220392D01*
X78421068Y-128438899D01*
X78287818Y-128688192D01*
X78205764Y-128958691D01*
X78178057Y-129240000D01*
X78205764Y-129521309D01*
X78287818Y-129791808D01*
X78421068Y-130041101D01*
X78600392Y-130259608D01*
X78818899Y-130438932D01*
X78951858Y-130510000D01*
X78818899Y-130581068D01*
X78600392Y-130760392D01*
X78421068Y-130978899D01*
X78287818Y-131228192D01*
X78205764Y-131498691D01*
X78178057Y-131780000D01*
X78205764Y-132061309D01*
X78287818Y-132331808D01*
X78421068Y-132581101D01*
X78600392Y-132799608D01*
X78818899Y-132978932D01*
X79068192Y-133112182D01*
X79338691Y-133194236D01*
X79549508Y-133215000D01*
X79690492Y-133215000D01*
X79901309Y-133194236D01*
X80171808Y-133112182D01*
X80421101Y-132978932D01*
X80639608Y-132799608D01*
X80818932Y-132581101D01*
X80952182Y-132331808D01*
X81034236Y-132061309D01*
X81061943Y-131780000D01*
X81034236Y-131498691D01*
X80952182Y-131228192D01*
X80818932Y-130978899D01*
X80639608Y-130760392D01*
X80421101Y-130581068D01*
X80288142Y-130510000D01*
X80421101Y-130438932D01*
X80639608Y-130259608D01*
X80818932Y-130041101D01*
X80952182Y-129791808D01*
X81034236Y-129521309D01*
X81061943Y-129240000D01*
X81034236Y-128958691D01*
X80952182Y-128688192D01*
X80818932Y-128438899D01*
X80639608Y-128220392D01*
X80421101Y-128041068D01*
X80288142Y-127970000D01*
X80421101Y-127898932D01*
X80639608Y-127719608D01*
X80818932Y-127501101D01*
X80952182Y-127251808D01*
X81025823Y-127009040D01*
X83608091Y-127009040D01*
X83702930Y-127273881D01*
X83847615Y-127515131D01*
X84036586Y-127723519D01*
X84262580Y-127891037D01*
X84516913Y-128011246D01*
X84650961Y-128051904D01*
X84873000Y-127929915D01*
X84873000Y-126787000D01*
X85127000Y-126787000D01*
X85127000Y-127929915D01*
X85349039Y-128051904D01*
X85483087Y-128011246D01*
X85737420Y-127891037D01*
X85963414Y-127723519D01*
X86152385Y-127515131D01*
X86297070Y-127273881D01*
X86391909Y-127009040D01*
X86270624Y-126787000D01*
X85127000Y-126787000D01*
X84873000Y-126787000D01*
X83729376Y-126787000D01*
X83608091Y-127009040D01*
X81025823Y-127009040D01*
X81034236Y-126981309D01*
X81061943Y-126700000D01*
X81034236Y-126418691D01*
X81001557Y-126310960D01*
X83608091Y-126310960D01*
X83729376Y-126533000D01*
X84873000Y-126533000D01*
X84873000Y-125390085D01*
X85127000Y-125390085D01*
X85127000Y-126533000D01*
X86270624Y-126533000D01*
X86391909Y-126310960D01*
X86297070Y-126046119D01*
X86152385Y-125804869D01*
X85963414Y-125596481D01*
X85737420Y-125428963D01*
X85483087Y-125308754D01*
X85349039Y-125268096D01*
X85127000Y-125390085D01*
X84873000Y-125390085D01*
X84650961Y-125268096D01*
X84516913Y-125308754D01*
X84262580Y-125428963D01*
X84036586Y-125596481D01*
X83847615Y-125804869D01*
X83702930Y-126046119D01*
X83608091Y-126310960D01*
X81001557Y-126310960D01*
X80952182Y-126148192D01*
X80818932Y-125898899D01*
X80639608Y-125680392D01*
X80421101Y-125501068D01*
X80288142Y-125430000D01*
X80421101Y-125358932D01*
X80639608Y-125179608D01*
X80818932Y-124961101D01*
X80952182Y-124711808D01*
X81034236Y-124441309D01*
X81061943Y-124160000D01*
X81034236Y-123878691D01*
X80952182Y-123608192D01*
X80818932Y-123358899D01*
X80639608Y-123140392D01*
X80421101Y-122961068D01*
X80288142Y-122890000D01*
X80421101Y-122818932D01*
X80639608Y-122639608D01*
X80818932Y-122421101D01*
X80952182Y-122171808D01*
X81034236Y-121901309D01*
X81061943Y-121620000D01*
X81034236Y-121338691D01*
X80952182Y-121068192D01*
X80818932Y-120818899D01*
X80639608Y-120600392D01*
X80421101Y-120421068D01*
X80288142Y-120350000D01*
X80421101Y-120278932D01*
X80639608Y-120099608D01*
X80818932Y-119881101D01*
X80952182Y-119631808D01*
X81034236Y-119361309D01*
X81061943Y-119080000D01*
X81034236Y-118798691D01*
X81022499Y-118760000D01*
X81796289Y-118760000D01*
X81840226Y-118803937D01*
X82009744Y-118917205D01*
X82198102Y-118995226D01*
X82398061Y-119035000D01*
X82601939Y-119035000D01*
X82801898Y-118995226D01*
X82990256Y-118917205D01*
X83159774Y-118803937D01*
X83303937Y-118659774D01*
X83417205Y-118490256D01*
X83495226Y-118301898D01*
X83535000Y-118101939D01*
X83535000Y-117898061D01*
X83495226Y-117698102D01*
X83417205Y-117509744D01*
X83303937Y-117340226D01*
X83263711Y-117300000D01*
X83808684Y-117300000D01*
X83885363Y-117414759D01*
X84085241Y-117614637D01*
X84320273Y-117771680D01*
X84581426Y-117879853D01*
X84858665Y-117935000D01*
X85141335Y-117935000D01*
X85418574Y-117879853D01*
X85679727Y-117771680D01*
X85914759Y-117614637D01*
X86114637Y-117414759D01*
X86271680Y-117179727D01*
X86379853Y-116918574D01*
X86435000Y-116641335D01*
X86435000Y-116358665D01*
X86379853Y-116081426D01*
X86271680Y-115820273D01*
X86114637Y-115585241D01*
X85914759Y-115385363D01*
X85679727Y-115228320D01*
X85418574Y-115120147D01*
X85141335Y-115065000D01*
X84858665Y-115065000D01*
X84581426Y-115120147D01*
X84320273Y-115228320D01*
X84085241Y-115385363D01*
X83885363Y-115585241D01*
X83755229Y-115780000D01*
X80840901Y-115780000D01*
X80818932Y-115738899D01*
X80639608Y-115520392D01*
X80421101Y-115341068D01*
X80288142Y-115270000D01*
X80421101Y-115198932D01*
X80639608Y-115019608D01*
X80818932Y-114801101D01*
X80952182Y-114551808D01*
X81034236Y-114281309D01*
X81061943Y-114000000D01*
X81034236Y-113718691D01*
X80952182Y-113448192D01*
X80818932Y-113198899D01*
X80639608Y-112980392D01*
X80421101Y-112801068D01*
X80344268Y-112760000D01*
X83796289Y-112760000D01*
X83840226Y-112803937D01*
X84009744Y-112917205D01*
X84198102Y-112995226D01*
X84398061Y-113035000D01*
X84601939Y-113035000D01*
X84801898Y-112995226D01*
X84990256Y-112917205D01*
X85159774Y-112803937D01*
X85303937Y-112659774D01*
X85417205Y-112490256D01*
X85495226Y-112301898D01*
X85535000Y-112101939D01*
X85535000Y-111898061D01*
X85495226Y-111698102D01*
X85417205Y-111509744D01*
X85303937Y-111340226D01*
X85159774Y-111196063D01*
X84990256Y-111082795D01*
X84801898Y-111004774D01*
X84601939Y-110965000D01*
X84398061Y-110965000D01*
X84198102Y-111004774D01*
X84009744Y-111082795D01*
X83840226Y-111196063D01*
X83796289Y-111240000D01*
X78703711Y-111240000D01*
X78659774Y-111196063D01*
X78490256Y-111082795D01*
X78301898Y-111004774D01*
X78101939Y-110965000D01*
X77898061Y-110965000D01*
X77698102Y-111004774D01*
X77509744Y-111082795D01*
X77340226Y-111196063D01*
X77196063Y-111340226D01*
X77082795Y-111509744D01*
X77004774Y-111698102D01*
X76965000Y-111898061D01*
X70176740Y-111898061D01*
X71582099Y-110492702D01*
X73686903Y-110492702D01*
X73758486Y-110736671D01*
X74013996Y-110857571D01*
X74288184Y-110926300D01*
X74570512Y-110940217D01*
X74850130Y-110898787D01*
X75116292Y-110803603D01*
X75241514Y-110736671D01*
X75313097Y-110492702D01*
X74500000Y-109679605D01*
X73686903Y-110492702D01*
X71582099Y-110492702D01*
X72039802Y-110035000D01*
X72101939Y-110035000D01*
X72301898Y-109995226D01*
X72490256Y-109917205D01*
X72659774Y-109803937D01*
X72803937Y-109659774D01*
X72863579Y-109570512D01*
X73059783Y-109570512D01*
X73101213Y-109850130D01*
X73196397Y-110116292D01*
X73263329Y-110241514D01*
X73507298Y-110313097D01*
X74320395Y-109500000D01*
X74679605Y-109500000D01*
X75492702Y-110313097D01*
X75736671Y-110241514D01*
X75857571Y-109986004D01*
X75926300Y-109711816D01*
X75940217Y-109429488D01*
X75929724Y-109358665D01*
X78065000Y-109358665D01*
X78065000Y-109641335D01*
X78120147Y-109918574D01*
X78228320Y-110179727D01*
X78385363Y-110414759D01*
X78585241Y-110614637D01*
X78820273Y-110771680D01*
X79081426Y-110879853D01*
X79358665Y-110935000D01*
X79641335Y-110935000D01*
X79918574Y-110879853D01*
X80179727Y-110771680D01*
X80414759Y-110614637D01*
X80614637Y-110414759D01*
X80771680Y-110179727D01*
X80879853Y-109918574D01*
X80935000Y-109641335D01*
X80935000Y-109358665D01*
X80879853Y-109081426D01*
X80771680Y-108820273D01*
X80614637Y-108585241D01*
X80414759Y-108385363D01*
X80179727Y-108228320D01*
X79918574Y-108120147D01*
X79641335Y-108065000D01*
X79358665Y-108065000D01*
X79081426Y-108120147D01*
X78820273Y-108228320D01*
X78585241Y-108385363D01*
X78385363Y-108585241D01*
X78228320Y-108820273D01*
X78120147Y-109081426D01*
X78065000Y-109358665D01*
X75929724Y-109358665D01*
X75898787Y-109149870D01*
X75803603Y-108883708D01*
X75736671Y-108758486D01*
X75492702Y-108686903D01*
X74679605Y-109500000D01*
X74320395Y-109500000D01*
X73507298Y-108686903D01*
X73263329Y-108758486D01*
X73142429Y-109013996D01*
X73073700Y-109288184D01*
X73059783Y-109570512D01*
X72863579Y-109570512D01*
X72917205Y-109490256D01*
X72995226Y-109301898D01*
X73035000Y-109101939D01*
X73035000Y-108898061D01*
X72995226Y-108698102D01*
X72917205Y-108509744D01*
X72915571Y-108507298D01*
X73686903Y-108507298D01*
X74500000Y-109320395D01*
X75313097Y-108507298D01*
X75241514Y-108263329D01*
X74986004Y-108142429D01*
X74711816Y-108073700D01*
X74429488Y-108059783D01*
X74149870Y-108101213D01*
X73883708Y-108196397D01*
X73758486Y-108263329D01*
X73686903Y-108507298D01*
X72915571Y-108507298D01*
X72803937Y-108340226D01*
X72659774Y-108196063D01*
X72490256Y-108082795D01*
X72301898Y-108004774D01*
X72101939Y-107965000D01*
X71898061Y-107965000D01*
X71698102Y-108004774D01*
X71509744Y-108082795D01*
X71340226Y-108196063D01*
X71196063Y-108340226D01*
X71082795Y-108509744D01*
X71004774Y-108698102D01*
X70965000Y-108898061D01*
X70965000Y-108960198D01*
X67488998Y-112436201D01*
X67460000Y-112459999D01*
X67436202Y-112488997D01*
X67436201Y-112488998D01*
X67365026Y-112575724D01*
X67294454Y-112707754D01*
X67250998Y-112851015D01*
X67236324Y-113000000D01*
X67240001Y-113037332D01*
X67240000Y-115535198D01*
X62488998Y-120286201D01*
X62460000Y-120309999D01*
X62436202Y-120338997D01*
X62436201Y-120338998D01*
X62365026Y-120425724D01*
X62345674Y-120461928D01*
X62100000Y-120461928D01*
X61975518Y-120474188D01*
X61855820Y-120510498D01*
X61745506Y-120569463D01*
X61648815Y-120648815D01*
X61569463Y-120745506D01*
X61510498Y-120855820D01*
X61474188Y-120975518D01*
X61461928Y-121100000D01*
X60685000Y-121100000D01*
X60685000Y-63779872D01*
X61765000Y-63779872D01*
X61765000Y-64220128D01*
X61850890Y-64651925D01*
X62019369Y-65058669D01*
X62263962Y-65424729D01*
X62575271Y-65736038D01*
X62941331Y-65980631D01*
X63348075Y-66149110D01*
X63779872Y-66235000D01*
X64220128Y-66235000D01*
X64651925Y-66149110D01*
X65058669Y-65980631D01*
X65424729Y-65736038D01*
X65736038Y-65424729D01*
X65980631Y-65058669D01*
X66149110Y-64651925D01*
X66235000Y-64220128D01*
X66235000Y-63779872D01*
X88765000Y-63779872D01*
X88765000Y-64220128D01*
X88850890Y-64651925D01*
X89019369Y-65058669D01*
X89263962Y-65424729D01*
X89575271Y-65736038D01*
X89941331Y-65980631D01*
X90348075Y-66149110D01*
X90779872Y-66235000D01*
X91220128Y-66235000D01*
X91651925Y-66149110D01*
X92058669Y-65980631D01*
X92424729Y-65736038D01*
X92736038Y-65424729D01*
X92980631Y-65058669D01*
X93149110Y-64651925D01*
X93235000Y-64220128D01*
X93235000Y-63779872D01*
X93149110Y-63348075D01*
X92980631Y-62941331D01*
X92736038Y-62575271D01*
X92424729Y-62263962D01*
X92058669Y-62019369D01*
X91651925Y-61850890D01*
X91220128Y-61765000D01*
X90779872Y-61765000D01*
X90348075Y-61850890D01*
X89941331Y-62019369D01*
X89575271Y-62263962D01*
X89263962Y-62575271D01*
X89019369Y-62941331D01*
X88850890Y-63348075D01*
X88765000Y-63779872D01*
X66235000Y-63779872D01*
X66149110Y-63348075D01*
X65980631Y-62941331D01*
X65736038Y-62575271D01*
X65424729Y-62263962D01*
X65058669Y-62019369D01*
X64651925Y-61850890D01*
X64220128Y-61765000D01*
X63779872Y-61765000D01*
X63348075Y-61850890D01*
X62941331Y-62019369D01*
X62575271Y-62263962D01*
X62263962Y-62575271D01*
X62019369Y-62941331D01*
X61850890Y-63348075D01*
X61765000Y-63779872D01*
X60685000Y-63779872D01*
X60685000Y-60685000D01*
X94315000Y-60685000D01*
X94315000Y-85240198D01*
M02*
