M48
; DRILL file {KiCad (5.1.2)-1} date 6/3/2019 7:10:01 AM
; FORMAT={-:-/ absolute / inch / decimal}
; #@! TF.CreationDate,2019-06-03T07:10:01-07:00
; #@! TF.GenerationSoftware,Kicad,Pcbnew,(5.1.2)-1
; #@! TF.FileFunction,Plated,1,2,PTH
FMAT,2
INCH
T1C0.0157
T2C0.0315
T3C0.0354
T4C0.0394
T5C0.0709
%
G90
G05
T1
X2.7165Y-4.685
X2.8346Y-4.2913
X3.0315Y-4.1929
X3.0709Y-4.4094
X3.2283Y-4.1945
X3.248Y-4.6457
X3.3268Y-4.4094
X3.5039Y-3.0512
T2
X3.5039Y-5.3937
X3.5039Y-5.7937
X3.3465Y-3.2087
X3.3465Y-3.6087
X2.9331Y-4.311
X3.1299Y-4.311
X3.4646Y-4.1732
X3.6024Y-4.1732
X3.5039Y-6.1811
X3.6024Y-6.1811
X2.8346Y-3.1102
X2.8346Y-3.2102
X2.8346Y-3.3102
X2.8346Y-3.4102
X2.8346Y-3.5102
X2.8346Y-3.6102
X2.8346Y-3.7102
X2.8346Y-3.8102
X3.1346Y-3.1102
X3.1346Y-3.2102
X3.1346Y-3.3102
X3.1346Y-3.4102
X3.1346Y-3.5102
X3.1346Y-3.6102
X3.1346Y-3.7102
X3.1346Y-3.8102
X2.8346Y-2.9528
X3.0315Y-2.9528
X3.3465Y-4.5866
X3.3465Y-4.9866
X3.3071Y-5.3937
X3.3071Y-5.7937
X2.9921Y-5.3937
X2.9921Y-5.7937
X2.5197Y-6.2205
X2.6181Y-6.2205
X2.8346Y-4.4882
X2.8346Y-4.5882
X2.8346Y-4.6882
X2.8346Y-4.7882
X2.8346Y-4.8882
X2.8346Y-4.9882
X2.8346Y-5.0882
X2.8346Y-5.1882
X3.1346Y-4.4882
X3.1346Y-4.5882
X3.1346Y-4.6882
X3.1346Y-4.7882
X3.1346Y-4.8882
X3.1346Y-4.9882
X3.1346Y-5.0882
X3.1346Y-5.1882
X2.7953Y-5.3937
X2.7953Y-5.7937
T3
X2.4803Y-5.0787
X2.5803Y-5.0787
X2.4803Y-4.5276
X2.5803Y-4.5276
X2.4803Y-3.7008
X2.5803Y-3.7008
X2.4803Y-4.252
X2.5803Y-4.252
X2.4803Y-4.8031
X2.5803Y-4.8031
X2.4803Y-3.1496
X2.5803Y-3.1496
X2.4803Y-5.9055
X2.5803Y-5.9055
X2.4803Y-5.6299
X2.5803Y-5.6299
X2.4803Y-3.4252
X2.5803Y-3.4252
X2.4803Y-3.9764
X2.5803Y-3.9764
X2.4803Y-2.874
X2.5803Y-2.874
X2.4803Y-5.3543
X2.5803Y-5.3543
T4
X3.5024Y-3.4449
X3.5024Y-3.5449
X3.5024Y-3.6449
X3.5024Y-3.7449
X3.5024Y-3.8449
X3.6024Y-3.4449
X3.6024Y-3.5449
X3.6024Y-3.6449
X3.6024Y-3.7449
X3.6024Y-3.8449
X2.9606Y-5.9843
X2.9606Y-6.5551
X3.0591Y-6.5551
X3.1575Y-5.9843
X3.1575Y-6.5551
T5
G00X2.8346Y-6.2441
M15
G01X2.8346Y-6.2756
M16
G05
G00X3.2835Y-6.2441
M15
G01X3.2835Y-6.2756
M16
G05
T0
M30
