G04 #@! TF.GenerationSoftware,KiCad,Pcbnew,(5.1.2)-1*
G04 #@! TF.CreationDate,2019-06-03T07:10:03-07:00*
G04 #@! TF.ProjectId,selector,73656c65-6374-46f7-922e-6b696361645f,rev?*
G04 #@! TF.SameCoordinates,Original*
G04 #@! TF.FileFunction,Soldermask,Top*
G04 #@! TF.FilePolarity,Negative*
%FSLAX46Y46*%
G04 Gerber Fmt 4.6, Leading zero omitted, Abs format (unit mm)*
G04 Created by KiCad (PCBNEW (5.1.2)-1) date 2019-06-03 07:10:03*
%MOMM*%
%LPD*%
G04 APERTURE LIST*
%ADD10C,0.100000*%
G04 APERTURE END LIST*
D10*
G36*
X91375256Y-164391298D02*
G01*
X91481579Y-164412447D01*
X91782042Y-164536903D01*
X92052451Y-164717585D01*
X92282415Y-164947549D01*
X92463097Y-165217958D01*
X92575528Y-165489389D01*
X92587553Y-165518422D01*
X92651000Y-165837389D01*
X92651000Y-166162611D01*
X92644868Y-166193436D01*
X92587553Y-166481579D01*
X92463097Y-166782042D01*
X92282415Y-167052451D01*
X92052451Y-167282415D01*
X91782042Y-167463097D01*
X91481579Y-167587553D01*
X91375256Y-167608702D01*
X91162611Y-167651000D01*
X90837389Y-167651000D01*
X90624744Y-167608702D01*
X90518421Y-167587553D01*
X90217958Y-167463097D01*
X89947549Y-167282415D01*
X89717585Y-167052451D01*
X89536903Y-166782042D01*
X89412447Y-166481579D01*
X89355132Y-166193436D01*
X89349000Y-166162611D01*
X89349000Y-165837389D01*
X89412447Y-165518422D01*
X89424473Y-165489389D01*
X89536903Y-165217958D01*
X89717585Y-164947549D01*
X89947549Y-164717585D01*
X90217958Y-164536903D01*
X90518421Y-164412447D01*
X90624744Y-164391298D01*
X90837389Y-164349000D01*
X91162611Y-164349000D01*
X91375256Y-164391298D01*
X91375256Y-164391298D01*
G37*
G36*
X64375256Y-164391298D02*
G01*
X64481579Y-164412447D01*
X64782042Y-164536903D01*
X65052451Y-164717585D01*
X65282415Y-164947549D01*
X65463097Y-165217958D01*
X65575528Y-165489389D01*
X65587553Y-165518422D01*
X65651000Y-165837389D01*
X65651000Y-166162611D01*
X65644868Y-166193436D01*
X65587553Y-166481579D01*
X65463097Y-166782042D01*
X65282415Y-167052451D01*
X65052451Y-167282415D01*
X64782042Y-167463097D01*
X64481579Y-167587553D01*
X64375256Y-167608702D01*
X64162611Y-167651000D01*
X63837389Y-167651000D01*
X63624744Y-167608702D01*
X63518421Y-167587553D01*
X63217958Y-167463097D01*
X62947549Y-167282415D01*
X62717585Y-167052451D01*
X62536903Y-166782042D01*
X62412447Y-166481579D01*
X62355132Y-166193436D01*
X62349000Y-166162611D01*
X62349000Y-165837389D01*
X62412447Y-165518422D01*
X62424473Y-165489389D01*
X62536903Y-165217958D01*
X62717585Y-164947549D01*
X62947549Y-164717585D01*
X63217958Y-164536903D01*
X63518421Y-164412447D01*
X63624744Y-164391298D01*
X63837389Y-164349000D01*
X64162611Y-164349000D01*
X64375256Y-164391298D01*
X64375256Y-164391298D01*
G37*
G36*
X78006564Y-165489389D02*
G01*
X78197833Y-165568615D01*
X78197835Y-165568616D01*
X78369973Y-165683635D01*
X78516365Y-165830027D01*
X78631385Y-166002167D01*
X78710611Y-166193436D01*
X78751000Y-166396484D01*
X78751000Y-166603516D01*
X78710611Y-166806564D01*
X78631385Y-166997833D01*
X78631384Y-166997835D01*
X78516365Y-167169973D01*
X78369973Y-167316365D01*
X78197835Y-167431384D01*
X78197834Y-167431385D01*
X78197833Y-167431385D01*
X78006564Y-167510611D01*
X77803516Y-167551000D01*
X77596484Y-167551000D01*
X77393436Y-167510611D01*
X77202167Y-167431385D01*
X77202166Y-167431385D01*
X77202165Y-167431384D01*
X77030027Y-167316365D01*
X76883635Y-167169973D01*
X76768616Y-166997835D01*
X76768615Y-166997833D01*
X76689389Y-166806564D01*
X76649000Y-166603516D01*
X76649000Y-166396484D01*
X76689389Y-166193436D01*
X76768615Y-166002167D01*
X76883635Y-165830027D01*
X77030027Y-165683635D01*
X77202165Y-165568616D01*
X77202167Y-165568615D01*
X77393436Y-165489389D01*
X77596484Y-165449000D01*
X77803516Y-165449000D01*
X78006564Y-165489389D01*
X78006564Y-165489389D01*
G37*
G36*
X80506564Y-165489389D02*
G01*
X80697833Y-165568615D01*
X80697835Y-165568616D01*
X80869973Y-165683635D01*
X81016365Y-165830027D01*
X81131385Y-166002167D01*
X81210611Y-166193436D01*
X81251000Y-166396484D01*
X81251000Y-166603516D01*
X81210611Y-166806564D01*
X81131385Y-166997833D01*
X81131384Y-166997835D01*
X81016365Y-167169973D01*
X80869973Y-167316365D01*
X80697835Y-167431384D01*
X80697834Y-167431385D01*
X80697833Y-167431385D01*
X80506564Y-167510611D01*
X80303516Y-167551000D01*
X80096484Y-167551000D01*
X79893436Y-167510611D01*
X79702167Y-167431385D01*
X79702166Y-167431385D01*
X79702165Y-167431384D01*
X79530027Y-167316365D01*
X79383635Y-167169973D01*
X79268616Y-166997835D01*
X79268615Y-166997833D01*
X79189389Y-166806564D01*
X79149000Y-166603516D01*
X79149000Y-166396484D01*
X79189389Y-166193436D01*
X79268615Y-166002167D01*
X79383635Y-165830027D01*
X79530027Y-165683635D01*
X79702165Y-165568616D01*
X79702167Y-165568615D01*
X79893436Y-165489389D01*
X80096484Y-165449000D01*
X80303516Y-165449000D01*
X80506564Y-165489389D01*
X80506564Y-165489389D01*
G37*
G36*
X75506564Y-165489389D02*
G01*
X75697833Y-165568615D01*
X75697835Y-165568616D01*
X75869973Y-165683635D01*
X76016365Y-165830027D01*
X76131385Y-166002167D01*
X76210611Y-166193436D01*
X76251000Y-166396484D01*
X76251000Y-166603516D01*
X76210611Y-166806564D01*
X76131385Y-166997833D01*
X76131384Y-166997835D01*
X76016365Y-167169973D01*
X75869973Y-167316365D01*
X75697835Y-167431384D01*
X75697834Y-167431385D01*
X75697833Y-167431385D01*
X75506564Y-167510611D01*
X75303516Y-167551000D01*
X75096484Y-167551000D01*
X74893436Y-167510611D01*
X74702167Y-167431385D01*
X74702166Y-167431385D01*
X74702165Y-167431384D01*
X74530027Y-167316365D01*
X74383635Y-167169973D01*
X74268616Y-166997835D01*
X74268615Y-166997833D01*
X74189389Y-166806564D01*
X74149000Y-166603516D01*
X74149000Y-166396484D01*
X74189389Y-166193436D01*
X74268615Y-166002167D01*
X74383635Y-165830027D01*
X74530027Y-165683635D01*
X74702165Y-165568616D01*
X74702167Y-165568615D01*
X74893436Y-165489389D01*
X75096484Y-165449000D01*
X75303516Y-165449000D01*
X75506564Y-165489389D01*
X75506564Y-165489389D01*
G37*
G36*
X84851000Y-160851000D02*
G01*
X81949000Y-160851000D01*
X81949000Y-157149000D01*
X84851000Y-157149000D01*
X84851000Y-160851000D01*
X84851000Y-160851000D01*
G37*
G36*
X73451000Y-160851000D02*
G01*
X70549000Y-160851000D01*
X70549000Y-157149000D01*
X73451000Y-157149000D01*
X73451000Y-160851000D01*
X73451000Y-160851000D01*
G37*
G36*
X66748228Y-157181703D02*
G01*
X66903100Y-157245853D01*
X67042481Y-157338985D01*
X67161015Y-157457519D01*
X67254147Y-157596900D01*
X67318297Y-157751772D01*
X67351000Y-157916184D01*
X67351000Y-158083816D01*
X67318297Y-158248228D01*
X67254147Y-158403100D01*
X67161015Y-158542481D01*
X67042481Y-158661015D01*
X66903100Y-158754147D01*
X66748228Y-158818297D01*
X66583816Y-158851000D01*
X66416184Y-158851000D01*
X66251772Y-158818297D01*
X66096900Y-158754147D01*
X65957519Y-158661015D01*
X65838985Y-158542481D01*
X65745853Y-158403100D01*
X65681703Y-158248228D01*
X65649000Y-158083816D01*
X65649000Y-157916184D01*
X65681703Y-157751772D01*
X65745853Y-157596900D01*
X65838985Y-157457519D01*
X65957519Y-157338985D01*
X66096900Y-157245853D01*
X66251772Y-157181703D01*
X66416184Y-157149000D01*
X66583816Y-157149000D01*
X66748228Y-157181703D01*
X66748228Y-157181703D01*
G37*
G36*
X64248228Y-157181703D02*
G01*
X64403100Y-157245853D01*
X64542481Y-157338985D01*
X64661015Y-157457519D01*
X64754147Y-157596900D01*
X64818297Y-157751772D01*
X64851000Y-157916184D01*
X64851000Y-158083816D01*
X64818297Y-158248228D01*
X64754147Y-158403100D01*
X64661015Y-158542481D01*
X64542481Y-158661015D01*
X64403100Y-158754147D01*
X64248228Y-158818297D01*
X64083816Y-158851000D01*
X63916184Y-158851000D01*
X63751772Y-158818297D01*
X63596900Y-158754147D01*
X63457519Y-158661015D01*
X63338985Y-158542481D01*
X63245853Y-158403100D01*
X63181703Y-158248228D01*
X63149000Y-158083816D01*
X63149000Y-157916184D01*
X63181703Y-157751772D01*
X63245853Y-157596900D01*
X63338985Y-157457519D01*
X63457519Y-157338985D01*
X63596900Y-157245853D01*
X63751772Y-157181703D01*
X63916184Y-157149000D01*
X64083816Y-157149000D01*
X64248228Y-157181703D01*
X64248228Y-157181703D01*
G37*
G36*
X89248228Y-156181703D02*
G01*
X89403100Y-156245853D01*
X89542481Y-156338985D01*
X89661015Y-156457519D01*
X89754147Y-156596900D01*
X89818297Y-156751772D01*
X89851000Y-156916184D01*
X89851000Y-157083816D01*
X89818297Y-157248228D01*
X89754147Y-157403100D01*
X89661015Y-157542481D01*
X89542481Y-157661015D01*
X89403100Y-157754147D01*
X89248228Y-157818297D01*
X89083816Y-157851000D01*
X88916184Y-157851000D01*
X88751772Y-157818297D01*
X88596900Y-157754147D01*
X88457519Y-157661015D01*
X88338985Y-157542481D01*
X88245853Y-157403100D01*
X88181703Y-157248228D01*
X88149000Y-157083816D01*
X88149000Y-156916184D01*
X88181703Y-156751772D01*
X88245853Y-156596900D01*
X88338985Y-156457519D01*
X88457519Y-156338985D01*
X88596900Y-156245853D01*
X88751772Y-156181703D01*
X88916184Y-156149000D01*
X89083816Y-156149000D01*
X89248228Y-156181703D01*
X89248228Y-156181703D01*
G37*
G36*
X91748228Y-156181703D02*
G01*
X91903100Y-156245853D01*
X92042481Y-156338985D01*
X92161015Y-156457519D01*
X92254147Y-156596900D01*
X92318297Y-156751772D01*
X92351000Y-156916184D01*
X92351000Y-157083816D01*
X92318297Y-157248228D01*
X92254147Y-157403100D01*
X92161015Y-157542481D01*
X92042481Y-157661015D01*
X91903100Y-157754147D01*
X91748228Y-157818297D01*
X91583816Y-157851000D01*
X91416184Y-157851000D01*
X91251772Y-157818297D01*
X91096900Y-157754147D01*
X90957519Y-157661015D01*
X90838985Y-157542481D01*
X90745853Y-157403100D01*
X90681703Y-157248228D01*
X90649000Y-157083816D01*
X90649000Y-156916184D01*
X90681703Y-156751772D01*
X90745853Y-156596900D01*
X90838985Y-156457519D01*
X90957519Y-156338985D01*
X91096900Y-156245853D01*
X91251772Y-156181703D01*
X91416184Y-156149000D01*
X91583816Y-156149000D01*
X91748228Y-156181703D01*
X91748228Y-156181703D01*
G37*
G36*
X80506564Y-150989389D02*
G01*
X80697833Y-151068615D01*
X80697835Y-151068616D01*
X80869973Y-151183635D01*
X81016365Y-151330027D01*
X81131385Y-151502167D01*
X81210611Y-151693436D01*
X81251000Y-151896484D01*
X81251000Y-152103516D01*
X81210611Y-152306564D01*
X81131385Y-152497833D01*
X81131384Y-152497835D01*
X81016365Y-152669973D01*
X80869973Y-152816365D01*
X80697835Y-152931384D01*
X80697834Y-152931385D01*
X80697833Y-152931385D01*
X80506564Y-153010611D01*
X80303516Y-153051000D01*
X80096484Y-153051000D01*
X79893436Y-153010611D01*
X79702167Y-152931385D01*
X79702166Y-152931385D01*
X79702165Y-152931384D01*
X79530027Y-152816365D01*
X79383635Y-152669973D01*
X79268616Y-152497835D01*
X79268615Y-152497833D01*
X79189389Y-152306564D01*
X79149000Y-152103516D01*
X79149000Y-151896484D01*
X79189389Y-151693436D01*
X79268615Y-151502167D01*
X79383635Y-151330027D01*
X79530027Y-151183635D01*
X79702165Y-151068616D01*
X79702167Y-151068615D01*
X79893436Y-150989389D01*
X80096484Y-150949000D01*
X80303516Y-150949000D01*
X80506564Y-150989389D01*
X80506564Y-150989389D01*
G37*
G36*
X75506564Y-150989389D02*
G01*
X75697833Y-151068615D01*
X75697835Y-151068616D01*
X75869973Y-151183635D01*
X76016365Y-151330027D01*
X76131385Y-151502167D01*
X76210611Y-151693436D01*
X76251000Y-151896484D01*
X76251000Y-152103516D01*
X76210611Y-152306564D01*
X76131385Y-152497833D01*
X76131384Y-152497835D01*
X76016365Y-152669973D01*
X75869973Y-152816365D01*
X75697835Y-152931384D01*
X75697834Y-152931385D01*
X75697833Y-152931385D01*
X75506564Y-153010611D01*
X75303516Y-153051000D01*
X75096484Y-153051000D01*
X74893436Y-153010611D01*
X74702167Y-152931385D01*
X74702166Y-152931385D01*
X74702165Y-152931384D01*
X74530027Y-152816365D01*
X74383635Y-152669973D01*
X74268616Y-152497835D01*
X74268615Y-152497833D01*
X74189389Y-152306564D01*
X74149000Y-152103516D01*
X74149000Y-151896484D01*
X74189389Y-151693436D01*
X74268615Y-151502167D01*
X74383635Y-151330027D01*
X74530027Y-151183635D01*
X74702165Y-151068616D01*
X74702167Y-151068615D01*
X74893436Y-150989389D01*
X75096484Y-150949000D01*
X75303516Y-150949000D01*
X75506564Y-150989389D01*
X75506564Y-150989389D01*
G37*
G36*
X63951000Y-150951000D02*
G01*
X62049000Y-150951000D01*
X62049000Y-149049000D01*
X63951000Y-149049000D01*
X63951000Y-150951000D01*
X63951000Y-150951000D01*
G37*
G36*
X65817395Y-149085546D02*
G01*
X65990466Y-149157234D01*
X65990467Y-149157235D01*
X66146227Y-149261310D01*
X66278690Y-149393773D01*
X66278691Y-149393775D01*
X66382766Y-149549534D01*
X66454454Y-149722605D01*
X66491000Y-149906333D01*
X66491000Y-150093667D01*
X66454454Y-150277395D01*
X66382766Y-150450466D01*
X66382765Y-150450467D01*
X66278690Y-150606227D01*
X66146227Y-150738690D01*
X66067818Y-150791081D01*
X65990466Y-150842766D01*
X65817395Y-150914454D01*
X65633667Y-150951000D01*
X65446333Y-150951000D01*
X65262605Y-150914454D01*
X65089534Y-150842766D01*
X65012182Y-150791081D01*
X64933773Y-150738690D01*
X64801310Y-150606227D01*
X64697235Y-150450467D01*
X64697234Y-150450466D01*
X64625546Y-150277395D01*
X64589000Y-150093667D01*
X64589000Y-149906333D01*
X64625546Y-149722605D01*
X64697234Y-149549534D01*
X64801309Y-149393775D01*
X64801310Y-149393773D01*
X64933773Y-149261310D01*
X65089533Y-149157235D01*
X65089534Y-149157234D01*
X65262605Y-149085546D01*
X65446333Y-149049000D01*
X65633667Y-149049000D01*
X65817395Y-149085546D01*
X65817395Y-149085546D01*
G37*
G36*
X71166823Y-146321313D02*
G01*
X71327242Y-146369976D01*
X71459906Y-146440886D01*
X71475078Y-146448996D01*
X71604659Y-146555341D01*
X71711004Y-146684922D01*
X71711005Y-146684924D01*
X71790024Y-146832758D01*
X71838687Y-146993177D01*
X71855117Y-147160000D01*
X71838687Y-147326823D01*
X71790024Y-147487242D01*
X71719114Y-147619906D01*
X71711004Y-147635078D01*
X71604659Y-147764659D01*
X71475078Y-147871004D01*
X71475076Y-147871005D01*
X71327242Y-147950024D01*
X71166823Y-147998687D01*
X71041804Y-148011000D01*
X70958196Y-148011000D01*
X70833177Y-147998687D01*
X70672758Y-147950024D01*
X70524924Y-147871005D01*
X70524922Y-147871004D01*
X70395341Y-147764659D01*
X70288996Y-147635078D01*
X70280886Y-147619906D01*
X70209976Y-147487242D01*
X70161313Y-147326823D01*
X70144883Y-147160000D01*
X70161313Y-146993177D01*
X70209976Y-146832758D01*
X70288995Y-146684924D01*
X70288996Y-146684922D01*
X70395341Y-146555341D01*
X70524922Y-146448996D01*
X70540094Y-146440886D01*
X70672758Y-146369976D01*
X70833177Y-146321313D01*
X70958196Y-146309000D01*
X71041804Y-146309000D01*
X71166823Y-146321313D01*
X71166823Y-146321313D01*
G37*
G36*
X76166823Y-146321313D02*
G01*
X76327242Y-146369976D01*
X76459906Y-146440886D01*
X76475078Y-146448996D01*
X76604659Y-146555341D01*
X76711004Y-146684922D01*
X76711005Y-146684924D01*
X76790024Y-146832758D01*
X76838687Y-146993177D01*
X76855117Y-147160000D01*
X76838687Y-147326823D01*
X76790024Y-147487242D01*
X76719114Y-147619906D01*
X76711004Y-147635078D01*
X76604659Y-147764659D01*
X76475078Y-147871004D01*
X76475076Y-147871005D01*
X76327242Y-147950024D01*
X76166823Y-147998687D01*
X76041804Y-148011000D01*
X75958196Y-148011000D01*
X75833177Y-147998687D01*
X75672758Y-147950024D01*
X75524924Y-147871005D01*
X75524922Y-147871004D01*
X75395341Y-147764659D01*
X75288996Y-147635078D01*
X75280886Y-147619906D01*
X75209976Y-147487242D01*
X75161313Y-147326823D01*
X75144883Y-147160000D01*
X75161313Y-146993177D01*
X75209976Y-146832758D01*
X75288995Y-146684924D01*
X75288996Y-146684922D01*
X75395341Y-146555341D01*
X75524922Y-146448996D01*
X75540094Y-146440886D01*
X75672758Y-146369976D01*
X75833177Y-146321313D01*
X75958196Y-146309000D01*
X76041804Y-146309000D01*
X76166823Y-146321313D01*
X76166823Y-146321313D01*
G37*
G36*
X84166823Y-146321313D02*
G01*
X84327242Y-146369976D01*
X84459906Y-146440886D01*
X84475078Y-146448996D01*
X84604659Y-146555341D01*
X84711004Y-146684922D01*
X84711005Y-146684924D01*
X84790024Y-146832758D01*
X84838687Y-146993177D01*
X84855117Y-147160000D01*
X84838687Y-147326823D01*
X84790024Y-147487242D01*
X84719114Y-147619906D01*
X84711004Y-147635078D01*
X84604659Y-147764659D01*
X84475078Y-147871004D01*
X84475076Y-147871005D01*
X84327242Y-147950024D01*
X84166823Y-147998687D01*
X84041804Y-148011000D01*
X83958196Y-148011000D01*
X83833177Y-147998687D01*
X83672758Y-147950024D01*
X83524924Y-147871005D01*
X83524922Y-147871004D01*
X83395341Y-147764659D01*
X83288996Y-147635078D01*
X83280886Y-147619906D01*
X83209976Y-147487242D01*
X83161313Y-147326823D01*
X83144883Y-147160000D01*
X83161313Y-146993177D01*
X83209976Y-146832758D01*
X83288995Y-146684924D01*
X83288996Y-146684922D01*
X83395341Y-146555341D01*
X83524922Y-146448996D01*
X83540094Y-146440886D01*
X83672758Y-146369976D01*
X83833177Y-146321313D01*
X83958196Y-146309000D01*
X84041804Y-146309000D01*
X84166823Y-146321313D01*
X84166823Y-146321313D01*
G37*
G36*
X89166823Y-146321313D02*
G01*
X89327242Y-146369976D01*
X89459906Y-146440886D01*
X89475078Y-146448996D01*
X89604659Y-146555341D01*
X89711004Y-146684922D01*
X89711005Y-146684924D01*
X89790024Y-146832758D01*
X89838687Y-146993177D01*
X89855117Y-147160000D01*
X89838687Y-147326823D01*
X89790024Y-147487242D01*
X89719114Y-147619906D01*
X89711004Y-147635078D01*
X89604659Y-147764659D01*
X89475078Y-147871004D01*
X89475076Y-147871005D01*
X89327242Y-147950024D01*
X89166823Y-147998687D01*
X89041804Y-148011000D01*
X88958196Y-148011000D01*
X88833177Y-147998687D01*
X88672758Y-147950024D01*
X88524924Y-147871005D01*
X88524922Y-147871004D01*
X88395341Y-147764659D01*
X88288996Y-147635078D01*
X88280886Y-147619906D01*
X88209976Y-147487242D01*
X88161313Y-147326823D01*
X88144883Y-147160000D01*
X88161313Y-146993177D01*
X88209976Y-146832758D01*
X88288995Y-146684924D01*
X88288996Y-146684922D01*
X88395341Y-146555341D01*
X88524922Y-146448996D01*
X88540094Y-146440886D01*
X88672758Y-146369976D01*
X88833177Y-146321313D01*
X88958196Y-146309000D01*
X89041804Y-146309000D01*
X89166823Y-146321313D01*
X89166823Y-146321313D01*
G37*
G36*
X65817395Y-142085546D02*
G01*
X65990466Y-142157234D01*
X65990467Y-142157235D01*
X66146227Y-142261310D01*
X66278690Y-142393773D01*
X66278691Y-142393775D01*
X66382766Y-142549534D01*
X66454454Y-142722605D01*
X66491000Y-142906333D01*
X66491000Y-143093667D01*
X66454454Y-143277395D01*
X66382766Y-143450466D01*
X66382765Y-143450467D01*
X66278690Y-143606227D01*
X66146227Y-143738690D01*
X66067818Y-143791081D01*
X65990466Y-143842766D01*
X65817395Y-143914454D01*
X65633667Y-143951000D01*
X65446333Y-143951000D01*
X65262605Y-143914454D01*
X65089534Y-143842766D01*
X65012182Y-143791081D01*
X64933773Y-143738690D01*
X64801310Y-143606227D01*
X64697235Y-143450467D01*
X64697234Y-143450466D01*
X64625546Y-143277395D01*
X64589000Y-143093667D01*
X64589000Y-142906333D01*
X64625546Y-142722605D01*
X64697234Y-142549534D01*
X64801309Y-142393775D01*
X64801310Y-142393773D01*
X64933773Y-142261310D01*
X65089533Y-142157235D01*
X65089534Y-142157234D01*
X65262605Y-142085546D01*
X65446333Y-142049000D01*
X65633667Y-142049000D01*
X65817395Y-142085546D01*
X65817395Y-142085546D01*
G37*
G36*
X63951000Y-143951000D02*
G01*
X62049000Y-143951000D01*
X62049000Y-142049000D01*
X63951000Y-142049000D01*
X63951000Y-143951000D01*
X63951000Y-143951000D01*
G37*
G36*
X84248228Y-136181703D02*
G01*
X84403100Y-136245853D01*
X84542481Y-136338985D01*
X84661015Y-136457519D01*
X84754147Y-136596900D01*
X84818297Y-136751772D01*
X84851000Y-136916184D01*
X84851000Y-137083816D01*
X84818297Y-137248228D01*
X84754147Y-137403100D01*
X84661015Y-137542481D01*
X84542481Y-137661015D01*
X84403100Y-137754147D01*
X84248228Y-137818297D01*
X84083816Y-137851000D01*
X83916184Y-137851000D01*
X83751772Y-137818297D01*
X83596900Y-137754147D01*
X83457519Y-137661015D01*
X83338985Y-137542481D01*
X83245853Y-137403100D01*
X83181703Y-137248228D01*
X83149000Y-137083816D01*
X83149000Y-136916184D01*
X83181703Y-136751772D01*
X83245853Y-136596900D01*
X83338985Y-136457519D01*
X83457519Y-136338985D01*
X83596900Y-136245853D01*
X83751772Y-136181703D01*
X83916184Y-136149000D01*
X84083816Y-136149000D01*
X84248228Y-136181703D01*
X84248228Y-136181703D01*
G37*
G36*
X76248228Y-136181703D02*
G01*
X76403100Y-136245853D01*
X76542481Y-136338985D01*
X76661015Y-136457519D01*
X76754147Y-136596900D01*
X76818297Y-136751772D01*
X76851000Y-136916184D01*
X76851000Y-137083816D01*
X76818297Y-137248228D01*
X76754147Y-137403100D01*
X76661015Y-137542481D01*
X76542481Y-137661015D01*
X76403100Y-137754147D01*
X76248228Y-137818297D01*
X76083816Y-137851000D01*
X75916184Y-137851000D01*
X75751772Y-137818297D01*
X75596900Y-137754147D01*
X75457519Y-137661015D01*
X75338985Y-137542481D01*
X75245853Y-137403100D01*
X75181703Y-137248228D01*
X75149000Y-137083816D01*
X75149000Y-136916184D01*
X75181703Y-136751772D01*
X75245853Y-136596900D01*
X75338985Y-136457519D01*
X75457519Y-136338985D01*
X75596900Y-136245853D01*
X75751772Y-136181703D01*
X75916184Y-136149000D01*
X76083816Y-136149000D01*
X76248228Y-136181703D01*
X76248228Y-136181703D01*
G37*
G36*
X71248228Y-136181703D02*
G01*
X71403100Y-136245853D01*
X71542481Y-136338985D01*
X71661015Y-136457519D01*
X71754147Y-136596900D01*
X71818297Y-136751772D01*
X71851000Y-136916184D01*
X71851000Y-137083816D01*
X71818297Y-137248228D01*
X71754147Y-137403100D01*
X71661015Y-137542481D01*
X71542481Y-137661015D01*
X71403100Y-137754147D01*
X71248228Y-137818297D01*
X71083816Y-137851000D01*
X70916184Y-137851000D01*
X70751772Y-137818297D01*
X70596900Y-137754147D01*
X70457519Y-137661015D01*
X70338985Y-137542481D01*
X70245853Y-137403100D01*
X70181703Y-137248228D01*
X70149000Y-137083816D01*
X70149000Y-136916184D01*
X70181703Y-136751772D01*
X70245853Y-136596900D01*
X70338985Y-136457519D01*
X70457519Y-136338985D01*
X70596900Y-136245853D01*
X70751772Y-136181703D01*
X70916184Y-136149000D01*
X71083816Y-136149000D01*
X71248228Y-136181703D01*
X71248228Y-136181703D01*
G37*
G36*
X89248228Y-136181703D02*
G01*
X89403100Y-136245853D01*
X89542481Y-136338985D01*
X89661015Y-136457519D01*
X89754147Y-136596900D01*
X89818297Y-136751772D01*
X89851000Y-136916184D01*
X89851000Y-137083816D01*
X89818297Y-137248228D01*
X89754147Y-137403100D01*
X89661015Y-137542481D01*
X89542481Y-137661015D01*
X89403100Y-137754147D01*
X89248228Y-137818297D01*
X89083816Y-137851000D01*
X88916184Y-137851000D01*
X88751772Y-137818297D01*
X88596900Y-137754147D01*
X88457519Y-137661015D01*
X88338985Y-137542481D01*
X88245853Y-137403100D01*
X88181703Y-137248228D01*
X88149000Y-137083816D01*
X88149000Y-136916184D01*
X88181703Y-136751772D01*
X88245853Y-136596900D01*
X88338985Y-136457519D01*
X88457519Y-136338985D01*
X88596900Y-136245853D01*
X88751772Y-136181703D01*
X88916184Y-136149000D01*
X89083816Y-136149000D01*
X89248228Y-136181703D01*
X89248228Y-136181703D01*
G37*
G36*
X65817395Y-135085546D02*
G01*
X65990466Y-135157234D01*
X65990467Y-135157235D01*
X66146227Y-135261310D01*
X66278690Y-135393773D01*
X66278691Y-135393775D01*
X66382766Y-135549534D01*
X66454454Y-135722605D01*
X66491000Y-135906333D01*
X66491000Y-136093667D01*
X66454454Y-136277395D01*
X66382766Y-136450466D01*
X66331081Y-136527818D01*
X66278690Y-136606227D01*
X66146227Y-136738690D01*
X66126648Y-136751772D01*
X65990466Y-136842766D01*
X65817395Y-136914454D01*
X65633667Y-136951000D01*
X65446333Y-136951000D01*
X65262605Y-136914454D01*
X65089534Y-136842766D01*
X64953352Y-136751772D01*
X64933773Y-136738690D01*
X64801310Y-136606227D01*
X64748919Y-136527818D01*
X64697234Y-136450466D01*
X64625546Y-136277395D01*
X64589000Y-136093667D01*
X64589000Y-135906333D01*
X64625546Y-135722605D01*
X64697234Y-135549534D01*
X64801309Y-135393775D01*
X64801310Y-135393773D01*
X64933773Y-135261310D01*
X65089533Y-135157235D01*
X65089534Y-135157234D01*
X65262605Y-135085546D01*
X65446333Y-135049000D01*
X65633667Y-135049000D01*
X65817395Y-135085546D01*
X65817395Y-135085546D01*
G37*
G36*
X63951000Y-136951000D02*
G01*
X62049000Y-136951000D01*
X62049000Y-135049000D01*
X63951000Y-135049000D01*
X63951000Y-136951000D01*
X63951000Y-136951000D01*
G37*
G36*
X79786823Y-130941313D02*
G01*
X79947242Y-130989976D01*
X80079906Y-131060886D01*
X80095078Y-131068996D01*
X80224659Y-131175341D01*
X80331004Y-131304922D01*
X80331005Y-131304924D01*
X80410024Y-131452758D01*
X80458687Y-131613177D01*
X80475117Y-131780000D01*
X80458687Y-131946823D01*
X80410024Y-132107242D01*
X80339114Y-132239906D01*
X80331004Y-132255078D01*
X80224659Y-132384659D01*
X80095078Y-132491004D01*
X80095076Y-132491005D01*
X79947242Y-132570024D01*
X79786823Y-132618687D01*
X79661804Y-132631000D01*
X79578196Y-132631000D01*
X79453177Y-132618687D01*
X79292758Y-132570024D01*
X79144924Y-132491005D01*
X79144922Y-132491004D01*
X79015341Y-132384659D01*
X78908996Y-132255078D01*
X78900886Y-132239906D01*
X78829976Y-132107242D01*
X78781313Y-131946823D01*
X78764883Y-131780000D01*
X78781313Y-131613177D01*
X78829976Y-131452758D01*
X78908995Y-131304924D01*
X78908996Y-131304922D01*
X79015341Y-131175341D01*
X79144922Y-131068996D01*
X79160094Y-131060886D01*
X79292758Y-130989976D01*
X79453177Y-130941313D01*
X79578196Y-130929000D01*
X79661804Y-130929000D01*
X79786823Y-130941313D01*
X79786823Y-130941313D01*
G37*
G36*
X72166823Y-130941313D02*
G01*
X72327242Y-130989976D01*
X72459906Y-131060886D01*
X72475078Y-131068996D01*
X72604659Y-131175341D01*
X72711004Y-131304922D01*
X72711005Y-131304924D01*
X72790024Y-131452758D01*
X72838687Y-131613177D01*
X72855117Y-131780000D01*
X72838687Y-131946823D01*
X72790024Y-132107242D01*
X72719114Y-132239906D01*
X72711004Y-132255078D01*
X72604659Y-132384659D01*
X72475078Y-132491004D01*
X72475076Y-132491005D01*
X72327242Y-132570024D01*
X72166823Y-132618687D01*
X72041804Y-132631000D01*
X71958196Y-132631000D01*
X71833177Y-132618687D01*
X71672758Y-132570024D01*
X71524924Y-132491005D01*
X71524922Y-132491004D01*
X71395341Y-132384659D01*
X71288996Y-132255078D01*
X71280886Y-132239906D01*
X71209976Y-132107242D01*
X71161313Y-131946823D01*
X71144883Y-131780000D01*
X71161313Y-131613177D01*
X71209976Y-131452758D01*
X71288995Y-131304924D01*
X71288996Y-131304922D01*
X71395341Y-131175341D01*
X71524922Y-131068996D01*
X71540094Y-131060886D01*
X71672758Y-130989976D01*
X71833177Y-130941313D01*
X71958196Y-130929000D01*
X72041804Y-130929000D01*
X72166823Y-130941313D01*
X72166823Y-130941313D01*
G37*
G36*
X79786823Y-128401313D02*
G01*
X79947242Y-128449976D01*
X80079906Y-128520886D01*
X80095078Y-128528996D01*
X80224659Y-128635341D01*
X80331004Y-128764922D01*
X80331005Y-128764924D01*
X80410024Y-128912758D01*
X80458687Y-129073177D01*
X80475117Y-129240000D01*
X80458687Y-129406823D01*
X80410024Y-129567242D01*
X80389187Y-129606225D01*
X80331004Y-129715078D01*
X80224659Y-129844659D01*
X80095078Y-129951004D01*
X80095076Y-129951005D01*
X79947242Y-130030024D01*
X79786823Y-130078687D01*
X79661804Y-130091000D01*
X79578196Y-130091000D01*
X79453177Y-130078687D01*
X79292758Y-130030024D01*
X79144924Y-129951005D01*
X79144922Y-129951004D01*
X79015341Y-129844659D01*
X78908996Y-129715078D01*
X78850813Y-129606225D01*
X78829976Y-129567242D01*
X78781313Y-129406823D01*
X78764883Y-129240000D01*
X78781313Y-129073177D01*
X78829976Y-128912758D01*
X78908995Y-128764924D01*
X78908996Y-128764922D01*
X79015341Y-128635341D01*
X79144922Y-128528996D01*
X79160094Y-128520886D01*
X79292758Y-128449976D01*
X79453177Y-128401313D01*
X79578196Y-128389000D01*
X79661804Y-128389000D01*
X79786823Y-128401313D01*
X79786823Y-128401313D01*
G37*
G36*
X72166823Y-128401313D02*
G01*
X72327242Y-128449976D01*
X72459906Y-128520886D01*
X72475078Y-128528996D01*
X72604659Y-128635341D01*
X72711004Y-128764922D01*
X72711005Y-128764924D01*
X72790024Y-128912758D01*
X72838687Y-129073177D01*
X72855117Y-129240000D01*
X72838687Y-129406823D01*
X72790024Y-129567242D01*
X72769187Y-129606225D01*
X72711004Y-129715078D01*
X72604659Y-129844659D01*
X72475078Y-129951004D01*
X72475076Y-129951005D01*
X72327242Y-130030024D01*
X72166823Y-130078687D01*
X72041804Y-130091000D01*
X71958196Y-130091000D01*
X71833177Y-130078687D01*
X71672758Y-130030024D01*
X71524924Y-129951005D01*
X71524922Y-129951004D01*
X71395341Y-129844659D01*
X71288996Y-129715078D01*
X71230813Y-129606225D01*
X71209976Y-129567242D01*
X71161313Y-129406823D01*
X71144883Y-129240000D01*
X71161313Y-129073177D01*
X71209976Y-128912758D01*
X71288995Y-128764924D01*
X71288996Y-128764922D01*
X71395341Y-128635341D01*
X71524922Y-128528996D01*
X71540094Y-128520886D01*
X71672758Y-128449976D01*
X71833177Y-128401313D01*
X71958196Y-128389000D01*
X72041804Y-128389000D01*
X72166823Y-128401313D01*
X72166823Y-128401313D01*
G37*
G36*
X65817395Y-128085546D02*
G01*
X65990466Y-128157234D01*
X65990467Y-128157235D01*
X66146227Y-128261310D01*
X66278690Y-128393773D01*
X66316243Y-128449975D01*
X66382766Y-128549534D01*
X66454454Y-128722605D01*
X66491000Y-128906333D01*
X66491000Y-129093667D01*
X66454454Y-129277395D01*
X66382766Y-129450466D01*
X66382765Y-129450467D01*
X66278690Y-129606227D01*
X66146227Y-129738690D01*
X66067818Y-129791081D01*
X65990466Y-129842766D01*
X65817395Y-129914454D01*
X65633667Y-129951000D01*
X65446333Y-129951000D01*
X65262605Y-129914454D01*
X65089534Y-129842766D01*
X65012182Y-129791081D01*
X64933773Y-129738690D01*
X64801310Y-129606227D01*
X64697235Y-129450467D01*
X64697234Y-129450466D01*
X64625546Y-129277395D01*
X64589000Y-129093667D01*
X64589000Y-128906333D01*
X64625546Y-128722605D01*
X64697234Y-128549534D01*
X64763757Y-128449975D01*
X64801310Y-128393773D01*
X64933773Y-128261310D01*
X65089533Y-128157235D01*
X65089534Y-128157234D01*
X65262605Y-128085546D01*
X65446333Y-128049000D01*
X65633667Y-128049000D01*
X65817395Y-128085546D01*
X65817395Y-128085546D01*
G37*
G36*
X63951000Y-129951000D02*
G01*
X62049000Y-129951000D01*
X62049000Y-128049000D01*
X63951000Y-128049000D01*
X63951000Y-129951000D01*
X63951000Y-129951000D01*
G37*
G36*
X79786823Y-125861313D02*
G01*
X79947242Y-125909976D01*
X80020241Y-125948995D01*
X80095078Y-125988996D01*
X80224659Y-126095341D01*
X80331004Y-126224922D01*
X80331005Y-126224924D01*
X80410024Y-126372758D01*
X80458687Y-126533177D01*
X80475117Y-126700000D01*
X80458687Y-126866823D01*
X80410024Y-127027242D01*
X80352385Y-127135076D01*
X80331004Y-127175078D01*
X80224659Y-127304659D01*
X80095078Y-127411004D01*
X80095076Y-127411005D01*
X79947242Y-127490024D01*
X79786823Y-127538687D01*
X79661804Y-127551000D01*
X79578196Y-127551000D01*
X79453177Y-127538687D01*
X79292758Y-127490024D01*
X79144924Y-127411005D01*
X79144922Y-127411004D01*
X79015341Y-127304659D01*
X78908996Y-127175078D01*
X78887615Y-127135076D01*
X78829976Y-127027242D01*
X78781313Y-126866823D01*
X78764883Y-126700000D01*
X78781313Y-126533177D01*
X78829976Y-126372758D01*
X78908995Y-126224924D01*
X78908996Y-126224922D01*
X79015341Y-126095341D01*
X79144922Y-125988996D01*
X79219759Y-125948995D01*
X79292758Y-125909976D01*
X79453177Y-125861313D01*
X79578196Y-125849000D01*
X79661804Y-125849000D01*
X79786823Y-125861313D01*
X79786823Y-125861313D01*
G37*
G36*
X72166823Y-125861313D02*
G01*
X72327242Y-125909976D01*
X72400241Y-125948995D01*
X72475078Y-125988996D01*
X72604659Y-126095341D01*
X72711004Y-126224922D01*
X72711005Y-126224924D01*
X72790024Y-126372758D01*
X72838687Y-126533177D01*
X72855117Y-126700000D01*
X72838687Y-126866823D01*
X72790024Y-127027242D01*
X72732385Y-127135076D01*
X72711004Y-127175078D01*
X72604659Y-127304659D01*
X72475078Y-127411004D01*
X72475076Y-127411005D01*
X72327242Y-127490024D01*
X72166823Y-127538687D01*
X72041804Y-127551000D01*
X71958196Y-127551000D01*
X71833177Y-127538687D01*
X71672758Y-127490024D01*
X71524924Y-127411005D01*
X71524922Y-127411004D01*
X71395341Y-127304659D01*
X71288996Y-127175078D01*
X71267615Y-127135076D01*
X71209976Y-127027242D01*
X71161313Y-126866823D01*
X71144883Y-126700000D01*
X71161313Y-126533177D01*
X71209976Y-126372758D01*
X71288995Y-126224924D01*
X71288996Y-126224922D01*
X71395341Y-126095341D01*
X71524922Y-125988996D01*
X71599759Y-125948995D01*
X71672758Y-125909976D01*
X71833177Y-125861313D01*
X71958196Y-125849000D01*
X72041804Y-125849000D01*
X72166823Y-125861313D01*
X72166823Y-125861313D01*
G37*
G36*
X85166823Y-125821313D02*
G01*
X85327242Y-125869976D01*
X85459906Y-125940886D01*
X85475078Y-125948996D01*
X85604659Y-126055341D01*
X85711004Y-126184922D01*
X85711005Y-126184924D01*
X85790024Y-126332758D01*
X85838687Y-126493177D01*
X85855117Y-126660000D01*
X85838687Y-126826823D01*
X85790024Y-126987242D01*
X85719114Y-127119906D01*
X85711004Y-127135078D01*
X85604659Y-127264659D01*
X85475078Y-127371004D01*
X85475076Y-127371005D01*
X85327242Y-127450024D01*
X85166823Y-127498687D01*
X85041804Y-127511000D01*
X84958196Y-127511000D01*
X84833177Y-127498687D01*
X84672758Y-127450024D01*
X84524924Y-127371005D01*
X84524922Y-127371004D01*
X84395341Y-127264659D01*
X84288996Y-127135078D01*
X84280886Y-127119906D01*
X84209976Y-126987242D01*
X84161313Y-126826823D01*
X84144883Y-126660000D01*
X84161313Y-126493177D01*
X84209976Y-126332758D01*
X84288995Y-126184924D01*
X84288996Y-126184922D01*
X84395341Y-126055341D01*
X84524922Y-125948996D01*
X84540094Y-125940886D01*
X84672758Y-125869976D01*
X84833177Y-125821313D01*
X84958196Y-125809000D01*
X85041804Y-125809000D01*
X85166823Y-125821313D01*
X85166823Y-125821313D01*
G37*
G36*
X72166823Y-123321313D02*
G01*
X72327242Y-123369976D01*
X72459906Y-123440886D01*
X72475078Y-123448996D01*
X72604659Y-123555341D01*
X72711004Y-123684922D01*
X72711005Y-123684924D01*
X72790024Y-123832758D01*
X72838687Y-123993177D01*
X72855117Y-124160000D01*
X72838687Y-124326823D01*
X72790024Y-124487242D01*
X72719114Y-124619906D01*
X72711004Y-124635078D01*
X72604659Y-124764659D01*
X72475078Y-124871004D01*
X72475076Y-124871005D01*
X72327242Y-124950024D01*
X72166823Y-124998687D01*
X72041804Y-125011000D01*
X71958196Y-125011000D01*
X71833177Y-124998687D01*
X71672758Y-124950024D01*
X71524924Y-124871005D01*
X71524922Y-124871004D01*
X71395341Y-124764659D01*
X71288996Y-124635078D01*
X71280886Y-124619906D01*
X71209976Y-124487242D01*
X71161313Y-124326823D01*
X71144883Y-124160000D01*
X71161313Y-123993177D01*
X71209976Y-123832758D01*
X71288995Y-123684924D01*
X71288996Y-123684922D01*
X71395341Y-123555341D01*
X71524922Y-123448996D01*
X71540094Y-123440886D01*
X71672758Y-123369976D01*
X71833177Y-123321313D01*
X71958196Y-123309000D01*
X72041804Y-123309000D01*
X72166823Y-123321313D01*
X72166823Y-123321313D01*
G37*
G36*
X79786823Y-123321313D02*
G01*
X79947242Y-123369976D01*
X80079906Y-123440886D01*
X80095078Y-123448996D01*
X80224659Y-123555341D01*
X80331004Y-123684922D01*
X80331005Y-123684924D01*
X80410024Y-123832758D01*
X80458687Y-123993177D01*
X80475117Y-124160000D01*
X80458687Y-124326823D01*
X80410024Y-124487242D01*
X80339114Y-124619906D01*
X80331004Y-124635078D01*
X80224659Y-124764659D01*
X80095078Y-124871004D01*
X80095076Y-124871005D01*
X79947242Y-124950024D01*
X79786823Y-124998687D01*
X79661804Y-125011000D01*
X79578196Y-125011000D01*
X79453177Y-124998687D01*
X79292758Y-124950024D01*
X79144924Y-124871005D01*
X79144922Y-124871004D01*
X79015341Y-124764659D01*
X78908996Y-124635078D01*
X78900886Y-124619906D01*
X78829976Y-124487242D01*
X78781313Y-124326823D01*
X78764883Y-124160000D01*
X78781313Y-123993177D01*
X78829976Y-123832758D01*
X78908995Y-123684924D01*
X78908996Y-123684922D01*
X79015341Y-123555341D01*
X79144922Y-123448996D01*
X79160094Y-123440886D01*
X79292758Y-123369976D01*
X79453177Y-123321313D01*
X79578196Y-123309000D01*
X79661804Y-123309000D01*
X79786823Y-123321313D01*
X79786823Y-123321313D01*
G37*
G36*
X65817395Y-121085546D02*
G01*
X65990466Y-121157234D01*
X65990467Y-121157235D01*
X66146227Y-121261310D01*
X66278690Y-121393773D01*
X66278691Y-121393775D01*
X66382766Y-121549534D01*
X66454454Y-121722605D01*
X66491000Y-121906333D01*
X66491000Y-122093667D01*
X66454454Y-122277395D01*
X66382766Y-122450466D01*
X66331081Y-122527818D01*
X66278690Y-122606227D01*
X66146227Y-122738690D01*
X66067818Y-122791081D01*
X65990466Y-122842766D01*
X65817395Y-122914454D01*
X65633667Y-122951000D01*
X65446333Y-122951000D01*
X65262605Y-122914454D01*
X65089534Y-122842766D01*
X65012182Y-122791081D01*
X64933773Y-122738690D01*
X64801310Y-122606227D01*
X64748919Y-122527818D01*
X64697234Y-122450466D01*
X64625546Y-122277395D01*
X64589000Y-122093667D01*
X64589000Y-121906333D01*
X64625546Y-121722605D01*
X64697234Y-121549534D01*
X64801309Y-121393775D01*
X64801310Y-121393773D01*
X64933773Y-121261310D01*
X65089533Y-121157235D01*
X65089534Y-121157234D01*
X65262605Y-121085546D01*
X65446333Y-121049000D01*
X65633667Y-121049000D01*
X65817395Y-121085546D01*
X65817395Y-121085546D01*
G37*
G36*
X63951000Y-122951000D02*
G01*
X62049000Y-122951000D01*
X62049000Y-121049000D01*
X63951000Y-121049000D01*
X63951000Y-122951000D01*
X63951000Y-122951000D01*
G37*
G36*
X72166823Y-120781313D02*
G01*
X72327242Y-120829976D01*
X72459906Y-120900886D01*
X72475078Y-120908996D01*
X72604659Y-121015341D01*
X72711004Y-121144922D01*
X72711005Y-121144924D01*
X72790024Y-121292758D01*
X72838687Y-121453177D01*
X72855117Y-121620000D01*
X72838687Y-121786823D01*
X72790024Y-121947242D01*
X72719114Y-122079906D01*
X72711004Y-122095078D01*
X72604659Y-122224659D01*
X72475078Y-122331004D01*
X72475076Y-122331005D01*
X72327242Y-122410024D01*
X72166823Y-122458687D01*
X72041804Y-122471000D01*
X71958196Y-122471000D01*
X71833177Y-122458687D01*
X71672758Y-122410024D01*
X71524924Y-122331005D01*
X71524922Y-122331004D01*
X71395341Y-122224659D01*
X71288996Y-122095078D01*
X71280886Y-122079906D01*
X71209976Y-121947242D01*
X71161313Y-121786823D01*
X71144883Y-121620000D01*
X71161313Y-121453177D01*
X71209976Y-121292758D01*
X71288995Y-121144924D01*
X71288996Y-121144922D01*
X71395341Y-121015341D01*
X71524922Y-120908996D01*
X71540094Y-120900886D01*
X71672758Y-120829976D01*
X71833177Y-120781313D01*
X71958196Y-120769000D01*
X72041804Y-120769000D01*
X72166823Y-120781313D01*
X72166823Y-120781313D01*
G37*
G36*
X79786823Y-120781313D02*
G01*
X79947242Y-120829976D01*
X80079906Y-120900886D01*
X80095078Y-120908996D01*
X80224659Y-121015341D01*
X80331004Y-121144922D01*
X80331005Y-121144924D01*
X80410024Y-121292758D01*
X80458687Y-121453177D01*
X80475117Y-121620000D01*
X80458687Y-121786823D01*
X80410024Y-121947242D01*
X80339114Y-122079906D01*
X80331004Y-122095078D01*
X80224659Y-122224659D01*
X80095078Y-122331004D01*
X80095076Y-122331005D01*
X79947242Y-122410024D01*
X79786823Y-122458687D01*
X79661804Y-122471000D01*
X79578196Y-122471000D01*
X79453177Y-122458687D01*
X79292758Y-122410024D01*
X79144924Y-122331005D01*
X79144922Y-122331004D01*
X79015341Y-122224659D01*
X78908996Y-122095078D01*
X78900886Y-122079906D01*
X78829976Y-121947242D01*
X78781313Y-121786823D01*
X78764883Y-121620000D01*
X78781313Y-121453177D01*
X78829976Y-121292758D01*
X78908995Y-121144924D01*
X78908996Y-121144922D01*
X79015341Y-121015341D01*
X79144922Y-120908996D01*
X79160094Y-120900886D01*
X79292758Y-120829976D01*
X79453177Y-120781313D01*
X79578196Y-120769000D01*
X79661804Y-120769000D01*
X79786823Y-120781313D01*
X79786823Y-120781313D01*
G37*
G36*
X72166823Y-118241313D02*
G01*
X72327242Y-118289976D01*
X72459906Y-118360886D01*
X72475078Y-118368996D01*
X72604659Y-118475341D01*
X72711004Y-118604922D01*
X72711005Y-118604924D01*
X72790024Y-118752758D01*
X72838687Y-118913177D01*
X72855117Y-119080000D01*
X72838687Y-119246823D01*
X72790024Y-119407242D01*
X72719114Y-119539906D01*
X72711004Y-119555078D01*
X72604659Y-119684659D01*
X72475078Y-119791004D01*
X72475076Y-119791005D01*
X72327242Y-119870024D01*
X72166823Y-119918687D01*
X72041804Y-119931000D01*
X71958196Y-119931000D01*
X71833177Y-119918687D01*
X71672758Y-119870024D01*
X71524924Y-119791005D01*
X71524922Y-119791004D01*
X71395341Y-119684659D01*
X71288996Y-119555078D01*
X71280886Y-119539906D01*
X71209976Y-119407242D01*
X71161313Y-119246823D01*
X71144883Y-119080000D01*
X71161313Y-118913177D01*
X71209976Y-118752758D01*
X71288995Y-118604924D01*
X71288996Y-118604922D01*
X71395341Y-118475341D01*
X71524922Y-118368996D01*
X71540094Y-118360886D01*
X71672758Y-118289976D01*
X71833177Y-118241313D01*
X71958196Y-118229000D01*
X72041804Y-118229000D01*
X72166823Y-118241313D01*
X72166823Y-118241313D01*
G37*
G36*
X79786823Y-118241313D02*
G01*
X79947242Y-118289976D01*
X80079906Y-118360886D01*
X80095078Y-118368996D01*
X80224659Y-118475341D01*
X80331004Y-118604922D01*
X80331005Y-118604924D01*
X80410024Y-118752758D01*
X80458687Y-118913177D01*
X80475117Y-119080000D01*
X80458687Y-119246823D01*
X80410024Y-119407242D01*
X80339114Y-119539906D01*
X80331004Y-119555078D01*
X80224659Y-119684659D01*
X80095078Y-119791004D01*
X80095076Y-119791005D01*
X79947242Y-119870024D01*
X79786823Y-119918687D01*
X79661804Y-119931000D01*
X79578196Y-119931000D01*
X79453177Y-119918687D01*
X79292758Y-119870024D01*
X79144924Y-119791005D01*
X79144922Y-119791004D01*
X79015341Y-119684659D01*
X78908996Y-119555078D01*
X78900886Y-119539906D01*
X78829976Y-119407242D01*
X78781313Y-119246823D01*
X78764883Y-119080000D01*
X78781313Y-118913177D01*
X78829976Y-118752758D01*
X78908995Y-118604924D01*
X78908996Y-118604922D01*
X79015341Y-118475341D01*
X79144922Y-118368996D01*
X79160094Y-118360886D01*
X79292758Y-118289976D01*
X79453177Y-118241313D01*
X79578196Y-118229000D01*
X79661804Y-118229000D01*
X79786823Y-118241313D01*
X79786823Y-118241313D01*
G37*
G36*
X72166823Y-115701313D02*
G01*
X72290037Y-115738690D01*
X72313651Y-115745853D01*
X72327242Y-115749976D01*
X72459906Y-115820886D01*
X72475078Y-115828996D01*
X72604659Y-115935341D01*
X72711004Y-116064922D01*
X72711005Y-116064924D01*
X72790024Y-116212758D01*
X72838687Y-116373177D01*
X72855117Y-116540000D01*
X72838687Y-116706823D01*
X72790024Y-116867242D01*
X72770859Y-116903097D01*
X72711004Y-117015078D01*
X72604659Y-117144659D01*
X72475078Y-117251004D01*
X72475076Y-117251005D01*
X72327242Y-117330024D01*
X72166823Y-117378687D01*
X72041804Y-117391000D01*
X71958196Y-117391000D01*
X71833177Y-117378687D01*
X71672758Y-117330024D01*
X71524924Y-117251005D01*
X71524922Y-117251004D01*
X71395341Y-117144659D01*
X71288996Y-117015078D01*
X71229141Y-116903097D01*
X71209976Y-116867242D01*
X71161313Y-116706823D01*
X71144883Y-116540000D01*
X71161313Y-116373177D01*
X71209976Y-116212758D01*
X71288995Y-116064924D01*
X71288996Y-116064922D01*
X71395341Y-115935341D01*
X71524922Y-115828996D01*
X71540094Y-115820886D01*
X71672758Y-115749976D01*
X71686350Y-115745853D01*
X71709963Y-115738690D01*
X71833177Y-115701313D01*
X71958196Y-115689000D01*
X72041804Y-115689000D01*
X72166823Y-115701313D01*
X72166823Y-115701313D01*
G37*
G36*
X79786823Y-115701313D02*
G01*
X79910037Y-115738690D01*
X79933651Y-115745853D01*
X79947242Y-115749976D01*
X80079906Y-115820886D01*
X80095078Y-115828996D01*
X80224659Y-115935341D01*
X80331004Y-116064922D01*
X80331005Y-116064924D01*
X80410024Y-116212758D01*
X80458687Y-116373177D01*
X80475117Y-116540000D01*
X80458687Y-116706823D01*
X80410024Y-116867242D01*
X80390859Y-116903097D01*
X80331004Y-117015078D01*
X80224659Y-117144659D01*
X80095078Y-117251004D01*
X80095076Y-117251005D01*
X79947242Y-117330024D01*
X79786823Y-117378687D01*
X79661804Y-117391000D01*
X79578196Y-117391000D01*
X79453177Y-117378687D01*
X79292758Y-117330024D01*
X79144924Y-117251005D01*
X79144922Y-117251004D01*
X79015341Y-117144659D01*
X78908996Y-117015078D01*
X78849141Y-116903097D01*
X78829976Y-116867242D01*
X78781313Y-116706823D01*
X78764883Y-116540000D01*
X78781313Y-116373177D01*
X78829976Y-116212758D01*
X78908995Y-116064924D01*
X78908996Y-116064922D01*
X79015341Y-115935341D01*
X79144922Y-115828996D01*
X79160094Y-115820886D01*
X79292758Y-115749976D01*
X79306350Y-115745853D01*
X79329963Y-115738690D01*
X79453177Y-115701313D01*
X79578196Y-115689000D01*
X79661804Y-115689000D01*
X79786823Y-115701313D01*
X79786823Y-115701313D01*
G37*
G36*
X85248228Y-115681703D02*
G01*
X85403100Y-115745853D01*
X85542481Y-115838985D01*
X85661015Y-115957519D01*
X85754147Y-116096900D01*
X85818297Y-116251772D01*
X85851000Y-116416184D01*
X85851000Y-116583816D01*
X85818297Y-116748228D01*
X85754147Y-116903100D01*
X85661015Y-117042481D01*
X85542481Y-117161015D01*
X85403100Y-117254147D01*
X85248228Y-117318297D01*
X85083816Y-117351000D01*
X84916184Y-117351000D01*
X84751772Y-117318297D01*
X84596900Y-117254147D01*
X84457519Y-117161015D01*
X84338985Y-117042481D01*
X84245853Y-116903100D01*
X84181703Y-116748228D01*
X84149000Y-116583816D01*
X84149000Y-116416184D01*
X84181703Y-116251772D01*
X84245853Y-116096900D01*
X84338985Y-115957519D01*
X84457519Y-115838985D01*
X84596900Y-115745853D01*
X84751772Y-115681703D01*
X84916184Y-115649000D01*
X85083816Y-115649000D01*
X85248228Y-115681703D01*
X85248228Y-115681703D01*
G37*
G36*
X63951000Y-115951000D02*
G01*
X62049000Y-115951000D01*
X62049000Y-114049000D01*
X63951000Y-114049000D01*
X63951000Y-115951000D01*
X63951000Y-115951000D01*
G37*
G36*
X65817395Y-114085546D02*
G01*
X65990466Y-114157234D01*
X65990467Y-114157235D01*
X66146227Y-114261310D01*
X66278690Y-114393773D01*
X66278691Y-114393775D01*
X66382766Y-114549534D01*
X66454454Y-114722605D01*
X66491000Y-114906333D01*
X66491000Y-115093667D01*
X66454454Y-115277395D01*
X66382766Y-115450466D01*
X66382765Y-115450467D01*
X66278690Y-115606227D01*
X66146227Y-115738690D01*
X66129336Y-115749976D01*
X65990466Y-115842766D01*
X65817395Y-115914454D01*
X65633667Y-115951000D01*
X65446333Y-115951000D01*
X65262605Y-115914454D01*
X65089534Y-115842766D01*
X64950664Y-115749976D01*
X64933773Y-115738690D01*
X64801310Y-115606227D01*
X64697235Y-115450467D01*
X64697234Y-115450466D01*
X64625546Y-115277395D01*
X64589000Y-115093667D01*
X64589000Y-114906333D01*
X64625546Y-114722605D01*
X64697234Y-114549534D01*
X64801309Y-114393775D01*
X64801310Y-114393773D01*
X64933773Y-114261310D01*
X65089533Y-114157235D01*
X65089534Y-114157234D01*
X65262605Y-114085546D01*
X65446333Y-114049000D01*
X65633667Y-114049000D01*
X65817395Y-114085546D01*
X65817395Y-114085546D01*
G37*
G36*
X79786823Y-113161313D02*
G01*
X79947242Y-113209976D01*
X80079906Y-113280886D01*
X80095078Y-113288996D01*
X80224659Y-113395341D01*
X80331004Y-113524922D01*
X80331005Y-113524924D01*
X80410024Y-113672758D01*
X80458687Y-113833177D01*
X80475117Y-114000000D01*
X80458687Y-114166823D01*
X80410024Y-114327242D01*
X80374462Y-114393773D01*
X80331004Y-114475078D01*
X80224659Y-114604659D01*
X80095078Y-114711004D01*
X80095076Y-114711005D01*
X79947242Y-114790024D01*
X79786823Y-114838687D01*
X79661804Y-114851000D01*
X79578196Y-114851000D01*
X79453177Y-114838687D01*
X79292758Y-114790024D01*
X79144924Y-114711005D01*
X79144922Y-114711004D01*
X79015341Y-114604659D01*
X78908996Y-114475078D01*
X78865538Y-114393773D01*
X78829976Y-114327242D01*
X78781313Y-114166823D01*
X78764883Y-114000000D01*
X78781313Y-113833177D01*
X78829976Y-113672758D01*
X78908995Y-113524924D01*
X78908996Y-113524922D01*
X79015341Y-113395341D01*
X79144922Y-113288996D01*
X79160094Y-113280886D01*
X79292758Y-113209976D01*
X79453177Y-113161313D01*
X79578196Y-113149000D01*
X79661804Y-113149000D01*
X79786823Y-113161313D01*
X79786823Y-113161313D01*
G37*
G36*
X72851000Y-114851000D02*
G01*
X71149000Y-114851000D01*
X71149000Y-113149000D01*
X72851000Y-113149000D01*
X72851000Y-114851000D01*
X72851000Y-114851000D01*
G37*
G36*
X74748228Y-108681703D02*
G01*
X74903100Y-108745853D01*
X75042481Y-108838985D01*
X75161015Y-108957519D01*
X75254147Y-109096900D01*
X75318297Y-109251772D01*
X75351000Y-109416184D01*
X75351000Y-109583816D01*
X75318297Y-109748228D01*
X75254147Y-109903100D01*
X75161015Y-110042481D01*
X75042481Y-110161015D01*
X74903100Y-110254147D01*
X74748228Y-110318297D01*
X74583816Y-110351000D01*
X74416184Y-110351000D01*
X74251772Y-110318297D01*
X74096900Y-110254147D01*
X73957519Y-110161015D01*
X73838985Y-110042481D01*
X73745853Y-109903100D01*
X73681703Y-109748228D01*
X73649000Y-109583816D01*
X73649000Y-109416184D01*
X73681703Y-109251772D01*
X73745853Y-109096900D01*
X73838985Y-108957519D01*
X73957519Y-108838985D01*
X74096900Y-108745853D01*
X74251772Y-108681703D01*
X74416184Y-108649000D01*
X74583816Y-108649000D01*
X74748228Y-108681703D01*
X74748228Y-108681703D01*
G37*
G36*
X79748228Y-108681703D02*
G01*
X79903100Y-108745853D01*
X80042481Y-108838985D01*
X80161015Y-108957519D01*
X80254147Y-109096900D01*
X80318297Y-109251772D01*
X80351000Y-109416184D01*
X80351000Y-109583816D01*
X80318297Y-109748228D01*
X80254147Y-109903100D01*
X80161015Y-110042481D01*
X80042481Y-110161015D01*
X79903100Y-110254147D01*
X79748228Y-110318297D01*
X79583816Y-110351000D01*
X79416184Y-110351000D01*
X79251772Y-110318297D01*
X79096900Y-110254147D01*
X78957519Y-110161015D01*
X78838985Y-110042481D01*
X78745853Y-109903100D01*
X78681703Y-109748228D01*
X78649000Y-109583816D01*
X78649000Y-109416184D01*
X78681703Y-109251772D01*
X78745853Y-109096900D01*
X78838985Y-108957519D01*
X78957519Y-108838985D01*
X79096900Y-108745853D01*
X79251772Y-108681703D01*
X79416184Y-108649000D01*
X79583816Y-108649000D01*
X79748228Y-108681703D01*
X79748228Y-108681703D01*
G37*
G36*
X63951000Y-108951000D02*
G01*
X62049000Y-108951000D01*
X62049000Y-107049000D01*
X63951000Y-107049000D01*
X63951000Y-108951000D01*
X63951000Y-108951000D01*
G37*
G36*
X65817395Y-107085546D02*
G01*
X65990466Y-107157234D01*
X65990467Y-107157235D01*
X66146227Y-107261310D01*
X66278690Y-107393773D01*
X66278691Y-107393775D01*
X66382766Y-107549534D01*
X66454454Y-107722605D01*
X66491000Y-107906333D01*
X66491000Y-108093667D01*
X66454454Y-108277395D01*
X66382766Y-108450466D01*
X66382765Y-108450467D01*
X66278690Y-108606227D01*
X66146227Y-108738690D01*
X66067818Y-108791081D01*
X65990466Y-108842766D01*
X65817395Y-108914454D01*
X65633667Y-108951000D01*
X65446333Y-108951000D01*
X65262605Y-108914454D01*
X65089534Y-108842766D01*
X65012182Y-108791081D01*
X64933773Y-108738690D01*
X64801310Y-108606227D01*
X64697235Y-108450467D01*
X64697234Y-108450466D01*
X64625546Y-108277395D01*
X64589000Y-108093667D01*
X64589000Y-107906333D01*
X64625546Y-107722605D01*
X64697234Y-107549534D01*
X64801309Y-107393775D01*
X64801310Y-107393773D01*
X64933773Y-107261310D01*
X65089533Y-107157235D01*
X65089534Y-107157234D01*
X65262605Y-107085546D01*
X65446333Y-107049000D01*
X65633667Y-107049000D01*
X65817395Y-107085546D01*
X65817395Y-107085546D01*
G37*
G36*
X88851000Y-106851000D02*
G01*
X87149000Y-106851000D01*
X87149000Y-105149000D01*
X88851000Y-105149000D01*
X88851000Y-106851000D01*
X88851000Y-106851000D01*
G37*
G36*
X91748228Y-105181703D02*
G01*
X91903100Y-105245853D01*
X92042481Y-105338985D01*
X92161015Y-105457519D01*
X92254147Y-105596900D01*
X92318297Y-105751772D01*
X92351000Y-105916184D01*
X92351000Y-106083816D01*
X92318297Y-106248228D01*
X92254147Y-106403100D01*
X92161015Y-106542481D01*
X92042481Y-106661015D01*
X91903100Y-106754147D01*
X91748228Y-106818297D01*
X91583816Y-106851000D01*
X91416184Y-106851000D01*
X91251772Y-106818297D01*
X91096900Y-106754147D01*
X90957519Y-106661015D01*
X90838985Y-106542481D01*
X90745853Y-106403100D01*
X90681703Y-106248228D01*
X90649000Y-106083816D01*
X90649000Y-105916184D01*
X90681703Y-105751772D01*
X90745853Y-105596900D01*
X90838985Y-105457519D01*
X90957519Y-105338985D01*
X91096900Y-105245853D01*
X91251772Y-105181703D01*
X91416184Y-105149000D01*
X91583816Y-105149000D01*
X91748228Y-105181703D01*
X91748228Y-105181703D01*
G37*
G36*
X63951000Y-101951000D02*
G01*
X62049000Y-101951000D01*
X62049000Y-100049000D01*
X63951000Y-100049000D01*
X63951000Y-101951000D01*
X63951000Y-101951000D01*
G37*
G36*
X65817395Y-100085546D02*
G01*
X65990466Y-100157234D01*
X65990467Y-100157235D01*
X66146227Y-100261310D01*
X66278690Y-100393773D01*
X66278691Y-100393775D01*
X66382766Y-100549534D01*
X66454454Y-100722605D01*
X66491000Y-100906333D01*
X66491000Y-101093667D01*
X66454454Y-101277395D01*
X66382766Y-101450466D01*
X66382765Y-101450467D01*
X66278690Y-101606227D01*
X66146227Y-101738690D01*
X66067818Y-101791081D01*
X65990466Y-101842766D01*
X65817395Y-101914454D01*
X65633667Y-101951000D01*
X65446333Y-101951000D01*
X65262605Y-101914454D01*
X65089534Y-101842766D01*
X65012182Y-101791081D01*
X64933773Y-101738690D01*
X64801310Y-101606227D01*
X64697235Y-101450467D01*
X64697234Y-101450466D01*
X64625546Y-101277395D01*
X64589000Y-101093667D01*
X64589000Y-100906333D01*
X64625546Y-100722605D01*
X64697234Y-100549534D01*
X64801309Y-100393775D01*
X64801310Y-100393773D01*
X64933773Y-100261310D01*
X65089533Y-100157235D01*
X65089534Y-100157234D01*
X65262605Y-100085546D01*
X65446333Y-100049000D01*
X65633667Y-100049000D01*
X65817395Y-100085546D01*
X65817395Y-100085546D01*
G37*
G36*
X89070442Y-96765518D02*
G01*
X89136627Y-96772037D01*
X89306466Y-96823557D01*
X89462991Y-96907222D01*
X89498729Y-96936552D01*
X89600186Y-97019814D01*
X89671933Y-97107239D01*
X89712778Y-97157009D01*
X89796443Y-97313534D01*
X89847963Y-97483373D01*
X89865359Y-97660000D01*
X89847963Y-97836627D01*
X89796443Y-98006466D01*
X89712778Y-98162991D01*
X89683448Y-98198729D01*
X89600186Y-98300186D01*
X89498729Y-98383448D01*
X89462991Y-98412778D01*
X89306466Y-98496443D01*
X89136627Y-98547963D01*
X89070442Y-98554482D01*
X89004260Y-98561000D01*
X88915740Y-98561000D01*
X88849557Y-98554481D01*
X88783373Y-98547963D01*
X88613534Y-98496443D01*
X88457009Y-98412778D01*
X88421271Y-98383448D01*
X88319814Y-98300186D01*
X88236552Y-98198729D01*
X88207222Y-98162991D01*
X88123557Y-98006466D01*
X88072037Y-97836627D01*
X88054641Y-97660000D01*
X88072037Y-97483373D01*
X88123557Y-97313534D01*
X88207222Y-97157009D01*
X88248067Y-97107239D01*
X88319814Y-97019814D01*
X88421271Y-96936552D01*
X88457009Y-96907222D01*
X88613534Y-96823557D01*
X88783373Y-96772037D01*
X88849558Y-96765518D01*
X88915740Y-96759000D01*
X89004260Y-96759000D01*
X89070442Y-96765518D01*
X89070442Y-96765518D01*
G37*
G36*
X91610442Y-96765518D02*
G01*
X91676627Y-96772037D01*
X91846466Y-96823557D01*
X92002991Y-96907222D01*
X92038729Y-96936552D01*
X92140186Y-97019814D01*
X92211933Y-97107239D01*
X92252778Y-97157009D01*
X92336443Y-97313534D01*
X92387963Y-97483373D01*
X92405359Y-97660000D01*
X92387963Y-97836627D01*
X92336443Y-98006466D01*
X92252778Y-98162991D01*
X92223448Y-98198729D01*
X92140186Y-98300186D01*
X92038729Y-98383448D01*
X92002991Y-98412778D01*
X91846466Y-98496443D01*
X91676627Y-98547963D01*
X91610442Y-98554482D01*
X91544260Y-98561000D01*
X91455740Y-98561000D01*
X91389557Y-98554481D01*
X91323373Y-98547963D01*
X91153534Y-98496443D01*
X90997009Y-98412778D01*
X90961271Y-98383448D01*
X90859814Y-98300186D01*
X90776552Y-98198729D01*
X90747222Y-98162991D01*
X90663557Y-98006466D01*
X90612037Y-97836627D01*
X90594641Y-97660000D01*
X90612037Y-97483373D01*
X90663557Y-97313534D01*
X90747222Y-97157009D01*
X90788067Y-97107239D01*
X90859814Y-97019814D01*
X90961271Y-96936552D01*
X90997009Y-96907222D01*
X91153534Y-96823557D01*
X91323373Y-96772037D01*
X91389557Y-96765519D01*
X91455740Y-96759000D01*
X91544260Y-96759000D01*
X91610442Y-96765518D01*
X91610442Y-96765518D01*
G37*
G36*
X72166823Y-95941313D02*
G01*
X72327242Y-95989976D01*
X72459906Y-96060886D01*
X72475078Y-96068996D01*
X72604659Y-96175341D01*
X72711004Y-96304922D01*
X72711005Y-96304924D01*
X72790024Y-96452758D01*
X72838687Y-96613177D01*
X72855117Y-96780000D01*
X72838687Y-96946823D01*
X72790024Y-97107242D01*
X72763423Y-97157009D01*
X72711004Y-97255078D01*
X72604659Y-97384659D01*
X72475078Y-97491004D01*
X72475076Y-97491005D01*
X72327242Y-97570024D01*
X72166823Y-97618687D01*
X72041804Y-97631000D01*
X71958196Y-97631000D01*
X71833177Y-97618687D01*
X71672758Y-97570024D01*
X71524924Y-97491005D01*
X71524922Y-97491004D01*
X71395341Y-97384659D01*
X71288996Y-97255078D01*
X71236577Y-97157009D01*
X71209976Y-97107242D01*
X71161313Y-96946823D01*
X71144883Y-96780000D01*
X71161313Y-96613177D01*
X71209976Y-96452758D01*
X71288995Y-96304924D01*
X71288996Y-96304922D01*
X71395341Y-96175341D01*
X71524922Y-96068996D01*
X71540094Y-96060886D01*
X71672758Y-95989976D01*
X71833177Y-95941313D01*
X71958196Y-95929000D01*
X72041804Y-95929000D01*
X72166823Y-95941313D01*
X72166823Y-95941313D01*
G37*
G36*
X79786823Y-95941313D02*
G01*
X79947242Y-95989976D01*
X80079906Y-96060886D01*
X80095078Y-96068996D01*
X80224659Y-96175341D01*
X80331004Y-96304922D01*
X80331005Y-96304924D01*
X80410024Y-96452758D01*
X80458687Y-96613177D01*
X80475117Y-96780000D01*
X80458687Y-96946823D01*
X80410024Y-97107242D01*
X80383423Y-97157009D01*
X80331004Y-97255078D01*
X80224659Y-97384659D01*
X80095078Y-97491004D01*
X80095076Y-97491005D01*
X79947242Y-97570024D01*
X79786823Y-97618687D01*
X79661804Y-97631000D01*
X79578196Y-97631000D01*
X79453177Y-97618687D01*
X79292758Y-97570024D01*
X79144924Y-97491005D01*
X79144922Y-97491004D01*
X79015341Y-97384659D01*
X78908996Y-97255078D01*
X78856577Y-97157009D01*
X78829976Y-97107242D01*
X78781313Y-96946823D01*
X78764883Y-96780000D01*
X78781313Y-96613177D01*
X78829976Y-96452758D01*
X78908995Y-96304924D01*
X78908996Y-96304922D01*
X79015341Y-96175341D01*
X79144922Y-96068996D01*
X79160094Y-96060886D01*
X79292758Y-95989976D01*
X79453177Y-95941313D01*
X79578196Y-95929000D01*
X79661804Y-95929000D01*
X79786823Y-95941313D01*
X79786823Y-95941313D01*
G37*
G36*
X89070443Y-94225519D02*
G01*
X89136627Y-94232037D01*
X89306466Y-94283557D01*
X89462991Y-94367222D01*
X89498729Y-94396552D01*
X89600186Y-94479814D01*
X89671933Y-94567239D01*
X89712778Y-94617009D01*
X89796443Y-94773534D01*
X89847963Y-94943373D01*
X89865359Y-95120000D01*
X89847963Y-95296627D01*
X89796443Y-95466466D01*
X89712778Y-95622991D01*
X89683448Y-95658729D01*
X89600186Y-95760186D01*
X89498729Y-95843448D01*
X89462991Y-95872778D01*
X89306466Y-95956443D01*
X89136627Y-96007963D01*
X89070443Y-96014481D01*
X89004260Y-96021000D01*
X88915740Y-96021000D01*
X88849557Y-96014481D01*
X88783373Y-96007963D01*
X88613534Y-95956443D01*
X88457009Y-95872778D01*
X88421271Y-95843448D01*
X88319814Y-95760186D01*
X88236552Y-95658729D01*
X88207222Y-95622991D01*
X88123557Y-95466466D01*
X88072037Y-95296627D01*
X88054641Y-95120000D01*
X88072037Y-94943373D01*
X88123557Y-94773534D01*
X88207222Y-94617009D01*
X88248067Y-94567239D01*
X88319814Y-94479814D01*
X88421271Y-94396552D01*
X88457009Y-94367222D01*
X88613534Y-94283557D01*
X88783373Y-94232037D01*
X88849557Y-94225519D01*
X88915740Y-94219000D01*
X89004260Y-94219000D01*
X89070443Y-94225519D01*
X89070443Y-94225519D01*
G37*
G36*
X91610443Y-94225519D02*
G01*
X91676627Y-94232037D01*
X91846466Y-94283557D01*
X92002991Y-94367222D01*
X92038729Y-94396552D01*
X92140186Y-94479814D01*
X92211933Y-94567239D01*
X92252778Y-94617009D01*
X92336443Y-94773534D01*
X92387963Y-94943373D01*
X92405359Y-95120000D01*
X92387963Y-95296627D01*
X92336443Y-95466466D01*
X92252778Y-95622991D01*
X92223448Y-95658729D01*
X92140186Y-95760186D01*
X92038729Y-95843448D01*
X92002991Y-95872778D01*
X91846466Y-95956443D01*
X91676627Y-96007963D01*
X91610443Y-96014481D01*
X91544260Y-96021000D01*
X91455740Y-96021000D01*
X91389557Y-96014481D01*
X91323373Y-96007963D01*
X91153534Y-95956443D01*
X90997009Y-95872778D01*
X90961271Y-95843448D01*
X90859814Y-95760186D01*
X90776552Y-95658729D01*
X90747222Y-95622991D01*
X90663557Y-95466466D01*
X90612037Y-95296627D01*
X90594641Y-95120000D01*
X90612037Y-94943373D01*
X90663557Y-94773534D01*
X90747222Y-94617009D01*
X90788067Y-94567239D01*
X90859814Y-94479814D01*
X90961271Y-94396552D01*
X90997009Y-94367222D01*
X91153534Y-94283557D01*
X91323373Y-94232037D01*
X91389557Y-94225519D01*
X91455740Y-94219000D01*
X91544260Y-94219000D01*
X91610443Y-94225519D01*
X91610443Y-94225519D01*
G37*
G36*
X79786823Y-93401313D02*
G01*
X79947242Y-93449976D01*
X80079906Y-93520886D01*
X80095078Y-93528996D01*
X80224659Y-93635341D01*
X80331004Y-93764922D01*
X80331005Y-93764924D01*
X80410024Y-93912758D01*
X80458687Y-94073177D01*
X80475117Y-94240000D01*
X80458687Y-94406823D01*
X80410024Y-94567242D01*
X80389187Y-94606225D01*
X80331004Y-94715078D01*
X80224659Y-94844659D01*
X80095078Y-94951004D01*
X80095076Y-94951005D01*
X79947242Y-95030024D01*
X79786823Y-95078687D01*
X79661804Y-95091000D01*
X79578196Y-95091000D01*
X79453177Y-95078687D01*
X79292758Y-95030024D01*
X79144924Y-94951005D01*
X79144922Y-94951004D01*
X79015341Y-94844659D01*
X78908996Y-94715078D01*
X78850813Y-94606225D01*
X78829976Y-94567242D01*
X78781313Y-94406823D01*
X78764883Y-94240000D01*
X78781313Y-94073177D01*
X78829976Y-93912758D01*
X78908995Y-93764924D01*
X78908996Y-93764922D01*
X79015341Y-93635341D01*
X79144922Y-93528996D01*
X79160094Y-93520886D01*
X79292758Y-93449976D01*
X79453177Y-93401313D01*
X79578196Y-93389000D01*
X79661804Y-93389000D01*
X79786823Y-93401313D01*
X79786823Y-93401313D01*
G37*
G36*
X72166823Y-93401313D02*
G01*
X72327242Y-93449976D01*
X72459906Y-93520886D01*
X72475078Y-93528996D01*
X72604659Y-93635341D01*
X72711004Y-93764922D01*
X72711005Y-93764924D01*
X72790024Y-93912758D01*
X72838687Y-94073177D01*
X72855117Y-94240000D01*
X72838687Y-94406823D01*
X72790024Y-94567242D01*
X72769187Y-94606225D01*
X72711004Y-94715078D01*
X72604659Y-94844659D01*
X72475078Y-94951004D01*
X72475076Y-94951005D01*
X72327242Y-95030024D01*
X72166823Y-95078687D01*
X72041804Y-95091000D01*
X71958196Y-95091000D01*
X71833177Y-95078687D01*
X71672758Y-95030024D01*
X71524924Y-94951005D01*
X71524922Y-94951004D01*
X71395341Y-94844659D01*
X71288996Y-94715078D01*
X71230813Y-94606225D01*
X71209976Y-94567242D01*
X71161313Y-94406823D01*
X71144883Y-94240000D01*
X71161313Y-94073177D01*
X71209976Y-93912758D01*
X71288995Y-93764924D01*
X71288996Y-93764922D01*
X71395341Y-93635341D01*
X71524922Y-93528996D01*
X71540094Y-93520886D01*
X71672758Y-93449976D01*
X71833177Y-93401313D01*
X71958196Y-93389000D01*
X72041804Y-93389000D01*
X72166823Y-93401313D01*
X72166823Y-93401313D01*
G37*
G36*
X63951000Y-94951000D02*
G01*
X62049000Y-94951000D01*
X62049000Y-93049000D01*
X63951000Y-93049000D01*
X63951000Y-94951000D01*
X63951000Y-94951000D01*
G37*
G36*
X65817395Y-93085546D02*
G01*
X65990466Y-93157234D01*
X65990467Y-93157235D01*
X66146227Y-93261310D01*
X66278690Y-93393773D01*
X66316243Y-93449975D01*
X66382766Y-93549534D01*
X66454454Y-93722605D01*
X66491000Y-93906333D01*
X66491000Y-94093667D01*
X66454454Y-94277395D01*
X66382766Y-94450466D01*
X66331081Y-94527818D01*
X66278690Y-94606227D01*
X66146227Y-94738690D01*
X66094082Y-94773532D01*
X65990466Y-94842766D01*
X65817395Y-94914454D01*
X65633667Y-94951000D01*
X65446333Y-94951000D01*
X65262605Y-94914454D01*
X65089534Y-94842766D01*
X64985918Y-94773532D01*
X64933773Y-94738690D01*
X64801310Y-94606227D01*
X64748919Y-94527818D01*
X64697234Y-94450466D01*
X64625546Y-94277395D01*
X64589000Y-94093667D01*
X64589000Y-93906333D01*
X64625546Y-93722605D01*
X64697234Y-93549534D01*
X64763757Y-93449975D01*
X64801310Y-93393773D01*
X64933773Y-93261310D01*
X65089533Y-93157235D01*
X65089534Y-93157234D01*
X65262605Y-93085546D01*
X65446333Y-93049000D01*
X65633667Y-93049000D01*
X65817395Y-93085546D01*
X65817395Y-93085546D01*
G37*
G36*
X91610443Y-91685519D02*
G01*
X91676627Y-91692037D01*
X91846466Y-91743557D01*
X92002991Y-91827222D01*
X92038729Y-91856552D01*
X92140186Y-91939814D01*
X92211933Y-92027239D01*
X92252778Y-92077009D01*
X92336443Y-92233534D01*
X92387963Y-92403373D01*
X92405359Y-92580000D01*
X92387963Y-92756627D01*
X92336443Y-92926466D01*
X92252778Y-93082991D01*
X92250681Y-93085546D01*
X92140186Y-93220186D01*
X92038729Y-93303448D01*
X92002991Y-93332778D01*
X91846466Y-93416443D01*
X91676627Y-93467963D01*
X91610442Y-93474482D01*
X91544260Y-93481000D01*
X91455740Y-93481000D01*
X91389558Y-93474482D01*
X91323373Y-93467963D01*
X91153534Y-93416443D01*
X90997009Y-93332778D01*
X90961271Y-93303448D01*
X90859814Y-93220186D01*
X90749319Y-93085546D01*
X90747222Y-93082991D01*
X90663557Y-92926466D01*
X90612037Y-92756627D01*
X90594641Y-92580000D01*
X90612037Y-92403373D01*
X90663557Y-92233534D01*
X90747222Y-92077009D01*
X90788067Y-92027239D01*
X90859814Y-91939814D01*
X90961271Y-91856552D01*
X90997009Y-91827222D01*
X91153534Y-91743557D01*
X91323373Y-91692037D01*
X91389557Y-91685519D01*
X91455740Y-91679000D01*
X91544260Y-91679000D01*
X91610443Y-91685519D01*
X91610443Y-91685519D01*
G37*
G36*
X89070443Y-91685519D02*
G01*
X89136627Y-91692037D01*
X89306466Y-91743557D01*
X89462991Y-91827222D01*
X89498729Y-91856552D01*
X89600186Y-91939814D01*
X89671933Y-92027239D01*
X89712778Y-92077009D01*
X89796443Y-92233534D01*
X89847963Y-92403373D01*
X89865359Y-92580000D01*
X89847963Y-92756627D01*
X89796443Y-92926466D01*
X89712778Y-93082991D01*
X89710681Y-93085546D01*
X89600186Y-93220186D01*
X89498729Y-93303448D01*
X89462991Y-93332778D01*
X89306466Y-93416443D01*
X89136627Y-93467963D01*
X89070442Y-93474482D01*
X89004260Y-93481000D01*
X88915740Y-93481000D01*
X88849558Y-93474482D01*
X88783373Y-93467963D01*
X88613534Y-93416443D01*
X88457009Y-93332778D01*
X88421271Y-93303448D01*
X88319814Y-93220186D01*
X88209319Y-93085546D01*
X88207222Y-93082991D01*
X88123557Y-92926466D01*
X88072037Y-92756627D01*
X88054641Y-92580000D01*
X88072037Y-92403373D01*
X88123557Y-92233534D01*
X88207222Y-92077009D01*
X88248067Y-92027239D01*
X88319814Y-91939814D01*
X88421271Y-91856552D01*
X88457009Y-91827222D01*
X88613534Y-91743557D01*
X88783373Y-91692037D01*
X88849557Y-91685519D01*
X88915740Y-91679000D01*
X89004260Y-91679000D01*
X89070443Y-91685519D01*
X89070443Y-91685519D01*
G37*
G36*
X79786823Y-90861313D02*
G01*
X79947242Y-90909976D01*
X80020241Y-90948995D01*
X80095078Y-90988996D01*
X80224659Y-91095341D01*
X80331004Y-91224922D01*
X80331005Y-91224924D01*
X80410024Y-91372758D01*
X80458687Y-91533177D01*
X80475117Y-91700000D01*
X80458687Y-91866823D01*
X80410024Y-92027242D01*
X80383423Y-92077009D01*
X80331004Y-92175078D01*
X80224659Y-92304659D01*
X80095078Y-92411004D01*
X80095076Y-92411005D01*
X79947242Y-92490024D01*
X79786823Y-92538687D01*
X79661804Y-92551000D01*
X79578196Y-92551000D01*
X79453177Y-92538687D01*
X79292758Y-92490024D01*
X79144924Y-92411005D01*
X79144922Y-92411004D01*
X79015341Y-92304659D01*
X78908996Y-92175078D01*
X78856577Y-92077009D01*
X78829976Y-92027242D01*
X78781313Y-91866823D01*
X78764883Y-91700000D01*
X78781313Y-91533177D01*
X78829976Y-91372758D01*
X78908995Y-91224924D01*
X78908996Y-91224922D01*
X79015341Y-91095341D01*
X79144922Y-90988996D01*
X79219759Y-90948995D01*
X79292758Y-90909976D01*
X79453177Y-90861313D01*
X79578196Y-90849000D01*
X79661804Y-90849000D01*
X79786823Y-90861313D01*
X79786823Y-90861313D01*
G37*
G36*
X72166823Y-90861313D02*
G01*
X72327242Y-90909976D01*
X72400241Y-90948995D01*
X72475078Y-90988996D01*
X72604659Y-91095341D01*
X72711004Y-91224922D01*
X72711005Y-91224924D01*
X72790024Y-91372758D01*
X72838687Y-91533177D01*
X72855117Y-91700000D01*
X72838687Y-91866823D01*
X72790024Y-92027242D01*
X72763423Y-92077009D01*
X72711004Y-92175078D01*
X72604659Y-92304659D01*
X72475078Y-92411004D01*
X72475076Y-92411005D01*
X72327242Y-92490024D01*
X72166823Y-92538687D01*
X72041804Y-92551000D01*
X71958196Y-92551000D01*
X71833177Y-92538687D01*
X71672758Y-92490024D01*
X71524924Y-92411005D01*
X71524922Y-92411004D01*
X71395341Y-92304659D01*
X71288996Y-92175078D01*
X71236577Y-92077009D01*
X71209976Y-92027242D01*
X71161313Y-91866823D01*
X71144883Y-91700000D01*
X71161313Y-91533177D01*
X71209976Y-91372758D01*
X71288995Y-91224924D01*
X71288996Y-91224922D01*
X71395341Y-91095341D01*
X71524922Y-90988996D01*
X71599759Y-90948995D01*
X71672758Y-90909976D01*
X71833177Y-90861313D01*
X71958196Y-90849000D01*
X72041804Y-90849000D01*
X72166823Y-90861313D01*
X72166823Y-90861313D01*
G37*
G36*
X85166823Y-90821313D02*
G01*
X85327242Y-90869976D01*
X85435728Y-90927963D01*
X85475078Y-90948996D01*
X85604659Y-91055341D01*
X85711004Y-91184922D01*
X85711005Y-91184924D01*
X85790024Y-91332758D01*
X85838687Y-91493177D01*
X85855117Y-91660000D01*
X85838687Y-91826823D01*
X85790024Y-91987242D01*
X85742042Y-92077009D01*
X85711004Y-92135078D01*
X85604659Y-92264659D01*
X85475078Y-92371004D01*
X85475076Y-92371005D01*
X85327242Y-92450024D01*
X85166823Y-92498687D01*
X85041804Y-92511000D01*
X84958196Y-92511000D01*
X84833177Y-92498687D01*
X84672758Y-92450024D01*
X84524924Y-92371005D01*
X84524922Y-92371004D01*
X84395341Y-92264659D01*
X84288996Y-92135078D01*
X84257958Y-92077009D01*
X84209976Y-91987242D01*
X84161313Y-91826823D01*
X84144883Y-91660000D01*
X84161313Y-91493177D01*
X84209976Y-91332758D01*
X84288995Y-91184924D01*
X84288996Y-91184922D01*
X84395341Y-91055341D01*
X84524922Y-90948996D01*
X84564272Y-90927963D01*
X84672758Y-90869976D01*
X84833177Y-90821313D01*
X84958196Y-90809000D01*
X85041804Y-90809000D01*
X85166823Y-90821313D01*
X85166823Y-90821313D01*
G37*
G36*
X89070443Y-89145519D02*
G01*
X89136627Y-89152037D01*
X89306466Y-89203557D01*
X89462991Y-89287222D01*
X89498729Y-89316552D01*
X89600186Y-89399814D01*
X89671933Y-89487239D01*
X89712778Y-89537009D01*
X89796443Y-89693534D01*
X89847963Y-89863373D01*
X89865359Y-90040000D01*
X89847963Y-90216627D01*
X89796443Y-90386466D01*
X89712778Y-90542991D01*
X89683448Y-90578729D01*
X89600186Y-90680186D01*
X89498729Y-90763448D01*
X89462991Y-90792778D01*
X89306466Y-90876443D01*
X89136627Y-90927963D01*
X89070443Y-90934481D01*
X89004260Y-90941000D01*
X88915740Y-90941000D01*
X88849557Y-90934481D01*
X88783373Y-90927963D01*
X88613534Y-90876443D01*
X88457009Y-90792778D01*
X88421271Y-90763448D01*
X88319814Y-90680186D01*
X88236552Y-90578729D01*
X88207222Y-90542991D01*
X88123557Y-90386466D01*
X88072037Y-90216627D01*
X88054641Y-90040000D01*
X88072037Y-89863373D01*
X88123557Y-89693534D01*
X88207222Y-89537009D01*
X88248067Y-89487239D01*
X88319814Y-89399814D01*
X88421271Y-89316552D01*
X88457009Y-89287222D01*
X88613534Y-89203557D01*
X88783373Y-89152037D01*
X88849557Y-89145519D01*
X88915740Y-89139000D01*
X89004260Y-89139000D01*
X89070443Y-89145519D01*
X89070443Y-89145519D01*
G37*
G36*
X91610443Y-89145519D02*
G01*
X91676627Y-89152037D01*
X91846466Y-89203557D01*
X92002991Y-89287222D01*
X92038729Y-89316552D01*
X92140186Y-89399814D01*
X92211933Y-89487239D01*
X92252778Y-89537009D01*
X92336443Y-89693534D01*
X92387963Y-89863373D01*
X92405359Y-90040000D01*
X92387963Y-90216627D01*
X92336443Y-90386466D01*
X92252778Y-90542991D01*
X92223448Y-90578729D01*
X92140186Y-90680186D01*
X92038729Y-90763448D01*
X92002991Y-90792778D01*
X91846466Y-90876443D01*
X91676627Y-90927963D01*
X91610443Y-90934481D01*
X91544260Y-90941000D01*
X91455740Y-90941000D01*
X91389557Y-90934481D01*
X91323373Y-90927963D01*
X91153534Y-90876443D01*
X90997009Y-90792778D01*
X90961271Y-90763448D01*
X90859814Y-90680186D01*
X90776552Y-90578729D01*
X90747222Y-90542991D01*
X90663557Y-90386466D01*
X90612037Y-90216627D01*
X90594641Y-90040000D01*
X90612037Y-89863373D01*
X90663557Y-89693534D01*
X90747222Y-89537009D01*
X90788067Y-89487239D01*
X90859814Y-89399814D01*
X90961271Y-89316552D01*
X90997009Y-89287222D01*
X91153534Y-89203557D01*
X91323373Y-89152037D01*
X91389557Y-89145519D01*
X91455740Y-89139000D01*
X91544260Y-89139000D01*
X91610443Y-89145519D01*
X91610443Y-89145519D01*
G37*
G36*
X72166823Y-88321313D02*
G01*
X72327242Y-88369976D01*
X72459906Y-88440886D01*
X72475078Y-88448996D01*
X72604659Y-88555341D01*
X72711004Y-88684922D01*
X72711005Y-88684924D01*
X72790024Y-88832758D01*
X72838687Y-88993177D01*
X72855117Y-89160000D01*
X72838687Y-89326823D01*
X72790024Y-89487242D01*
X72763423Y-89537009D01*
X72711004Y-89635078D01*
X72604659Y-89764659D01*
X72475078Y-89871004D01*
X72475076Y-89871005D01*
X72327242Y-89950024D01*
X72166823Y-89998687D01*
X72041804Y-90011000D01*
X71958196Y-90011000D01*
X71833177Y-89998687D01*
X71672758Y-89950024D01*
X71524924Y-89871005D01*
X71524922Y-89871004D01*
X71395341Y-89764659D01*
X71288996Y-89635078D01*
X71236577Y-89537009D01*
X71209976Y-89487242D01*
X71161313Y-89326823D01*
X71144883Y-89160000D01*
X71161313Y-88993177D01*
X71209976Y-88832758D01*
X71288995Y-88684924D01*
X71288996Y-88684922D01*
X71395341Y-88555341D01*
X71524922Y-88448996D01*
X71540094Y-88440886D01*
X71672758Y-88369976D01*
X71833177Y-88321313D01*
X71958196Y-88309000D01*
X72041804Y-88309000D01*
X72166823Y-88321313D01*
X72166823Y-88321313D01*
G37*
G36*
X79786823Y-88321313D02*
G01*
X79947242Y-88369976D01*
X80079906Y-88440886D01*
X80095078Y-88448996D01*
X80224659Y-88555341D01*
X80331004Y-88684922D01*
X80331005Y-88684924D01*
X80410024Y-88832758D01*
X80458687Y-88993177D01*
X80475117Y-89160000D01*
X80458687Y-89326823D01*
X80410024Y-89487242D01*
X80383423Y-89537009D01*
X80331004Y-89635078D01*
X80224659Y-89764659D01*
X80095078Y-89871004D01*
X80095076Y-89871005D01*
X79947242Y-89950024D01*
X79786823Y-89998687D01*
X79661804Y-90011000D01*
X79578196Y-90011000D01*
X79453177Y-89998687D01*
X79292758Y-89950024D01*
X79144924Y-89871005D01*
X79144922Y-89871004D01*
X79015341Y-89764659D01*
X78908996Y-89635078D01*
X78856577Y-89537009D01*
X78829976Y-89487242D01*
X78781313Y-89326823D01*
X78764883Y-89160000D01*
X78781313Y-88993177D01*
X78829976Y-88832758D01*
X78908995Y-88684924D01*
X78908996Y-88684922D01*
X79015341Y-88555341D01*
X79144922Y-88448996D01*
X79160094Y-88440886D01*
X79292758Y-88369976D01*
X79453177Y-88321313D01*
X79578196Y-88309000D01*
X79661804Y-88309000D01*
X79786823Y-88321313D01*
X79786823Y-88321313D01*
G37*
G36*
X92401000Y-88401000D02*
G01*
X90599000Y-88401000D01*
X90599000Y-86599000D01*
X92401000Y-86599000D01*
X92401000Y-88401000D01*
X92401000Y-88401000D01*
G37*
G36*
X89070442Y-86605518D02*
G01*
X89136627Y-86612037D01*
X89306466Y-86663557D01*
X89462991Y-86747222D01*
X89498729Y-86776552D01*
X89600186Y-86859814D01*
X89671933Y-86947239D01*
X89712778Y-86997009D01*
X89796443Y-87153534D01*
X89847963Y-87323373D01*
X89865359Y-87500000D01*
X89847963Y-87676627D01*
X89796443Y-87846466D01*
X89712778Y-88002991D01*
X89683448Y-88038729D01*
X89600186Y-88140186D01*
X89498729Y-88223448D01*
X89462991Y-88252778D01*
X89306466Y-88336443D01*
X89136627Y-88387963D01*
X89070443Y-88394481D01*
X89004260Y-88401000D01*
X88915740Y-88401000D01*
X88849557Y-88394481D01*
X88783373Y-88387963D01*
X88613534Y-88336443D01*
X88457009Y-88252778D01*
X88421271Y-88223448D01*
X88319814Y-88140186D01*
X88236552Y-88038729D01*
X88207222Y-88002991D01*
X88123557Y-87846466D01*
X88072037Y-87676627D01*
X88054641Y-87500000D01*
X88072037Y-87323373D01*
X88123557Y-87153534D01*
X88207222Y-86997009D01*
X88248067Y-86947239D01*
X88319814Y-86859814D01*
X88421271Y-86776552D01*
X88457009Y-86747222D01*
X88613534Y-86663557D01*
X88783373Y-86612037D01*
X88849558Y-86605518D01*
X88915740Y-86599000D01*
X89004260Y-86599000D01*
X89070442Y-86605518D01*
X89070442Y-86605518D01*
G37*
G36*
X65817395Y-86085546D02*
G01*
X65990466Y-86157234D01*
X65990467Y-86157235D01*
X66146227Y-86261310D01*
X66278690Y-86393773D01*
X66278691Y-86393775D01*
X66382766Y-86549534D01*
X66454454Y-86722605D01*
X66491000Y-86906333D01*
X66491000Y-87093667D01*
X66454454Y-87277395D01*
X66382766Y-87450466D01*
X66349668Y-87500000D01*
X66278690Y-87606227D01*
X66146227Y-87738690D01*
X66067818Y-87791081D01*
X65990466Y-87842766D01*
X65817395Y-87914454D01*
X65633667Y-87951000D01*
X65446333Y-87951000D01*
X65262605Y-87914454D01*
X65089534Y-87842766D01*
X65012182Y-87791081D01*
X64933773Y-87738690D01*
X64801310Y-87606227D01*
X64730332Y-87500000D01*
X64697234Y-87450466D01*
X64625546Y-87277395D01*
X64589000Y-87093667D01*
X64589000Y-86906333D01*
X64625546Y-86722605D01*
X64697234Y-86549534D01*
X64801309Y-86393775D01*
X64801310Y-86393773D01*
X64933773Y-86261310D01*
X65089533Y-86157235D01*
X65089534Y-86157234D01*
X65262605Y-86085546D01*
X65446333Y-86049000D01*
X65633667Y-86049000D01*
X65817395Y-86085546D01*
X65817395Y-86085546D01*
G37*
G36*
X63951000Y-87951000D02*
G01*
X62049000Y-87951000D01*
X62049000Y-86049000D01*
X63951000Y-86049000D01*
X63951000Y-87951000D01*
X63951000Y-87951000D01*
G37*
G36*
X79786823Y-85781313D02*
G01*
X79947242Y-85829976D01*
X80079906Y-85900886D01*
X80095078Y-85908996D01*
X80224659Y-86015341D01*
X80331004Y-86144922D01*
X80331005Y-86144924D01*
X80410024Y-86292758D01*
X80458687Y-86453177D01*
X80475117Y-86620000D01*
X80458687Y-86786823D01*
X80410024Y-86947242D01*
X80383423Y-86997009D01*
X80331004Y-87095078D01*
X80224659Y-87224659D01*
X80095078Y-87331004D01*
X80095076Y-87331005D01*
X79947242Y-87410024D01*
X79786823Y-87458687D01*
X79661804Y-87471000D01*
X79578196Y-87471000D01*
X79453177Y-87458687D01*
X79292758Y-87410024D01*
X79144924Y-87331005D01*
X79144922Y-87331004D01*
X79015341Y-87224659D01*
X78908996Y-87095078D01*
X78856577Y-86997009D01*
X78829976Y-86947242D01*
X78781313Y-86786823D01*
X78764883Y-86620000D01*
X78781313Y-86453177D01*
X78829976Y-86292758D01*
X78908995Y-86144924D01*
X78908996Y-86144922D01*
X79015341Y-86015341D01*
X79144922Y-85908996D01*
X79160094Y-85900886D01*
X79292758Y-85829976D01*
X79453177Y-85781313D01*
X79578196Y-85769000D01*
X79661804Y-85769000D01*
X79786823Y-85781313D01*
X79786823Y-85781313D01*
G37*
G36*
X72166823Y-85781313D02*
G01*
X72327242Y-85829976D01*
X72459906Y-85900886D01*
X72475078Y-85908996D01*
X72604659Y-86015341D01*
X72711004Y-86144922D01*
X72711005Y-86144924D01*
X72790024Y-86292758D01*
X72838687Y-86453177D01*
X72855117Y-86620000D01*
X72838687Y-86786823D01*
X72790024Y-86947242D01*
X72763423Y-86997009D01*
X72711004Y-87095078D01*
X72604659Y-87224659D01*
X72475078Y-87331004D01*
X72475076Y-87331005D01*
X72327242Y-87410024D01*
X72166823Y-87458687D01*
X72041804Y-87471000D01*
X71958196Y-87471000D01*
X71833177Y-87458687D01*
X71672758Y-87410024D01*
X71524924Y-87331005D01*
X71524922Y-87331004D01*
X71395341Y-87224659D01*
X71288996Y-87095078D01*
X71236577Y-86997009D01*
X71209976Y-86947242D01*
X71161313Y-86786823D01*
X71144883Y-86620000D01*
X71161313Y-86453177D01*
X71209976Y-86292758D01*
X71288995Y-86144924D01*
X71288996Y-86144922D01*
X71395341Y-86015341D01*
X71524922Y-85908996D01*
X71540094Y-85900886D01*
X71672758Y-85829976D01*
X71833177Y-85781313D01*
X71958196Y-85769000D01*
X72041804Y-85769000D01*
X72166823Y-85781313D01*
X72166823Y-85781313D01*
G37*
G36*
X72166823Y-83241313D02*
G01*
X72327242Y-83289976D01*
X72459906Y-83360886D01*
X72475078Y-83368996D01*
X72604659Y-83475341D01*
X72711004Y-83604922D01*
X72711005Y-83604924D01*
X72790024Y-83752758D01*
X72838687Y-83913177D01*
X72855117Y-84080000D01*
X72838687Y-84246823D01*
X72790024Y-84407242D01*
X72719114Y-84539906D01*
X72711004Y-84555078D01*
X72604659Y-84684659D01*
X72475078Y-84791004D01*
X72475076Y-84791005D01*
X72327242Y-84870024D01*
X72166823Y-84918687D01*
X72041804Y-84931000D01*
X71958196Y-84931000D01*
X71833177Y-84918687D01*
X71672758Y-84870024D01*
X71524924Y-84791005D01*
X71524922Y-84791004D01*
X71395341Y-84684659D01*
X71288996Y-84555078D01*
X71280886Y-84539906D01*
X71209976Y-84407242D01*
X71161313Y-84246823D01*
X71144883Y-84080000D01*
X71161313Y-83913177D01*
X71209976Y-83752758D01*
X71288995Y-83604924D01*
X71288996Y-83604922D01*
X71395341Y-83475341D01*
X71524922Y-83368996D01*
X71540094Y-83360886D01*
X71672758Y-83289976D01*
X71833177Y-83241313D01*
X71958196Y-83229000D01*
X72041804Y-83229000D01*
X72166823Y-83241313D01*
X72166823Y-83241313D01*
G37*
G36*
X79786823Y-83241313D02*
G01*
X79947242Y-83289976D01*
X80079906Y-83360886D01*
X80095078Y-83368996D01*
X80224659Y-83475341D01*
X80331004Y-83604922D01*
X80331005Y-83604924D01*
X80410024Y-83752758D01*
X80458687Y-83913177D01*
X80475117Y-84080000D01*
X80458687Y-84246823D01*
X80410024Y-84407242D01*
X80339114Y-84539906D01*
X80331004Y-84555078D01*
X80224659Y-84684659D01*
X80095078Y-84791004D01*
X80095076Y-84791005D01*
X79947242Y-84870024D01*
X79786823Y-84918687D01*
X79661804Y-84931000D01*
X79578196Y-84931000D01*
X79453177Y-84918687D01*
X79292758Y-84870024D01*
X79144924Y-84791005D01*
X79144922Y-84791004D01*
X79015341Y-84684659D01*
X78908996Y-84555078D01*
X78900886Y-84539906D01*
X78829976Y-84407242D01*
X78781313Y-84246823D01*
X78764883Y-84080000D01*
X78781313Y-83913177D01*
X78829976Y-83752758D01*
X78908995Y-83604924D01*
X78908996Y-83604922D01*
X79015341Y-83475341D01*
X79144922Y-83368996D01*
X79160094Y-83360886D01*
X79292758Y-83289976D01*
X79453177Y-83241313D01*
X79578196Y-83229000D01*
X79661804Y-83229000D01*
X79786823Y-83241313D01*
X79786823Y-83241313D01*
G37*
G36*
X79786823Y-80701313D02*
G01*
X79910037Y-80738690D01*
X79933651Y-80745853D01*
X79947242Y-80749976D01*
X80079906Y-80820886D01*
X80095078Y-80828996D01*
X80224659Y-80935341D01*
X80331004Y-81064922D01*
X80331005Y-81064924D01*
X80410024Y-81212758D01*
X80458687Y-81373177D01*
X80475117Y-81540000D01*
X80458687Y-81706823D01*
X80410024Y-81867242D01*
X80390859Y-81903097D01*
X80331004Y-82015078D01*
X80224659Y-82144659D01*
X80095078Y-82251004D01*
X80095076Y-82251005D01*
X79947242Y-82330024D01*
X79786823Y-82378687D01*
X79661804Y-82391000D01*
X79578196Y-82391000D01*
X79453177Y-82378687D01*
X79292758Y-82330024D01*
X79144924Y-82251005D01*
X79144922Y-82251004D01*
X79015341Y-82144659D01*
X78908996Y-82015078D01*
X78849141Y-81903097D01*
X78829976Y-81867242D01*
X78781313Y-81706823D01*
X78764883Y-81540000D01*
X78781313Y-81373177D01*
X78829976Y-81212758D01*
X78908995Y-81064924D01*
X78908996Y-81064922D01*
X79015341Y-80935341D01*
X79144922Y-80828996D01*
X79160094Y-80820886D01*
X79292758Y-80749976D01*
X79306350Y-80745853D01*
X79329963Y-80738690D01*
X79453177Y-80701313D01*
X79578196Y-80689000D01*
X79661804Y-80689000D01*
X79786823Y-80701313D01*
X79786823Y-80701313D01*
G37*
G36*
X72166823Y-80701313D02*
G01*
X72290037Y-80738690D01*
X72313651Y-80745853D01*
X72327242Y-80749976D01*
X72459906Y-80820886D01*
X72475078Y-80828996D01*
X72604659Y-80935341D01*
X72711004Y-81064922D01*
X72711005Y-81064924D01*
X72790024Y-81212758D01*
X72838687Y-81373177D01*
X72855117Y-81540000D01*
X72838687Y-81706823D01*
X72790024Y-81867242D01*
X72770859Y-81903097D01*
X72711004Y-82015078D01*
X72604659Y-82144659D01*
X72475078Y-82251004D01*
X72475076Y-82251005D01*
X72327242Y-82330024D01*
X72166823Y-82378687D01*
X72041804Y-82391000D01*
X71958196Y-82391000D01*
X71833177Y-82378687D01*
X71672758Y-82330024D01*
X71524924Y-82251005D01*
X71524922Y-82251004D01*
X71395341Y-82144659D01*
X71288996Y-82015078D01*
X71229141Y-81903097D01*
X71209976Y-81867242D01*
X71161313Y-81706823D01*
X71144883Y-81540000D01*
X71161313Y-81373177D01*
X71209976Y-81212758D01*
X71288995Y-81064924D01*
X71288996Y-81064922D01*
X71395341Y-80935341D01*
X71524922Y-80828996D01*
X71540094Y-80820886D01*
X71672758Y-80749976D01*
X71686350Y-80745853D01*
X71709963Y-80738690D01*
X71833177Y-80701313D01*
X71958196Y-80689000D01*
X72041804Y-80689000D01*
X72166823Y-80701313D01*
X72166823Y-80701313D01*
G37*
G36*
X85248228Y-80681703D02*
G01*
X85403100Y-80745853D01*
X85542481Y-80838985D01*
X85661015Y-80957519D01*
X85754147Y-81096900D01*
X85818297Y-81251772D01*
X85851000Y-81416184D01*
X85851000Y-81583816D01*
X85818297Y-81748228D01*
X85754147Y-81903100D01*
X85661015Y-82042481D01*
X85542481Y-82161015D01*
X85403100Y-82254147D01*
X85248228Y-82318297D01*
X85083816Y-82351000D01*
X84916184Y-82351000D01*
X84751772Y-82318297D01*
X84596900Y-82254147D01*
X84457519Y-82161015D01*
X84338985Y-82042481D01*
X84245853Y-81903100D01*
X84181703Y-81748228D01*
X84149000Y-81583816D01*
X84149000Y-81416184D01*
X84181703Y-81251772D01*
X84245853Y-81096900D01*
X84338985Y-80957519D01*
X84457519Y-80838985D01*
X84596900Y-80745853D01*
X84751772Y-80681703D01*
X84916184Y-80649000D01*
X85083816Y-80649000D01*
X85248228Y-80681703D01*
X85248228Y-80681703D01*
G37*
G36*
X65817395Y-79085546D02*
G01*
X65990466Y-79157234D01*
X65990467Y-79157235D01*
X66146227Y-79261310D01*
X66278690Y-79393773D01*
X66278691Y-79393775D01*
X66382766Y-79549534D01*
X66454454Y-79722605D01*
X66491000Y-79906333D01*
X66491000Y-80093667D01*
X66454454Y-80277395D01*
X66382766Y-80450466D01*
X66382765Y-80450467D01*
X66278690Y-80606227D01*
X66146227Y-80738690D01*
X66129336Y-80749976D01*
X65990466Y-80842766D01*
X65817395Y-80914454D01*
X65633667Y-80951000D01*
X65446333Y-80951000D01*
X65262605Y-80914454D01*
X65089534Y-80842766D01*
X64950664Y-80749976D01*
X64933773Y-80738690D01*
X64801310Y-80606227D01*
X64697235Y-80450467D01*
X64697234Y-80450466D01*
X64625546Y-80277395D01*
X64589000Y-80093667D01*
X64589000Y-79906333D01*
X64625546Y-79722605D01*
X64697234Y-79549534D01*
X64801309Y-79393775D01*
X64801310Y-79393773D01*
X64933773Y-79261310D01*
X65089533Y-79157235D01*
X65089534Y-79157234D01*
X65262605Y-79085546D01*
X65446333Y-79049000D01*
X65633667Y-79049000D01*
X65817395Y-79085546D01*
X65817395Y-79085546D01*
G37*
G36*
X63951000Y-80951000D02*
G01*
X62049000Y-80951000D01*
X62049000Y-79049000D01*
X63951000Y-79049000D01*
X63951000Y-80951000D01*
X63951000Y-80951000D01*
G37*
G36*
X79786823Y-78161313D02*
G01*
X79947242Y-78209976D01*
X80079906Y-78280886D01*
X80095078Y-78288996D01*
X80224659Y-78395341D01*
X80331004Y-78524922D01*
X80331005Y-78524924D01*
X80410024Y-78672758D01*
X80458687Y-78833177D01*
X80475117Y-79000000D01*
X80458687Y-79166823D01*
X80410024Y-79327242D01*
X80374462Y-79393773D01*
X80331004Y-79475078D01*
X80224659Y-79604659D01*
X80095078Y-79711004D01*
X80095076Y-79711005D01*
X79947242Y-79790024D01*
X79786823Y-79838687D01*
X79661804Y-79851000D01*
X79578196Y-79851000D01*
X79453177Y-79838687D01*
X79292758Y-79790024D01*
X79144924Y-79711005D01*
X79144922Y-79711004D01*
X79015341Y-79604659D01*
X78908996Y-79475078D01*
X78865538Y-79393773D01*
X78829976Y-79327242D01*
X78781313Y-79166823D01*
X78764883Y-79000000D01*
X78781313Y-78833177D01*
X78829976Y-78672758D01*
X78908995Y-78524924D01*
X78908996Y-78524922D01*
X79015341Y-78395341D01*
X79144922Y-78288996D01*
X79160094Y-78280886D01*
X79292758Y-78209976D01*
X79453177Y-78161313D01*
X79578196Y-78149000D01*
X79661804Y-78149000D01*
X79786823Y-78161313D01*
X79786823Y-78161313D01*
G37*
G36*
X72851000Y-79851000D02*
G01*
X71149000Y-79851000D01*
X71149000Y-78149000D01*
X72851000Y-78149000D01*
X72851000Y-79851000D01*
X72851000Y-79851000D01*
G37*
G36*
X72248228Y-74181703D02*
G01*
X72403100Y-74245853D01*
X72542481Y-74338985D01*
X72661015Y-74457519D01*
X72754147Y-74596900D01*
X72818297Y-74751772D01*
X72851000Y-74916184D01*
X72851000Y-75083816D01*
X72818297Y-75248228D01*
X72754147Y-75403100D01*
X72661015Y-75542481D01*
X72542481Y-75661015D01*
X72403100Y-75754147D01*
X72248228Y-75818297D01*
X72083816Y-75851000D01*
X71916184Y-75851000D01*
X71751772Y-75818297D01*
X71596900Y-75754147D01*
X71457519Y-75661015D01*
X71338985Y-75542481D01*
X71245853Y-75403100D01*
X71181703Y-75248228D01*
X71149000Y-75083816D01*
X71149000Y-74916184D01*
X71181703Y-74751772D01*
X71245853Y-74596900D01*
X71338985Y-74457519D01*
X71457519Y-74338985D01*
X71596900Y-74245853D01*
X71751772Y-74181703D01*
X71916184Y-74149000D01*
X72083816Y-74149000D01*
X72248228Y-74181703D01*
X72248228Y-74181703D01*
G37*
G36*
X77248228Y-74181703D02*
G01*
X77403100Y-74245853D01*
X77542481Y-74338985D01*
X77661015Y-74457519D01*
X77754147Y-74596900D01*
X77818297Y-74751772D01*
X77851000Y-74916184D01*
X77851000Y-75083816D01*
X77818297Y-75248228D01*
X77754147Y-75403100D01*
X77661015Y-75542481D01*
X77542481Y-75661015D01*
X77403100Y-75754147D01*
X77248228Y-75818297D01*
X77083816Y-75851000D01*
X76916184Y-75851000D01*
X76751772Y-75818297D01*
X76596900Y-75754147D01*
X76457519Y-75661015D01*
X76338985Y-75542481D01*
X76245853Y-75403100D01*
X76181703Y-75248228D01*
X76149000Y-75083816D01*
X76149000Y-74916184D01*
X76181703Y-74751772D01*
X76245853Y-74596900D01*
X76338985Y-74457519D01*
X76457519Y-74338985D01*
X76596900Y-74245853D01*
X76751772Y-74181703D01*
X76916184Y-74149000D01*
X77083816Y-74149000D01*
X77248228Y-74181703D01*
X77248228Y-74181703D01*
G37*
G36*
X65817395Y-72085546D02*
G01*
X65990466Y-72157234D01*
X65990467Y-72157235D01*
X66146227Y-72261310D01*
X66278690Y-72393773D01*
X66278691Y-72393775D01*
X66382766Y-72549534D01*
X66454454Y-72722605D01*
X66491000Y-72906333D01*
X66491000Y-73093667D01*
X66454454Y-73277395D01*
X66382766Y-73450466D01*
X66382765Y-73450467D01*
X66278690Y-73606227D01*
X66146227Y-73738690D01*
X66067818Y-73791081D01*
X65990466Y-73842766D01*
X65817395Y-73914454D01*
X65633667Y-73951000D01*
X65446333Y-73951000D01*
X65262605Y-73914454D01*
X65089534Y-73842766D01*
X65012182Y-73791081D01*
X64933773Y-73738690D01*
X64801310Y-73606227D01*
X64697235Y-73450467D01*
X64697234Y-73450466D01*
X64625546Y-73277395D01*
X64589000Y-73093667D01*
X64589000Y-72906333D01*
X64625546Y-72722605D01*
X64697234Y-72549534D01*
X64801309Y-72393775D01*
X64801310Y-72393773D01*
X64933773Y-72261310D01*
X65089533Y-72157235D01*
X65089534Y-72157234D01*
X65262605Y-72085546D01*
X65446333Y-72049000D01*
X65633667Y-72049000D01*
X65817395Y-72085546D01*
X65817395Y-72085546D01*
G37*
G36*
X63951000Y-73951000D02*
G01*
X62049000Y-73951000D01*
X62049000Y-72049000D01*
X63951000Y-72049000D01*
X63951000Y-73951000D01*
X63951000Y-73951000D01*
G37*
G36*
X91375256Y-62391298D02*
G01*
X91481579Y-62412447D01*
X91782042Y-62536903D01*
X92052451Y-62717585D01*
X92282415Y-62947549D01*
X92463097Y-63217958D01*
X92587553Y-63518421D01*
X92651000Y-63837391D01*
X92651000Y-64162609D01*
X92587553Y-64481579D01*
X92463097Y-64782042D01*
X92282415Y-65052451D01*
X92052451Y-65282415D01*
X91782042Y-65463097D01*
X91481579Y-65587553D01*
X91375256Y-65608702D01*
X91162611Y-65651000D01*
X90837389Y-65651000D01*
X90624744Y-65608702D01*
X90518421Y-65587553D01*
X90217958Y-65463097D01*
X89947549Y-65282415D01*
X89717585Y-65052451D01*
X89536903Y-64782042D01*
X89412447Y-64481579D01*
X89349000Y-64162609D01*
X89349000Y-63837391D01*
X89412447Y-63518421D01*
X89536903Y-63217958D01*
X89717585Y-62947549D01*
X89947549Y-62717585D01*
X90217958Y-62536903D01*
X90518421Y-62412447D01*
X90624744Y-62391298D01*
X90837389Y-62349000D01*
X91162611Y-62349000D01*
X91375256Y-62391298D01*
X91375256Y-62391298D01*
G37*
G36*
X64375256Y-62391298D02*
G01*
X64481579Y-62412447D01*
X64782042Y-62536903D01*
X65052451Y-62717585D01*
X65282415Y-62947549D01*
X65463097Y-63217958D01*
X65587553Y-63518421D01*
X65651000Y-63837391D01*
X65651000Y-64162609D01*
X65587553Y-64481579D01*
X65463097Y-64782042D01*
X65282415Y-65052451D01*
X65052451Y-65282415D01*
X64782042Y-65463097D01*
X64481579Y-65587553D01*
X64375256Y-65608702D01*
X64162611Y-65651000D01*
X63837389Y-65651000D01*
X63624744Y-65608702D01*
X63518421Y-65587553D01*
X63217958Y-65463097D01*
X62947549Y-65282415D01*
X62717585Y-65052451D01*
X62536903Y-64782042D01*
X62412447Y-64481579D01*
X62349000Y-64162609D01*
X62349000Y-63837391D01*
X62412447Y-63518421D01*
X62536903Y-63217958D01*
X62717585Y-62947549D01*
X62947549Y-62717585D01*
X63217958Y-62536903D01*
X63518421Y-62412447D01*
X63624744Y-62391298D01*
X63837389Y-62349000D01*
X64162611Y-62349000D01*
X64375256Y-62391298D01*
X64375256Y-62391298D01*
G37*
M02*
