G04 #@! TF.GenerationSoftware,KiCad,Pcbnew,(5.1.2)-1*
G04 #@! TF.CreationDate,2019-06-03T07:10:03-07:00*
G04 #@! TF.ProjectId,selector,73656c65-6374-46f7-922e-6b696361645f,rev?*
G04 #@! TF.SameCoordinates,Original*
G04 #@! TF.FileFunction,Legend,Top*
G04 #@! TF.FilePolarity,Positive*
%FSLAX46Y46*%
G04 Gerber Fmt 4.6, Leading zero omitted, Abs format (unit mm)*
G04 Created by KiCad (PCBNEW (5.1.2)-1) date 2019-06-03 07:10:03*
%MOMM*%
%LPD*%
G04 APERTURE LIST*
%ADD10C,0.150000*%
%ADD11C,0.120000*%
%ADD12C,0.100000*%
G04 APERTURE END LIST*
D10*
X74857142Y-70178571D02*
X75214285Y-71178571D01*
X75571428Y-70178571D01*
X76928571Y-71178571D02*
X76071428Y-71178571D01*
X76500000Y-71178571D02*
X76500000Y-69678571D01*
X76357142Y-69892857D01*
X76214285Y-70035714D01*
X76071428Y-70107142D01*
X77571428Y-71035714D02*
X77642857Y-71107142D01*
X77571428Y-71178571D01*
X77500000Y-71107142D01*
X77571428Y-71035714D01*
X77571428Y-71178571D01*
X79071428Y-71178571D02*
X78214285Y-71178571D01*
X78642857Y-71178571D02*
X78642857Y-69678571D01*
X78500000Y-69892857D01*
X78357142Y-70035714D01*
X78214285Y-70107142D01*
X69119047Y-68309523D02*
X69404761Y-68404761D01*
X69880952Y-68404761D01*
X70071428Y-68309523D01*
X70166666Y-68214285D01*
X70261904Y-68023809D01*
X70261904Y-67833333D01*
X70166666Y-67642857D01*
X70071428Y-67547619D01*
X69880952Y-67452380D01*
X69500000Y-67357142D01*
X69309523Y-67261904D01*
X69214285Y-67166666D01*
X69119047Y-66976190D01*
X69119047Y-66785714D01*
X69214285Y-66595238D01*
X69309523Y-66500000D01*
X69500000Y-66404761D01*
X69976190Y-66404761D01*
X70261904Y-66500000D01*
X71119047Y-67071428D02*
X71119047Y-69071428D01*
X71119047Y-67166666D02*
X71309523Y-67071428D01*
X71690476Y-67071428D01*
X71880952Y-67166666D01*
X71976190Y-67261904D01*
X72071428Y-67452380D01*
X72071428Y-68023809D01*
X71976190Y-68214285D01*
X71880952Y-68309523D01*
X71690476Y-68404761D01*
X71309523Y-68404761D01*
X71119047Y-68309523D01*
X73785714Y-67071428D02*
X73785714Y-68404761D01*
X72928571Y-67071428D02*
X72928571Y-68119047D01*
X73023809Y-68309523D01*
X73214285Y-68404761D01*
X73500000Y-68404761D01*
X73690476Y-68309523D01*
X73785714Y-68214285D01*
X75595238Y-68404761D02*
X75595238Y-66404761D01*
X75595238Y-68309523D02*
X75404761Y-68404761D01*
X75023809Y-68404761D01*
X74833333Y-68309523D01*
X74738095Y-68214285D01*
X74642857Y-68023809D01*
X74642857Y-67452380D01*
X74738095Y-67261904D01*
X74833333Y-67166666D01*
X75023809Y-67071428D01*
X75404761Y-67071428D01*
X75595238Y-67166666D01*
X78738095Y-67357142D02*
X79023809Y-67452380D01*
X79119047Y-67547619D01*
X79214285Y-67738095D01*
X79214285Y-68023809D01*
X79119047Y-68214285D01*
X79023809Y-68309523D01*
X78833333Y-68404761D01*
X78071428Y-68404761D01*
X78071428Y-66404761D01*
X78738095Y-66404761D01*
X78928571Y-66500000D01*
X79023809Y-66595238D01*
X79119047Y-66785714D01*
X79119047Y-66976190D01*
X79023809Y-67166666D01*
X78928571Y-67261904D01*
X78738095Y-67357142D01*
X78071428Y-67357142D01*
X80357142Y-68404761D02*
X80166666Y-68309523D01*
X80071428Y-68214285D01*
X79976190Y-68023809D01*
X79976190Y-67452380D01*
X80071428Y-67261904D01*
X80166666Y-67166666D01*
X80357142Y-67071428D01*
X80642857Y-67071428D01*
X80833333Y-67166666D01*
X80928571Y-67261904D01*
X81023809Y-67452380D01*
X81023809Y-68023809D01*
X80928571Y-68214285D01*
X80833333Y-68309523D01*
X80642857Y-68404761D01*
X80357142Y-68404761D01*
X82738095Y-68404761D02*
X82738095Y-67357142D01*
X82642857Y-67166666D01*
X82452380Y-67071428D01*
X82071428Y-67071428D01*
X81880952Y-67166666D01*
X82738095Y-68309523D02*
X82547619Y-68404761D01*
X82071428Y-68404761D01*
X81880952Y-68309523D01*
X81785714Y-68119047D01*
X81785714Y-67928571D01*
X81880952Y-67738095D01*
X82071428Y-67642857D01*
X82547619Y-67642857D01*
X82738095Y-67547619D01*
X83690476Y-68404761D02*
X83690476Y-67071428D01*
X83690476Y-67452380D02*
X83785714Y-67261904D01*
X83880952Y-67166666D01*
X84071428Y-67071428D01*
X84261904Y-67071428D01*
X85785714Y-68404761D02*
X85785714Y-66404761D01*
X85785714Y-68309523D02*
X85595238Y-68404761D01*
X85214285Y-68404761D01*
X85023809Y-68309523D01*
X84928571Y-68214285D01*
X84833333Y-68023809D01*
X84833333Y-67452380D01*
X84928571Y-67261904D01*
X85023809Y-67166666D01*
X85214285Y-67071428D01*
X85595238Y-67071428D01*
X85785714Y-67166666D01*
X67404761Y-63000000D02*
X67214285Y-62904761D01*
X66928571Y-62904761D01*
X66642857Y-63000000D01*
X66452380Y-63190476D01*
X66357142Y-63380952D01*
X66261904Y-63761904D01*
X66261904Y-64047619D01*
X66357142Y-64428571D01*
X66452380Y-64619047D01*
X66642857Y-64809523D01*
X66928571Y-64904761D01*
X67119047Y-64904761D01*
X67404761Y-64809523D01*
X67500000Y-64714285D01*
X67500000Y-64047619D01*
X67119047Y-64047619D01*
X68357142Y-64904761D02*
X68357142Y-63571428D01*
X68357142Y-63952380D02*
X68452380Y-63761904D01*
X68547619Y-63666666D01*
X68738095Y-63571428D01*
X68928571Y-63571428D01*
X70357142Y-64809523D02*
X70166666Y-64904761D01*
X69785714Y-64904761D01*
X69595238Y-64809523D01*
X69500000Y-64619047D01*
X69500000Y-63857142D01*
X69595238Y-63666666D01*
X69785714Y-63571428D01*
X70166666Y-63571428D01*
X70357142Y-63666666D01*
X70452380Y-63857142D01*
X70452380Y-64047619D01*
X69500000Y-64238095D01*
X72071428Y-64809523D02*
X71880952Y-64904761D01*
X71500000Y-64904761D01*
X71309523Y-64809523D01*
X71214285Y-64619047D01*
X71214285Y-63857142D01*
X71309523Y-63666666D01*
X71500000Y-63571428D01*
X71880952Y-63571428D01*
X72071428Y-63666666D01*
X72166666Y-63857142D01*
X72166666Y-64047619D01*
X71214285Y-64238095D01*
X73023809Y-63571428D02*
X73023809Y-64904761D01*
X73023809Y-63761904D02*
X73119047Y-63666666D01*
X73309523Y-63571428D01*
X73595238Y-63571428D01*
X73785714Y-63666666D01*
X73880952Y-63857142D01*
X73880952Y-64904761D01*
X74547619Y-63571428D02*
X75309523Y-63571428D01*
X74833333Y-64904761D02*
X74833333Y-63190476D01*
X74928571Y-63000000D01*
X75119047Y-62904761D01*
X75309523Y-62904761D01*
X76833333Y-64904761D02*
X76833333Y-63857142D01*
X76738095Y-63666666D01*
X76547619Y-63571428D01*
X76166666Y-63571428D01*
X75976190Y-63666666D01*
X76833333Y-64809523D02*
X76642857Y-64904761D01*
X76166666Y-64904761D01*
X75976190Y-64809523D01*
X75880952Y-64619047D01*
X75880952Y-64428571D01*
X75976190Y-64238095D01*
X76166666Y-64142857D01*
X76642857Y-64142857D01*
X76833333Y-64047619D01*
X78642857Y-64809523D02*
X78452380Y-64904761D01*
X78071428Y-64904761D01*
X77880952Y-64809523D01*
X77785714Y-64714285D01*
X77690476Y-64523809D01*
X77690476Y-63952380D01*
X77785714Y-63761904D01*
X77880952Y-63666666D01*
X78071428Y-63571428D01*
X78452380Y-63571428D01*
X78642857Y-63666666D01*
X80261904Y-64809523D02*
X80071428Y-64904761D01*
X79690476Y-64904761D01*
X79500000Y-64809523D01*
X79404761Y-64619047D01*
X79404761Y-63857142D01*
X79500000Y-63666666D01*
X79690476Y-63571428D01*
X80071428Y-63571428D01*
X80261904Y-63666666D01*
X80357142Y-63857142D01*
X80357142Y-64047619D01*
X79404761Y-64238095D01*
X83690476Y-64904761D02*
X82738095Y-64904761D01*
X82738095Y-62904761D01*
X85214285Y-64904761D02*
X85214285Y-63857142D01*
X85119047Y-63666666D01*
X84928571Y-63571428D01*
X84547619Y-63571428D01*
X84357142Y-63666666D01*
X85214285Y-64809523D02*
X85023809Y-64904761D01*
X84547619Y-64904761D01*
X84357142Y-64809523D01*
X84261904Y-64619047D01*
X84261904Y-64428571D01*
X84357142Y-64238095D01*
X84547619Y-64142857D01*
X85023809Y-64142857D01*
X85214285Y-64047619D01*
X86166666Y-64904761D02*
X86166666Y-62904761D01*
X86166666Y-63666666D02*
X86357142Y-63571428D01*
X86738095Y-63571428D01*
X86928571Y-63666666D01*
X87023809Y-63761904D01*
X87119047Y-63952380D01*
X87119047Y-64523809D01*
X87023809Y-64714285D01*
X86928571Y-64809523D01*
X86738095Y-64904761D01*
X86357142Y-64904761D01*
X86166666Y-64809523D01*
X87880952Y-64809523D02*
X88071428Y-64904761D01*
X88452380Y-64904761D01*
X88642857Y-64809523D01*
X88738095Y-64619047D01*
X88738095Y-64523809D01*
X88642857Y-64333333D01*
X88452380Y-64238095D01*
X88166666Y-64238095D01*
X87976190Y-64142857D01*
X87880952Y-63952380D01*
X87880952Y-63857142D01*
X87976190Y-63666666D01*
X88166666Y-63571428D01*
X88452380Y-63571428D01*
X88642857Y-63666666D01*
D11*
X67370000Y-158665000D02*
X67370000Y-159370000D01*
X67370000Y-156630000D02*
X67370000Y-157335000D01*
X63130000Y-158665000D02*
X63130000Y-159370000D01*
X63130000Y-156630000D02*
X63130000Y-157335000D01*
X63130000Y-159370000D02*
X67370000Y-159370000D01*
X63130000Y-156630000D02*
X67370000Y-156630000D01*
X88130000Y-155630000D02*
X92370000Y-155630000D01*
X88130000Y-158370000D02*
X92370000Y-158370000D01*
X88130000Y-155630000D02*
X88130000Y-156335000D01*
X88130000Y-157665000D02*
X88130000Y-158370000D01*
X92370000Y-155630000D02*
X92370000Y-156335000D01*
X92370000Y-157665000D02*
X92370000Y-158370000D01*
X93870000Y-106000000D02*
G75*
G03X93870000Y-106000000I-4120000J0D01*
G01*
X89750000Y-101920000D02*
X89750000Y-110080000D01*
X89790000Y-101920000D02*
X89790000Y-110080000D01*
X89830000Y-101920000D02*
X89830000Y-110080000D01*
X89870000Y-101921000D02*
X89870000Y-110079000D01*
X89910000Y-101923000D02*
X89910000Y-110077000D01*
X89950000Y-101924000D02*
X89950000Y-110076000D01*
X89990000Y-101926000D02*
X89990000Y-110074000D01*
X90030000Y-101929000D02*
X90030000Y-110071000D01*
X90070000Y-101932000D02*
X90070000Y-110068000D01*
X90110000Y-101935000D02*
X90110000Y-110065000D01*
X90150000Y-101939000D02*
X90150000Y-110061000D01*
X90190000Y-101943000D02*
X90190000Y-110057000D01*
X90230000Y-101948000D02*
X90230000Y-110052000D01*
X90270000Y-101952000D02*
X90270000Y-110048000D01*
X90310000Y-101958000D02*
X90310000Y-110042000D01*
X90350000Y-101963000D02*
X90350000Y-110037000D01*
X90390000Y-101970000D02*
X90390000Y-110030000D01*
X90430000Y-101976000D02*
X90430000Y-110024000D01*
X90471000Y-101983000D02*
X90471000Y-104960000D01*
X90471000Y-107040000D02*
X90471000Y-110017000D01*
X90511000Y-101990000D02*
X90511000Y-104960000D01*
X90511000Y-107040000D02*
X90511000Y-110010000D01*
X90551000Y-101998000D02*
X90551000Y-104960000D01*
X90551000Y-107040000D02*
X90551000Y-110002000D01*
X90591000Y-102006000D02*
X90591000Y-104960000D01*
X90591000Y-107040000D02*
X90591000Y-109994000D01*
X90631000Y-102015000D02*
X90631000Y-104960000D01*
X90631000Y-107040000D02*
X90631000Y-109985000D01*
X90671000Y-102024000D02*
X90671000Y-104960000D01*
X90671000Y-107040000D02*
X90671000Y-109976000D01*
X90711000Y-102033000D02*
X90711000Y-104960000D01*
X90711000Y-107040000D02*
X90711000Y-109967000D01*
X90751000Y-102043000D02*
X90751000Y-104960000D01*
X90751000Y-107040000D02*
X90751000Y-109957000D01*
X90791000Y-102053000D02*
X90791000Y-104960000D01*
X90791000Y-107040000D02*
X90791000Y-109947000D01*
X90831000Y-102064000D02*
X90831000Y-104960000D01*
X90831000Y-107040000D02*
X90831000Y-109936000D01*
X90871000Y-102075000D02*
X90871000Y-104960000D01*
X90871000Y-107040000D02*
X90871000Y-109925000D01*
X90911000Y-102086000D02*
X90911000Y-104960000D01*
X90911000Y-107040000D02*
X90911000Y-109914000D01*
X90951000Y-102098000D02*
X90951000Y-104960000D01*
X90951000Y-107040000D02*
X90951000Y-109902000D01*
X90991000Y-102111000D02*
X90991000Y-104960000D01*
X90991000Y-107040000D02*
X90991000Y-109889000D01*
X91031000Y-102123000D02*
X91031000Y-104960000D01*
X91031000Y-107040000D02*
X91031000Y-109877000D01*
X91071000Y-102137000D02*
X91071000Y-104960000D01*
X91071000Y-107040000D02*
X91071000Y-109863000D01*
X91111000Y-102150000D02*
X91111000Y-104960000D01*
X91111000Y-107040000D02*
X91111000Y-109850000D01*
X91151000Y-102165000D02*
X91151000Y-104960000D01*
X91151000Y-107040000D02*
X91151000Y-109835000D01*
X91191000Y-102179000D02*
X91191000Y-104960000D01*
X91191000Y-107040000D02*
X91191000Y-109821000D01*
X91231000Y-102195000D02*
X91231000Y-104960000D01*
X91231000Y-107040000D02*
X91231000Y-109805000D01*
X91271000Y-102210000D02*
X91271000Y-104960000D01*
X91271000Y-107040000D02*
X91271000Y-109790000D01*
X91311000Y-102226000D02*
X91311000Y-104960000D01*
X91311000Y-107040000D02*
X91311000Y-109774000D01*
X91351000Y-102243000D02*
X91351000Y-104960000D01*
X91351000Y-107040000D02*
X91351000Y-109757000D01*
X91391000Y-102260000D02*
X91391000Y-104960000D01*
X91391000Y-107040000D02*
X91391000Y-109740000D01*
X91431000Y-102278000D02*
X91431000Y-104960000D01*
X91431000Y-107040000D02*
X91431000Y-109722000D01*
X91471000Y-102296000D02*
X91471000Y-104960000D01*
X91471000Y-107040000D02*
X91471000Y-109704000D01*
X91511000Y-102314000D02*
X91511000Y-104960000D01*
X91511000Y-107040000D02*
X91511000Y-109686000D01*
X91551000Y-102334000D02*
X91551000Y-104960000D01*
X91551000Y-107040000D02*
X91551000Y-109666000D01*
X91591000Y-102353000D02*
X91591000Y-104960000D01*
X91591000Y-107040000D02*
X91591000Y-109647000D01*
X91631000Y-102373000D02*
X91631000Y-104960000D01*
X91631000Y-107040000D02*
X91631000Y-109627000D01*
X91671000Y-102394000D02*
X91671000Y-104960000D01*
X91671000Y-107040000D02*
X91671000Y-109606000D01*
X91711000Y-102416000D02*
X91711000Y-104960000D01*
X91711000Y-107040000D02*
X91711000Y-109584000D01*
X91751000Y-102438000D02*
X91751000Y-104960000D01*
X91751000Y-107040000D02*
X91751000Y-109562000D01*
X91791000Y-102460000D02*
X91791000Y-104960000D01*
X91791000Y-107040000D02*
X91791000Y-109540000D01*
X91831000Y-102483000D02*
X91831000Y-104960000D01*
X91831000Y-107040000D02*
X91831000Y-109517000D01*
X91871000Y-102507000D02*
X91871000Y-104960000D01*
X91871000Y-107040000D02*
X91871000Y-109493000D01*
X91911000Y-102531000D02*
X91911000Y-104960000D01*
X91911000Y-107040000D02*
X91911000Y-109469000D01*
X91951000Y-102556000D02*
X91951000Y-104960000D01*
X91951000Y-107040000D02*
X91951000Y-109444000D01*
X91991000Y-102582000D02*
X91991000Y-104960000D01*
X91991000Y-107040000D02*
X91991000Y-109418000D01*
X92031000Y-102608000D02*
X92031000Y-104960000D01*
X92031000Y-107040000D02*
X92031000Y-109392000D01*
X92071000Y-102635000D02*
X92071000Y-104960000D01*
X92071000Y-107040000D02*
X92071000Y-109365000D01*
X92111000Y-102662000D02*
X92111000Y-104960000D01*
X92111000Y-107040000D02*
X92111000Y-109338000D01*
X92151000Y-102691000D02*
X92151000Y-104960000D01*
X92151000Y-107040000D02*
X92151000Y-109309000D01*
X92191000Y-102720000D02*
X92191000Y-104960000D01*
X92191000Y-107040000D02*
X92191000Y-109280000D01*
X92231000Y-102750000D02*
X92231000Y-104960000D01*
X92231000Y-107040000D02*
X92231000Y-109250000D01*
X92271000Y-102780000D02*
X92271000Y-104960000D01*
X92271000Y-107040000D02*
X92271000Y-109220000D01*
X92311000Y-102811000D02*
X92311000Y-104960000D01*
X92311000Y-107040000D02*
X92311000Y-109189000D01*
X92351000Y-102844000D02*
X92351000Y-104960000D01*
X92351000Y-107040000D02*
X92351000Y-109156000D01*
X92391000Y-102876000D02*
X92391000Y-104960000D01*
X92391000Y-107040000D02*
X92391000Y-109124000D01*
X92431000Y-102910000D02*
X92431000Y-104960000D01*
X92431000Y-107040000D02*
X92431000Y-109090000D01*
X92471000Y-102945000D02*
X92471000Y-104960000D01*
X92471000Y-107040000D02*
X92471000Y-109055000D01*
X92511000Y-102981000D02*
X92511000Y-104960000D01*
X92511000Y-107040000D02*
X92511000Y-109019000D01*
X92551000Y-103017000D02*
X92551000Y-108983000D01*
X92591000Y-103055000D02*
X92591000Y-108945000D01*
X92631000Y-103093000D02*
X92631000Y-108907000D01*
X92671000Y-103133000D02*
X92671000Y-108867000D01*
X92711000Y-103174000D02*
X92711000Y-108826000D01*
X92751000Y-103216000D02*
X92751000Y-108784000D01*
X92791000Y-103259000D02*
X92791000Y-108741000D01*
X92831000Y-103303000D02*
X92831000Y-108697000D01*
X92871000Y-103349000D02*
X92871000Y-108651000D01*
X92911000Y-103396000D02*
X92911000Y-108604000D01*
X92951000Y-103444000D02*
X92951000Y-108556000D01*
X92991000Y-103495000D02*
X92991000Y-108505000D01*
X93031000Y-103546000D02*
X93031000Y-108454000D01*
X93071000Y-103600000D02*
X93071000Y-108400000D01*
X93111000Y-103655000D02*
X93111000Y-108345000D01*
X93151000Y-103713000D02*
X93151000Y-108287000D01*
X93191000Y-103772000D02*
X93191000Y-108228000D01*
X93231000Y-103834000D02*
X93231000Y-108166000D01*
X93271000Y-103898000D02*
X93271000Y-108102000D01*
X93311000Y-103966000D02*
X93311000Y-108034000D01*
X93351000Y-104036000D02*
X93351000Y-107964000D01*
X93391000Y-104110000D02*
X93391000Y-107890000D01*
X93431000Y-104187000D02*
X93431000Y-107813000D01*
X93471000Y-104269000D02*
X93471000Y-107731000D01*
X93511000Y-104355000D02*
X93511000Y-107645000D01*
X93551000Y-104448000D02*
X93551000Y-107552000D01*
X93591000Y-104547000D02*
X93591000Y-107453000D01*
X93631000Y-104654000D02*
X93631000Y-107346000D01*
X93671000Y-104771000D02*
X93671000Y-107229000D01*
X93711000Y-104902000D02*
X93711000Y-107098000D01*
X93751000Y-105052000D02*
X93751000Y-106948000D01*
X93791000Y-105232000D02*
X93791000Y-106768000D01*
X93831000Y-105467000D02*
X93831000Y-106533000D01*
X85340302Y-103685000D02*
X86140302Y-103685000D01*
X85740302Y-103285000D02*
X85740302Y-104085000D01*
X65942335Y-71921392D02*
G75*
G03X62710000Y-71764484I-1672335J-1078608D01*
G01*
X65942335Y-74078608D02*
G75*
G02X62710000Y-74235516I-1672335J1078608D01*
G01*
X65311130Y-71920163D02*
G75*
G03X63229039Y-71920000I-1041130J-1079837D01*
G01*
X65311130Y-74079837D02*
G75*
G02X63229039Y-74080000I-1041130J1079837D01*
G01*
X62710000Y-71764000D02*
X62710000Y-71920000D01*
X62710000Y-74080000D02*
X62710000Y-74236000D01*
X62710000Y-81080000D02*
X62710000Y-81236000D01*
X62710000Y-78764000D02*
X62710000Y-78920000D01*
X65311130Y-81079837D02*
G75*
G02X63229039Y-81080000I-1041130J1079837D01*
G01*
X65311130Y-78920163D02*
G75*
G03X63229039Y-78920000I-1041130J-1079837D01*
G01*
X65942335Y-81078608D02*
G75*
G02X62710000Y-81235516I-1672335J1078608D01*
G01*
X65942335Y-78921392D02*
G75*
G03X62710000Y-78764484I-1672335J-1078608D01*
G01*
X62710000Y-88080000D02*
X62710000Y-88236000D01*
X62710000Y-85764000D02*
X62710000Y-85920000D01*
X65311130Y-88079837D02*
G75*
G02X63229039Y-88080000I-1041130J1079837D01*
G01*
X65311130Y-85920163D02*
G75*
G03X63229039Y-85920000I-1041130J-1079837D01*
G01*
X65942335Y-88078608D02*
G75*
G02X62710000Y-88235516I-1672335J1078608D01*
G01*
X65942335Y-85921392D02*
G75*
G03X62710000Y-85764484I-1672335J-1078608D01*
G01*
X65942335Y-92921392D02*
G75*
G03X62710000Y-92764484I-1672335J-1078608D01*
G01*
X65942335Y-95078608D02*
G75*
G02X62710000Y-95235516I-1672335J1078608D01*
G01*
X65311130Y-92920163D02*
G75*
G03X63229039Y-92920000I-1041130J-1079837D01*
G01*
X65311130Y-95079837D02*
G75*
G02X63229039Y-95080000I-1041130J1079837D01*
G01*
X62710000Y-92764000D02*
X62710000Y-92920000D01*
X62710000Y-95080000D02*
X62710000Y-95236000D01*
X62710000Y-102080000D02*
X62710000Y-102236000D01*
X62710000Y-99764000D02*
X62710000Y-99920000D01*
X65311130Y-102079837D02*
G75*
G02X63229039Y-102080000I-1041130J1079837D01*
G01*
X65311130Y-99920163D02*
G75*
G03X63229039Y-99920000I-1041130J-1079837D01*
G01*
X65942335Y-102078608D02*
G75*
G02X62710000Y-102235516I-1672335J1078608D01*
G01*
X65942335Y-99921392D02*
G75*
G03X62710000Y-99764484I-1672335J-1078608D01*
G01*
X65942335Y-106921392D02*
G75*
G03X62710000Y-106764484I-1672335J-1078608D01*
G01*
X65942335Y-109078608D02*
G75*
G02X62710000Y-109235516I-1672335J1078608D01*
G01*
X65311130Y-106920163D02*
G75*
G03X63229039Y-106920000I-1041130J-1079837D01*
G01*
X65311130Y-109079837D02*
G75*
G02X63229039Y-109080000I-1041130J1079837D01*
G01*
X62710000Y-106764000D02*
X62710000Y-106920000D01*
X62710000Y-109080000D02*
X62710000Y-109236000D01*
X62710000Y-116080000D02*
X62710000Y-116236000D01*
X62710000Y-113764000D02*
X62710000Y-113920000D01*
X65311130Y-116079837D02*
G75*
G02X63229039Y-116080000I-1041130J1079837D01*
G01*
X65311130Y-113920163D02*
G75*
G03X63229039Y-113920000I-1041130J-1079837D01*
G01*
X65942335Y-116078608D02*
G75*
G02X62710000Y-116235516I-1672335J1078608D01*
G01*
X65942335Y-113921392D02*
G75*
G03X62710000Y-113764484I-1672335J-1078608D01*
G01*
X65942335Y-120921392D02*
G75*
G03X62710000Y-120764484I-1672335J-1078608D01*
G01*
X65942335Y-123078608D02*
G75*
G02X62710000Y-123235516I-1672335J1078608D01*
G01*
X65311130Y-120920163D02*
G75*
G03X63229039Y-120920000I-1041130J-1079837D01*
G01*
X65311130Y-123079837D02*
G75*
G02X63229039Y-123080000I-1041130J1079837D01*
G01*
X62710000Y-120764000D02*
X62710000Y-120920000D01*
X62710000Y-123080000D02*
X62710000Y-123236000D01*
X62710000Y-130080000D02*
X62710000Y-130236000D01*
X62710000Y-127764000D02*
X62710000Y-127920000D01*
X65311130Y-130079837D02*
G75*
G02X63229039Y-130080000I-1041130J1079837D01*
G01*
X65311130Y-127920163D02*
G75*
G03X63229039Y-127920000I-1041130J-1079837D01*
G01*
X65942335Y-130078608D02*
G75*
G02X62710000Y-130235516I-1672335J1078608D01*
G01*
X65942335Y-127921392D02*
G75*
G03X62710000Y-127764484I-1672335J-1078608D01*
G01*
X65942335Y-134921392D02*
G75*
G03X62710000Y-134764484I-1672335J-1078608D01*
G01*
X65942335Y-137078608D02*
G75*
G02X62710000Y-137235516I-1672335J1078608D01*
G01*
X65311130Y-134920163D02*
G75*
G03X63229039Y-134920000I-1041130J-1079837D01*
G01*
X65311130Y-137079837D02*
G75*
G02X63229039Y-137080000I-1041130J1079837D01*
G01*
X62710000Y-134764000D02*
X62710000Y-134920000D01*
X62710000Y-137080000D02*
X62710000Y-137236000D01*
X62710000Y-144080000D02*
X62710000Y-144236000D01*
X62710000Y-141764000D02*
X62710000Y-141920000D01*
X65311130Y-144079837D02*
G75*
G02X63229039Y-144080000I-1041130J1079837D01*
G01*
X65311130Y-141920163D02*
G75*
G03X63229039Y-141920000I-1041130J-1079837D01*
G01*
X65942335Y-144078608D02*
G75*
G02X62710000Y-144235516I-1672335J1078608D01*
G01*
X65942335Y-141921392D02*
G75*
G03X62710000Y-141764484I-1672335J-1078608D01*
G01*
X65942335Y-148921392D02*
G75*
G03X62710000Y-148764484I-1672335J-1078608D01*
G01*
X65942335Y-151078608D02*
G75*
G02X62710000Y-151235516I-1672335J1078608D01*
G01*
X65311130Y-148920163D02*
G75*
G03X63229039Y-148920000I-1041130J-1079837D01*
G01*
X65311130Y-151079837D02*
G75*
G02X63229039Y-151080000I-1041130J1079837D01*
G01*
X62710000Y-148764000D02*
X62710000Y-148920000D01*
X62710000Y-151080000D02*
X62710000Y-151236000D01*
X76000000Y-146120000D02*
X76000000Y-145350000D01*
X76000000Y-138040000D02*
X76000000Y-138810000D01*
X77370000Y-145350000D02*
X77370000Y-138810000D01*
X74630000Y-145350000D02*
X77370000Y-145350000D01*
X74630000Y-138810000D02*
X74630000Y-145350000D01*
X77370000Y-138810000D02*
X74630000Y-138810000D01*
X85370000Y-138810000D02*
X82630000Y-138810000D01*
X82630000Y-138810000D02*
X82630000Y-145350000D01*
X82630000Y-145350000D02*
X85370000Y-145350000D01*
X85370000Y-145350000D02*
X85370000Y-138810000D01*
X84000000Y-138040000D02*
X84000000Y-138810000D01*
X84000000Y-146120000D02*
X84000000Y-145350000D01*
X71000000Y-146120000D02*
X71000000Y-145350000D01*
X71000000Y-138040000D02*
X71000000Y-138810000D01*
X72370000Y-145350000D02*
X72370000Y-138810000D01*
X69630000Y-145350000D02*
X72370000Y-145350000D01*
X69630000Y-138810000D02*
X69630000Y-145350000D01*
X72370000Y-138810000D02*
X69630000Y-138810000D01*
X85000000Y-125620000D02*
X85000000Y-124850000D01*
X85000000Y-117540000D02*
X85000000Y-118310000D01*
X86370000Y-124850000D02*
X86370000Y-118310000D01*
X83630000Y-124850000D02*
X86370000Y-124850000D01*
X83630000Y-118310000D02*
X83630000Y-124850000D01*
X86370000Y-118310000D02*
X83630000Y-118310000D01*
X90370000Y-138810000D02*
X87630000Y-138810000D01*
X87630000Y-138810000D02*
X87630000Y-145350000D01*
X87630000Y-145350000D02*
X90370000Y-145350000D01*
X90370000Y-145350000D02*
X90370000Y-138810000D01*
X89000000Y-138040000D02*
X89000000Y-138810000D01*
X89000000Y-146120000D02*
X89000000Y-145350000D01*
X86370000Y-83310000D02*
X83630000Y-83310000D01*
X83630000Y-83310000D02*
X83630000Y-89850000D01*
X83630000Y-89850000D02*
X86370000Y-89850000D01*
X86370000Y-89850000D02*
X86370000Y-83310000D01*
X85000000Y-82540000D02*
X85000000Y-83310000D01*
X85000000Y-90620000D02*
X85000000Y-89850000D01*
D12*
X72275000Y-165825000D02*
X71325000Y-165825000D01*
X71325000Y-165825000D02*
X71325000Y-165150000D01*
X72175000Y-152175000D02*
X71325000Y-152175000D01*
X71325000Y-152175000D02*
X71325000Y-152850000D01*
X84075000Y-165250000D02*
X84075000Y-165825000D01*
X84075000Y-165825000D02*
X83275000Y-165825000D01*
X83375000Y-152175000D02*
X84075000Y-152175000D01*
X84075000Y-152175000D02*
X84075000Y-152675000D01*
D11*
X78460000Y-77670000D02*
X76810000Y-77670000D01*
X78460000Y-98110000D02*
X78460000Y-77670000D01*
X73160000Y-98110000D02*
X78460000Y-98110000D01*
X73160000Y-77670000D02*
X73160000Y-98110000D01*
X74810000Y-77670000D02*
X73160000Y-77670000D01*
X76810000Y-77670000D02*
G75*
G02X74810000Y-77670000I-1000000J0D01*
G01*
X76810000Y-112670000D02*
G75*
G02X74810000Y-112670000I-1000000J0D01*
G01*
X74810000Y-112670000D02*
X73160000Y-112670000D01*
X73160000Y-112670000D02*
X73160000Y-133110000D01*
X73160000Y-133110000D02*
X78460000Y-133110000D01*
X78460000Y-133110000D02*
X78460000Y-112670000D01*
X78460000Y-112670000D02*
X76810000Y-112670000D01*
X74330000Y-108445000D02*
X74330000Y-107779000D01*
X74330000Y-111221000D02*
X74330000Y-110555000D01*
X79670000Y-108445000D02*
X79670000Y-107779000D01*
X79670000Y-111221000D02*
X79670000Y-110555000D01*
X79670000Y-107779000D02*
X74330000Y-107779000D01*
X79670000Y-111221000D02*
X74330000Y-111221000D01*
X77170000Y-76721000D02*
X71830000Y-76721000D01*
X77170000Y-73279000D02*
X71830000Y-73279000D01*
X77170000Y-76721000D02*
X77170000Y-76055000D01*
X77170000Y-73945000D02*
X77170000Y-73279000D01*
X71830000Y-76721000D02*
X71830000Y-76055000D01*
X71830000Y-73945000D02*
X71830000Y-73279000D01*
D10*
X65083333Y-155857142D02*
X65035714Y-155904761D01*
X64892857Y-155952380D01*
X64797619Y-155952380D01*
X64654761Y-155904761D01*
X64559523Y-155809523D01*
X64511904Y-155714285D01*
X64464285Y-155523809D01*
X64464285Y-155380952D01*
X64511904Y-155190476D01*
X64559523Y-155095238D01*
X64654761Y-155000000D01*
X64797619Y-154952380D01*
X64892857Y-154952380D01*
X65035714Y-155000000D01*
X65083333Y-155047619D01*
X66035714Y-155952380D02*
X65464285Y-155952380D01*
X65750000Y-155952380D02*
X65750000Y-154952380D01*
X65654761Y-155095238D01*
X65559523Y-155190476D01*
X65464285Y-155238095D01*
X90083333Y-154857142D02*
X90035714Y-154904761D01*
X89892857Y-154952380D01*
X89797619Y-154952380D01*
X89654761Y-154904761D01*
X89559523Y-154809523D01*
X89511904Y-154714285D01*
X89464285Y-154523809D01*
X89464285Y-154380952D01*
X89511904Y-154190476D01*
X89559523Y-154095238D01*
X89654761Y-154000000D01*
X89797619Y-153952380D01*
X89892857Y-153952380D01*
X90035714Y-154000000D01*
X90083333Y-154047619D01*
X90464285Y-154047619D02*
X90511904Y-154000000D01*
X90607142Y-153952380D01*
X90845238Y-153952380D01*
X90940476Y-154000000D01*
X90988095Y-154047619D01*
X91035714Y-154142857D01*
X91035714Y-154238095D01*
X90988095Y-154380952D01*
X90416666Y-154952380D01*
X91035714Y-154952380D01*
X89583333Y-101107142D02*
X89535714Y-101154761D01*
X89392857Y-101202380D01*
X89297619Y-101202380D01*
X89154761Y-101154761D01*
X89059523Y-101059523D01*
X89011904Y-100964285D01*
X88964285Y-100773809D01*
X88964285Y-100630952D01*
X89011904Y-100440476D01*
X89059523Y-100345238D01*
X89154761Y-100250000D01*
X89297619Y-100202380D01*
X89392857Y-100202380D01*
X89535714Y-100250000D01*
X89583333Y-100297619D01*
X90440476Y-100535714D02*
X90440476Y-101202380D01*
X90202380Y-100154761D02*
X89964285Y-100869047D01*
X90583333Y-100869047D01*
X63531904Y-70492380D02*
X63531904Y-69492380D01*
X63770000Y-69492380D01*
X63912857Y-69540000D01*
X64008095Y-69635238D01*
X64055714Y-69730476D01*
X64103333Y-69920952D01*
X64103333Y-70063809D01*
X64055714Y-70254285D01*
X64008095Y-70349523D01*
X63912857Y-70444761D01*
X63770000Y-70492380D01*
X63531904Y-70492380D01*
X65055714Y-70492380D02*
X64484285Y-70492380D01*
X64770000Y-70492380D02*
X64770000Y-69492380D01*
X64674761Y-69635238D01*
X64579523Y-69730476D01*
X64484285Y-69778095D01*
X63531904Y-77492380D02*
X63531904Y-76492380D01*
X63770000Y-76492380D01*
X63912857Y-76540000D01*
X64008095Y-76635238D01*
X64055714Y-76730476D01*
X64103333Y-76920952D01*
X64103333Y-77063809D01*
X64055714Y-77254285D01*
X64008095Y-77349523D01*
X63912857Y-77444761D01*
X63770000Y-77492380D01*
X63531904Y-77492380D01*
X64484285Y-76587619D02*
X64531904Y-76540000D01*
X64627142Y-76492380D01*
X64865238Y-76492380D01*
X64960476Y-76540000D01*
X65008095Y-76587619D01*
X65055714Y-76682857D01*
X65055714Y-76778095D01*
X65008095Y-76920952D01*
X64436666Y-77492380D01*
X65055714Y-77492380D01*
X63531904Y-84492380D02*
X63531904Y-83492380D01*
X63770000Y-83492380D01*
X63912857Y-83540000D01*
X64008095Y-83635238D01*
X64055714Y-83730476D01*
X64103333Y-83920952D01*
X64103333Y-84063809D01*
X64055714Y-84254285D01*
X64008095Y-84349523D01*
X63912857Y-84444761D01*
X63770000Y-84492380D01*
X63531904Y-84492380D01*
X64436666Y-83492380D02*
X65055714Y-83492380D01*
X64722380Y-83873333D01*
X64865238Y-83873333D01*
X64960476Y-83920952D01*
X65008095Y-83968571D01*
X65055714Y-84063809D01*
X65055714Y-84301904D01*
X65008095Y-84397142D01*
X64960476Y-84444761D01*
X64865238Y-84492380D01*
X64579523Y-84492380D01*
X64484285Y-84444761D01*
X64436666Y-84397142D01*
X63531904Y-91492380D02*
X63531904Y-90492380D01*
X63770000Y-90492380D01*
X63912857Y-90540000D01*
X64008095Y-90635238D01*
X64055714Y-90730476D01*
X64103333Y-90920952D01*
X64103333Y-91063809D01*
X64055714Y-91254285D01*
X64008095Y-91349523D01*
X63912857Y-91444761D01*
X63770000Y-91492380D01*
X63531904Y-91492380D01*
X64960476Y-90825714D02*
X64960476Y-91492380D01*
X64722380Y-90444761D02*
X64484285Y-91159047D01*
X65103333Y-91159047D01*
X63531904Y-98492380D02*
X63531904Y-97492380D01*
X63770000Y-97492380D01*
X63912857Y-97540000D01*
X64008095Y-97635238D01*
X64055714Y-97730476D01*
X64103333Y-97920952D01*
X64103333Y-98063809D01*
X64055714Y-98254285D01*
X64008095Y-98349523D01*
X63912857Y-98444761D01*
X63770000Y-98492380D01*
X63531904Y-98492380D01*
X65008095Y-97492380D02*
X64531904Y-97492380D01*
X64484285Y-97968571D01*
X64531904Y-97920952D01*
X64627142Y-97873333D01*
X64865238Y-97873333D01*
X64960476Y-97920952D01*
X65008095Y-97968571D01*
X65055714Y-98063809D01*
X65055714Y-98301904D01*
X65008095Y-98397142D01*
X64960476Y-98444761D01*
X64865238Y-98492380D01*
X64627142Y-98492380D01*
X64531904Y-98444761D01*
X64484285Y-98397142D01*
X63531904Y-105492380D02*
X63531904Y-104492380D01*
X63770000Y-104492380D01*
X63912857Y-104540000D01*
X64008095Y-104635238D01*
X64055714Y-104730476D01*
X64103333Y-104920952D01*
X64103333Y-105063809D01*
X64055714Y-105254285D01*
X64008095Y-105349523D01*
X63912857Y-105444761D01*
X63770000Y-105492380D01*
X63531904Y-105492380D01*
X64960476Y-104492380D02*
X64770000Y-104492380D01*
X64674761Y-104540000D01*
X64627142Y-104587619D01*
X64531904Y-104730476D01*
X64484285Y-104920952D01*
X64484285Y-105301904D01*
X64531904Y-105397142D01*
X64579523Y-105444761D01*
X64674761Y-105492380D01*
X64865238Y-105492380D01*
X64960476Y-105444761D01*
X65008095Y-105397142D01*
X65055714Y-105301904D01*
X65055714Y-105063809D01*
X65008095Y-104968571D01*
X64960476Y-104920952D01*
X64865238Y-104873333D01*
X64674761Y-104873333D01*
X64579523Y-104920952D01*
X64531904Y-104968571D01*
X64484285Y-105063809D01*
X63531904Y-112492380D02*
X63531904Y-111492380D01*
X63770000Y-111492380D01*
X63912857Y-111540000D01*
X64008095Y-111635238D01*
X64055714Y-111730476D01*
X64103333Y-111920952D01*
X64103333Y-112063809D01*
X64055714Y-112254285D01*
X64008095Y-112349523D01*
X63912857Y-112444761D01*
X63770000Y-112492380D01*
X63531904Y-112492380D01*
X64436666Y-111492380D02*
X65103333Y-111492380D01*
X64674761Y-112492380D01*
X63531904Y-119492380D02*
X63531904Y-118492380D01*
X63770000Y-118492380D01*
X63912857Y-118540000D01*
X64008095Y-118635238D01*
X64055714Y-118730476D01*
X64103333Y-118920952D01*
X64103333Y-119063809D01*
X64055714Y-119254285D01*
X64008095Y-119349523D01*
X63912857Y-119444761D01*
X63770000Y-119492380D01*
X63531904Y-119492380D01*
X64674761Y-118920952D02*
X64579523Y-118873333D01*
X64531904Y-118825714D01*
X64484285Y-118730476D01*
X64484285Y-118682857D01*
X64531904Y-118587619D01*
X64579523Y-118540000D01*
X64674761Y-118492380D01*
X64865238Y-118492380D01*
X64960476Y-118540000D01*
X65008095Y-118587619D01*
X65055714Y-118682857D01*
X65055714Y-118730476D01*
X65008095Y-118825714D01*
X64960476Y-118873333D01*
X64865238Y-118920952D01*
X64674761Y-118920952D01*
X64579523Y-118968571D01*
X64531904Y-119016190D01*
X64484285Y-119111428D01*
X64484285Y-119301904D01*
X64531904Y-119397142D01*
X64579523Y-119444761D01*
X64674761Y-119492380D01*
X64865238Y-119492380D01*
X64960476Y-119444761D01*
X65008095Y-119397142D01*
X65055714Y-119301904D01*
X65055714Y-119111428D01*
X65008095Y-119016190D01*
X64960476Y-118968571D01*
X64865238Y-118920952D01*
X63531904Y-126492380D02*
X63531904Y-125492380D01*
X63770000Y-125492380D01*
X63912857Y-125540000D01*
X64008095Y-125635238D01*
X64055714Y-125730476D01*
X64103333Y-125920952D01*
X64103333Y-126063809D01*
X64055714Y-126254285D01*
X64008095Y-126349523D01*
X63912857Y-126444761D01*
X63770000Y-126492380D01*
X63531904Y-126492380D01*
X64579523Y-126492380D02*
X64770000Y-126492380D01*
X64865238Y-126444761D01*
X64912857Y-126397142D01*
X65008095Y-126254285D01*
X65055714Y-126063809D01*
X65055714Y-125682857D01*
X65008095Y-125587619D01*
X64960476Y-125540000D01*
X64865238Y-125492380D01*
X64674761Y-125492380D01*
X64579523Y-125540000D01*
X64531904Y-125587619D01*
X64484285Y-125682857D01*
X64484285Y-125920952D01*
X64531904Y-126016190D01*
X64579523Y-126063809D01*
X64674761Y-126111428D01*
X64865238Y-126111428D01*
X64960476Y-126063809D01*
X65008095Y-126016190D01*
X65055714Y-125920952D01*
X63055714Y-133492380D02*
X63055714Y-132492380D01*
X63293809Y-132492380D01*
X63436666Y-132540000D01*
X63531904Y-132635238D01*
X63579523Y-132730476D01*
X63627142Y-132920952D01*
X63627142Y-133063809D01*
X63579523Y-133254285D01*
X63531904Y-133349523D01*
X63436666Y-133444761D01*
X63293809Y-133492380D01*
X63055714Y-133492380D01*
X64579523Y-133492380D02*
X64008095Y-133492380D01*
X64293809Y-133492380D02*
X64293809Y-132492380D01*
X64198571Y-132635238D01*
X64103333Y-132730476D01*
X64008095Y-132778095D01*
X65198571Y-132492380D02*
X65293809Y-132492380D01*
X65389047Y-132540000D01*
X65436666Y-132587619D01*
X65484285Y-132682857D01*
X65531904Y-132873333D01*
X65531904Y-133111428D01*
X65484285Y-133301904D01*
X65436666Y-133397142D01*
X65389047Y-133444761D01*
X65293809Y-133492380D01*
X65198571Y-133492380D01*
X65103333Y-133444761D01*
X65055714Y-133397142D01*
X65008095Y-133301904D01*
X64960476Y-133111428D01*
X64960476Y-132873333D01*
X65008095Y-132682857D01*
X65055714Y-132587619D01*
X65103333Y-132540000D01*
X65198571Y-132492380D01*
X63055714Y-140492380D02*
X63055714Y-139492380D01*
X63293809Y-139492380D01*
X63436666Y-139540000D01*
X63531904Y-139635238D01*
X63579523Y-139730476D01*
X63627142Y-139920952D01*
X63627142Y-140063809D01*
X63579523Y-140254285D01*
X63531904Y-140349523D01*
X63436666Y-140444761D01*
X63293809Y-140492380D01*
X63055714Y-140492380D01*
X64579523Y-140492380D02*
X64008095Y-140492380D01*
X64293809Y-140492380D02*
X64293809Y-139492380D01*
X64198571Y-139635238D01*
X64103333Y-139730476D01*
X64008095Y-139778095D01*
X65531904Y-140492380D02*
X64960476Y-140492380D01*
X65246190Y-140492380D02*
X65246190Y-139492380D01*
X65150952Y-139635238D01*
X65055714Y-139730476D01*
X64960476Y-139778095D01*
X63055714Y-147492380D02*
X63055714Y-146492380D01*
X63293809Y-146492380D01*
X63436666Y-146540000D01*
X63531904Y-146635238D01*
X63579523Y-146730476D01*
X63627142Y-146920952D01*
X63627142Y-147063809D01*
X63579523Y-147254285D01*
X63531904Y-147349523D01*
X63436666Y-147444761D01*
X63293809Y-147492380D01*
X63055714Y-147492380D01*
X64579523Y-147492380D02*
X64008095Y-147492380D01*
X64293809Y-147492380D02*
X64293809Y-146492380D01*
X64198571Y-146635238D01*
X64103333Y-146730476D01*
X64008095Y-146778095D01*
X64960476Y-146587619D02*
X65008095Y-146540000D01*
X65103333Y-146492380D01*
X65341428Y-146492380D01*
X65436666Y-146540000D01*
X65484285Y-146587619D01*
X65531904Y-146682857D01*
X65531904Y-146778095D01*
X65484285Y-146920952D01*
X64912857Y-147492380D01*
X65531904Y-147492380D01*
X67738095Y-62452380D02*
X67738095Y-61452380D01*
X67738095Y-61928571D02*
X68309523Y-61928571D01*
X68309523Y-62452380D02*
X68309523Y-61452380D01*
X69309523Y-62452380D02*
X68738095Y-62452380D01*
X69023809Y-62452380D02*
X69023809Y-61452380D01*
X68928571Y-61595238D01*
X68833333Y-61690476D01*
X68738095Y-61738095D01*
X85738095Y-61952380D02*
X85738095Y-60952380D01*
X85738095Y-61428571D02*
X86309523Y-61428571D01*
X86309523Y-61952380D02*
X86309523Y-60952380D01*
X86738095Y-61047619D02*
X86785714Y-61000000D01*
X86880952Y-60952380D01*
X87119047Y-60952380D01*
X87214285Y-61000000D01*
X87261904Y-61047619D01*
X87309523Y-61142857D01*
X87309523Y-61238095D01*
X87261904Y-61380952D01*
X86690476Y-61952380D01*
X87309523Y-61952380D01*
X63238095Y-162252380D02*
X63238095Y-161252380D01*
X63238095Y-161728571D02*
X63809523Y-161728571D01*
X63809523Y-162252380D02*
X63809523Y-161252380D01*
X64190476Y-161252380D02*
X64809523Y-161252380D01*
X64476190Y-161633333D01*
X64619047Y-161633333D01*
X64714285Y-161680952D01*
X64761904Y-161728571D01*
X64809523Y-161823809D01*
X64809523Y-162061904D01*
X64761904Y-162157142D01*
X64714285Y-162204761D01*
X64619047Y-162252380D01*
X64333333Y-162252380D01*
X64238095Y-162204761D01*
X64190476Y-162157142D01*
X90238095Y-162252380D02*
X90238095Y-161252380D01*
X90238095Y-161728571D02*
X90809523Y-161728571D01*
X90809523Y-162252380D02*
X90809523Y-161252380D01*
X91714285Y-161585714D02*
X91714285Y-162252380D01*
X91476190Y-161204761D02*
X91238095Y-161919047D01*
X91857142Y-161919047D01*
X78822380Y-142246666D02*
X78346190Y-142580000D01*
X78822380Y-142818095D02*
X77822380Y-142818095D01*
X77822380Y-142437142D01*
X77870000Y-142341904D01*
X77917619Y-142294285D01*
X78012857Y-142246666D01*
X78155714Y-142246666D01*
X78250952Y-142294285D01*
X78298571Y-142341904D01*
X78346190Y-142437142D01*
X78346190Y-142818095D01*
X78822380Y-141294285D02*
X78822380Y-141865714D01*
X78822380Y-141580000D02*
X77822380Y-141580000D01*
X77965238Y-141675238D01*
X78060476Y-141770476D01*
X78108095Y-141865714D01*
X86822380Y-142246666D02*
X86346190Y-142580000D01*
X86822380Y-142818095D02*
X85822380Y-142818095D01*
X85822380Y-142437142D01*
X85870000Y-142341904D01*
X85917619Y-142294285D01*
X86012857Y-142246666D01*
X86155714Y-142246666D01*
X86250952Y-142294285D01*
X86298571Y-142341904D01*
X86346190Y-142437142D01*
X86346190Y-142818095D01*
X85917619Y-141865714D02*
X85870000Y-141818095D01*
X85822380Y-141722857D01*
X85822380Y-141484761D01*
X85870000Y-141389523D01*
X85917619Y-141341904D01*
X86012857Y-141294285D01*
X86108095Y-141294285D01*
X86250952Y-141341904D01*
X86822380Y-141913333D01*
X86822380Y-141294285D01*
X73822380Y-142246666D02*
X73346190Y-142580000D01*
X73822380Y-142818095D02*
X72822380Y-142818095D01*
X72822380Y-142437142D01*
X72870000Y-142341904D01*
X72917619Y-142294285D01*
X73012857Y-142246666D01*
X73155714Y-142246666D01*
X73250952Y-142294285D01*
X73298571Y-142341904D01*
X73346190Y-142437142D01*
X73346190Y-142818095D01*
X72822380Y-141913333D02*
X72822380Y-141294285D01*
X73203333Y-141627619D01*
X73203333Y-141484761D01*
X73250952Y-141389523D01*
X73298571Y-141341904D01*
X73393809Y-141294285D01*
X73631904Y-141294285D01*
X73727142Y-141341904D01*
X73774761Y-141389523D01*
X73822380Y-141484761D01*
X73822380Y-141770476D01*
X73774761Y-141865714D01*
X73727142Y-141913333D01*
X87822380Y-121746666D02*
X87346190Y-122080000D01*
X87822380Y-122318095D02*
X86822380Y-122318095D01*
X86822380Y-121937142D01*
X86870000Y-121841904D01*
X86917619Y-121794285D01*
X87012857Y-121746666D01*
X87155714Y-121746666D01*
X87250952Y-121794285D01*
X87298571Y-121841904D01*
X87346190Y-121937142D01*
X87346190Y-122318095D01*
X87155714Y-120889523D02*
X87822380Y-120889523D01*
X86774761Y-121127619D02*
X87489047Y-121365714D01*
X87489047Y-120746666D01*
X91822380Y-142246666D02*
X91346190Y-142580000D01*
X91822380Y-142818095D02*
X90822380Y-142818095D01*
X90822380Y-142437142D01*
X90870000Y-142341904D01*
X90917619Y-142294285D01*
X91012857Y-142246666D01*
X91155714Y-142246666D01*
X91250952Y-142294285D01*
X91298571Y-142341904D01*
X91346190Y-142437142D01*
X91346190Y-142818095D01*
X90822380Y-141341904D02*
X90822380Y-141818095D01*
X91298571Y-141865714D01*
X91250952Y-141818095D01*
X91203333Y-141722857D01*
X91203333Y-141484761D01*
X91250952Y-141389523D01*
X91298571Y-141341904D01*
X91393809Y-141294285D01*
X91631904Y-141294285D01*
X91727142Y-141341904D01*
X91774761Y-141389523D01*
X91822380Y-141484761D01*
X91822380Y-141722857D01*
X91774761Y-141818095D01*
X91727142Y-141865714D01*
X84833333Y-93952380D02*
X84500000Y-93476190D01*
X84261904Y-93952380D02*
X84261904Y-92952380D01*
X84642857Y-92952380D01*
X84738095Y-93000000D01*
X84785714Y-93047619D01*
X84833333Y-93142857D01*
X84833333Y-93285714D01*
X84785714Y-93380952D01*
X84738095Y-93428571D01*
X84642857Y-93476190D01*
X84261904Y-93476190D01*
X85690476Y-92952380D02*
X85500000Y-92952380D01*
X85404761Y-93000000D01*
X85357142Y-93047619D01*
X85261904Y-93190476D01*
X85214285Y-93380952D01*
X85214285Y-93761904D01*
X85261904Y-93857142D01*
X85309523Y-93904761D01*
X85404761Y-93952380D01*
X85595238Y-93952380D01*
X85690476Y-93904761D01*
X85738095Y-93857142D01*
X85785714Y-93761904D01*
X85785714Y-93523809D01*
X85738095Y-93428571D01*
X85690476Y-93380952D01*
X85595238Y-93333333D01*
X85404761Y-93333333D01*
X85309523Y-93380952D01*
X85261904Y-93428571D01*
X85214285Y-93523809D01*
X77666666Y-150004761D02*
X77809523Y-150052380D01*
X78047619Y-150052380D01*
X78142857Y-150004761D01*
X78190476Y-149957142D01*
X78238095Y-149861904D01*
X78238095Y-149766666D01*
X78190476Y-149671428D01*
X78142857Y-149623809D01*
X78047619Y-149576190D01*
X77857142Y-149528571D01*
X77761904Y-149480952D01*
X77714285Y-149433333D01*
X77666666Y-149338095D01*
X77666666Y-149242857D01*
X77714285Y-149147619D01*
X77761904Y-149100000D01*
X77857142Y-149052380D01*
X78095238Y-149052380D01*
X78238095Y-149100000D01*
X78571428Y-149052380D02*
X78809523Y-150052380D01*
X79000000Y-149338095D01*
X79190476Y-150052380D01*
X79428571Y-149052380D01*
X80333333Y-150052380D02*
X79761904Y-150052380D01*
X80047619Y-150052380D02*
X80047619Y-149052380D01*
X79952380Y-149195238D01*
X79857142Y-149290476D01*
X79761904Y-149338095D01*
X70738095Y-75952380D02*
X70738095Y-76761904D01*
X70785714Y-76857142D01*
X70833333Y-76904761D01*
X70928571Y-76952380D01*
X71119047Y-76952380D01*
X71214285Y-76904761D01*
X71261904Y-76857142D01*
X71309523Y-76761904D01*
X71309523Y-75952380D01*
X72309523Y-76952380D02*
X71738095Y-76952380D01*
X72023809Y-76952380D02*
X72023809Y-75952380D01*
X71928571Y-76095238D01*
X71833333Y-76190476D01*
X71738095Y-76238095D01*
X71238095Y-110952380D02*
X71238095Y-111761904D01*
X71285714Y-111857142D01*
X71333333Y-111904761D01*
X71428571Y-111952380D01*
X71619047Y-111952380D01*
X71714285Y-111904761D01*
X71761904Y-111857142D01*
X71809523Y-111761904D01*
X71809523Y-110952380D01*
X72238095Y-111047619D02*
X72285714Y-111000000D01*
X72380952Y-110952380D01*
X72619047Y-110952380D01*
X72714285Y-111000000D01*
X72761904Y-111047619D01*
X72809523Y-111142857D01*
X72809523Y-111238095D01*
X72761904Y-111380952D01*
X72190476Y-111952380D01*
X72809523Y-111952380D01*
X75333333Y-107357142D02*
X75285714Y-107404761D01*
X75142857Y-107452380D01*
X75047619Y-107452380D01*
X74904761Y-107404761D01*
X74809523Y-107309523D01*
X74761904Y-107214285D01*
X74714285Y-107023809D01*
X74714285Y-106880952D01*
X74761904Y-106690476D01*
X74809523Y-106595238D01*
X74904761Y-106500000D01*
X75047619Y-106452380D01*
X75142857Y-106452380D01*
X75285714Y-106500000D01*
X75333333Y-106547619D01*
X75666666Y-106452380D02*
X76285714Y-106452380D01*
X75952380Y-106833333D01*
X76095238Y-106833333D01*
X76190476Y-106880952D01*
X76238095Y-106928571D01*
X76285714Y-107023809D01*
X76285714Y-107261904D01*
X76238095Y-107357142D01*
X76190476Y-107404761D01*
X76095238Y-107452380D01*
X75809523Y-107452380D01*
X75714285Y-107404761D01*
X75666666Y-107357142D01*
X74333333Y-78207142D02*
X74285714Y-78254761D01*
X74142857Y-78302380D01*
X74047619Y-78302380D01*
X73904761Y-78254761D01*
X73809523Y-78159523D01*
X73761904Y-78064285D01*
X73714285Y-77873809D01*
X73714285Y-77730952D01*
X73761904Y-77540476D01*
X73809523Y-77445238D01*
X73904761Y-77350000D01*
X74047619Y-77302380D01*
X74142857Y-77302380D01*
X74285714Y-77350000D01*
X74333333Y-77397619D01*
X75238095Y-77302380D02*
X74761904Y-77302380D01*
X74714285Y-77778571D01*
X74761904Y-77730952D01*
X74857142Y-77683333D01*
X75095238Y-77683333D01*
X75190476Y-77730952D01*
X75238095Y-77778571D01*
X75285714Y-77873809D01*
X75285714Y-78111904D01*
X75238095Y-78207142D01*
X75190476Y-78254761D01*
X75095238Y-78302380D01*
X74857142Y-78302380D01*
X74761904Y-78254761D01*
X74714285Y-78207142D01*
M02*
